<?xml version="1.0" encoding="UTF-8" standalone="no"?><!DOCTYPE svg PUBLIC "-//W3C//DTD SVG 1.1//EN" "http://www.w3.org/Graphics/SVG/1.1/DTD/svg11.dtd"><svg width="16px" height="16px" version="1.1" xmlns="http://www.w3.org/2000/svg" xmlns:xlink="http://www.w3.org/1999/xlink" xml:space="preserve" xmlns:serif="http://www.serif.com/" style="fill-rule:evenodd;clip-rule:evenodd;stroke-linecap:round;stroke-linejoin:round;stroke-miterlimit:1.5;"><g transform="matrix(1,0,0,1,-150,-44)"><g id="add_file" transform="matrix(1,0,0,1,150,44)"><rect x="0" y="0" width="16" height="16" style="fill:none;"/><clipPath id="_clip1"><rect x="0" y="0" width="16" height="16"/></clipPath><g clip-path="url(#_clip1)"><g transform="matrix(1,0,0,1,-16,0)"><path d="M30.5,14.5L30.5,15.5L29.5,15.5M25.5,15.5L18.5,15.5L18.5,4.5L22.5,0.5L30.5,0.5L30.5,10.5" style="fill:none;stroke:rgb(238,238,238);stroke-width:1px;"/></g><g transform="matrix(1,0,0,1.2,-16.5,-2.5)"><path d="M28,10L28,15" style="fill:none;stroke:rgb(238,238,238);stroke-width:0.91px;"/></g><g transform="matrix(7.34788e-17,1,-1.2,6.12323e-17,26.5,-15.5)"><path d="M28,10L28,15" style="fill:none;stroke:rgb(238,238,238);stroke-width:0.91px;"/></g><g transform="matrix(1,0,0,1,-31.5,0.5)"><path d="M34,4L38,4L38,-0" style="fill:none;stroke:rgb(238,238,238);stroke-width:1px;"/></g></g></g></g></svg>