<?xml version="1.0" encoding="UTF-8" standalone="no"?><!DOCTYPE svg PUBLIC "-//W3C//DTD SVG 1.1//EN" "http://www.w3.org/Graphics/SVG/1.1/DTD/svg11.dtd"><svg width="16px" height="16px" version="1.1" xmlns="http://www.w3.org/2000/svg" xmlns:xlink="http://www.w3.org/1999/xlink" xml:space="preserve" xmlns:serif="http://www.serif.com/" style="fill-rule:evenodd;clip-rule:evenodd;stroke-linecap:round;stroke-linejoin:round;stroke-miterlimit:1.5;"><g transform="matrix(1,0,0,1,-134,-44)"><g id="add_folder" transform="matrix(1,0,0,1,134,44)"><rect x="0" y="0" width="16" height="16" style="fill:none;"/><clipPath id="_clip1"><rect x="0" y="0" width="16" height="16"/></clipPath><g clip-path="url(#_clip1)"><g transform="matrix(1,0,0,1,-16,0)"><path d="M26.5,15.5L16.5,15.5L16.5,2C16.5,1.602 16.658,1.221 16.939,0.939C17.221,0.658 17.602,0.5 18,0.5C18.916,0.5 20.084,0.5 21,0.5C21.828,0.5 22.5,1.172 22.5,2C22.5,2.398 22.658,2.779 22.939,3.061C23.221,3.342 23.602,3.5 24,3.5C25.665,3.5 28.335,3.5 30,3.5C30.398,3.5 30.779,3.658 31.061,3.939C31.342,4.221 31.5,4.602 31.5,5C31.5,7.057 31.5,10.5 31.5,10.5M31.5,14.5L31.5,15.5L30.5,15.5" style="fill:none;stroke:rgb(238,238,238);stroke-width:1px;"/></g><g transform="matrix(1,0,0,1.2,-15.5,-2.5)"><path d="M28,10L28,15" style="fill:none;stroke:rgb(238,238,238);stroke-width:0.91px;"/></g><g transform="matrix(7.34788e-17,1,-1.2,6.12323e-17,27.5,-15.5)"><path d="M28,10L28,15" style="fill:none;stroke:rgb(238,238,238);stroke-width:0.91px;"/></g></g></g></g></svg>