<?xml version="1.0" encoding="UTF-8" standalone="no"?><!DOCTYPE svg PUBLIC "-//W3C//DTD SVG 1.1//EN" "http://www.w3.org/Graphics/SVG/1.1/DTD/svg11.dtd"><svg width="21px" height="21px" version="1.1" xmlns="http://www.w3.org/2000/svg" xmlns:xlink="http://www.w3.org/1999/xlink" xml:space="preserve" xmlns:serif="http://www.serif.com/" style="fill-rule:evenodd;clip-rule:evenodd;stroke-linecap:round;stroke-linejoin:round;"><g transform="matrix(1,0,0,1,-186,-22)"><g id="case_insensitive" transform="matrix(1,0,0,1,170,-18)"><rect x="16" y="40" width="21" height="21" style="fill:none;"/><g transform="matrix(0.779222,0,0,0.779222,6.39649,10.7639)"><g transform="matrix(0.65625,0,0,0.65625,-26.049,38.8906)"><path d="M70.5,13.5C70.5,9.085 74.085,5.5 78.5,5.5" style="fill:none;stroke:rgb(238,238,238);stroke-width:1.96px;"/></g><g transform="matrix(0.996195,0.0871557,-0.0871557,0.996195,-49.0128,30.8993)"><path d="M68.5,9.5L70.5,11.5L72.5,9.5" style="fill:none;stroke:rgb(238,238,238);stroke-width:1.28px;"/></g><g transform="matrix(-0.65625,8.03674e-17,-8.03674e-17,-0.65625,77.7656,63.3927)"><path d="M70.5,13.5C70.5,9.085 74.085,5.5 78.5,5.5" style="fill:none;stroke:rgb(238,238,238);stroke-width:1.96px;"/></g><g transform="matrix(-0.996195,-0.0871557,0.0871557,-0.996195,100.729,71.3841)"><path d="M68.5,9.5L70.5,11.5L72.5,9.5" style="fill:none;stroke:rgb(238,238,238);stroke-width:1.28px;"/></g></g><g transform="matrix(1,0,0,1,15.5,40)"><path d="M11,10.5L15,2.5L19,10.5" style="fill:none;stroke:rgb(238,238,238);stroke-width:1px;"/></g><g transform="matrix(1,0,0,1,15.5,40)"><path d="M12.5,7.5L17.5,7.5" style="fill:none;stroke:rgb(238,238,238);stroke-width:1px;"/></g><g transform="matrix(1,0,0,1,14.5,40.9615)"><path d="M4.5,11.5C6,10 9,10 9,14L9,17.5" style="fill:none;stroke:rgb(238,238,238);stroke-width:1px;"/></g><g transform="matrix(1,0,0,1,14.5,40.9615)"><path d="M9,16.5C6,18 4,17.5 4,15.5C4,14.038 5.5,13.538 8.983,13.5" style="fill:none;stroke:rgb(238,238,238);stroke-width:1px;"/></g></g></g></svg>