<?xml version="1.0" encoding="UTF-8" standalone="no"?><!DOCTYPE svg PUBLIC "-//W3C//DTD SVG 1.1//EN" "http://www.w3.org/Graphics/SVG/1.1/DTD/svg11.dtd"><svg width="16px" height="16px" version="1.1" xmlns="http://www.w3.org/2000/svg" xmlns:xlink="http://www.w3.org/1999/xlink" xml:space="preserve" xmlns:serif="http://www.serif.com/" style="fill-rule:evenodd;clip-rule:evenodd;stroke-linecap:square;stroke-linejoin:round;stroke-miterlimit:1.5;"><g transform="matrix(1,0,0,1,-387,-44)"><g id="file_include" transform="matrix(1,0,0,1,387,44)"><rect x="0" y="0" width="16" height="16" style="fill:none;"/><clipPath id="_clip1"><rect x="0" y="0" width="16" height="16"/></clipPath><g clip-path="url(#_clip1)"><g><g transform="matrix(1.2,0,0,1,-20.9,0)"><path d="M18.667,4.5L22,0.5L29.5,0.5L29.5,15.5L18.667,15.5L18.667,4.5Z" style="fill:none;stroke:rgb(238,238,238);stroke-width:0.91px;"/></g><g transform="matrix(1,0,0,1,-32.5,0.5)"><path d="M34,4L38,4L38,-0" style="fill:none;stroke:rgb(238,238,238);stroke-width:1px;stroke-linecap:round;"/></g></g><g transform="matrix(0.875,0,0,1,-234.812,-45)"><path d="M273.5,57.5C277.5,57.5 277.5,58.5 277.5,58.5" style="fill:none;stroke:rgb(238,238,238);stroke-width:1.06px;stroke-linecap:round;stroke-miterlimit:4;"/></g><g transform="matrix(0.875,0,0,1,-234.812,-50)"><path d="M273.5,57.5C277.5,57.5 277.5,58.5 277.5,58.5" style="fill:none;stroke:rgb(238,238,238);stroke-width:1.06px;stroke-linecap:round;stroke-miterlimit:4;"/></g><g transform="matrix(0.875,0,0,0.833333,-234.812,-35.4167)"><path d="M273.5,57.5L273.5,51.5" style="fill:none;stroke:rgb(238,238,238);stroke-width:1.17px;stroke-linecap:round;stroke-miterlimit:4;"/></g><g transform="matrix(-0.875,0,0,1,250.812,-45)"><path d="M273.5,57.5C277.5,57.5 277.5,58.5 277.5,58.5" style="fill:none;stroke:rgb(238,238,238);stroke-width:1.06px;stroke-linecap:round;stroke-miterlimit:4;"/></g><g transform="matrix(-0.875,0,0,1,250.812,-50)"><path d="M273.5,57.5C277.5,57.5 277.5,58.5 277.5,58.5" style="fill:none;stroke:rgb(238,238,238);stroke-width:1.06px;stroke-linecap:round;stroke-miterlimit:4;"/></g><g transform="matrix(-0.875,0,0,0.833333,250.812,-35.4167)"><path d="M273.5,57.5L273.5,51.5" style="fill:none;stroke:rgb(238,238,238);stroke-width:1.17px;stroke-linecap:round;stroke-miterlimit:4;"/></g><g transform="matrix(1,0,0,0.833333,-270,-34.4167)"><path d="M278,51.5L278,57.5" style="fill:none;stroke:rgb(238,238,238);stroke-width:1.09px;stroke-linecap:round;stroke-miterlimit:4;"/></g></g></g></g></svg>