<?xml version="1.0" encoding="UTF-8" standalone="no"?><!DOCTYPE svg PUBLIC "-//W3C//DTD SVG 1.1//EN" "http://www.w3.org/Graphics/SVG/1.1/DTD/svg11.dtd"><svg width="16px" height="16px" version="1.1" xmlns="http://www.w3.org/2000/svg" xmlns:xlink="http://www.w3.org/1999/xlink" xml:space="preserve" xmlns:serif="http://www.serif.com/" style="fill-rule:evenodd;clip-rule:evenodd;stroke-linecap:square;stroke-linejoin:round;stroke-miterlimit:1.5;"><g transform="matrix(1,0,0,1,-320,-44)"><g id="file_txt" transform="matrix(1,0,0,1,320,44)"><rect x="0" y="0" width="16" height="16" style="fill:none;"/><clipPath id="_clip1"><rect x="0" y="0" width="16" height="16"/></clipPath><g clip-path="url(#_clip1)"><g><g transform="matrix(1.2,0,0,1,-20.9,0)"><path d="M18.667,4.5L22,0.5L29.5,0.5L29.5,15.5L18.667,15.5L18.667,4.5Z" style="fill:none;stroke:rgb(238,238,238);stroke-width:0.91px;"/></g><g transform="matrix(1,0,0,1,-32.5,0.5)"><path d="M34,4L38,4L38,-0" style="fill:none;stroke:rgb(238,238,238);stroke-width:1px;stroke-linecap:round;"/></g></g><g transform="matrix(1,0,0,1,-203,-42)"><path d="M206.5,49.5L212.5,49.5" style="fill:none;stroke:rgb(238,238,238);stroke-width:1px;stroke-linecap:round;stroke-miterlimit:4;"/></g><g transform="matrix(0.5,0,0,1,-99.75,-40)"><path d="M206.5,49.5L212.5,49.5" style="fill:none;stroke:rgb(238,238,238);stroke-width:1.26px;stroke-linecap:round;stroke-miterlimit:4;"/></g><g transform="matrix(0.833333,0,0,1,-168.583,-38)"><path d="M206.5,49.5L212.5,49.5" style="fill:none;stroke:rgb(238,238,238);stroke-width:1.09px;stroke-linecap:round;stroke-miterlimit:4;"/></g><g transform="matrix(0.666667,0,0,1,-134.167,-36)"><path d="M206.5,49.5L212.5,49.5" style="fill:none;stroke:rgb(238,238,238);stroke-width:1.18px;stroke-linecap:round;stroke-miterlimit:4;"/></g></g></g></g></svg>