<?xml version="1.0" encoding="UTF-8" standalone="no"?><!DOCTYPE svg PUBLIC "-//W3C//DTD SVG 1.1//EN" "http://www.w3.org/Graphics/SVG/1.1/DTD/svg11.dtd"><svg width="16px" height="16px" version="1.1" xmlns="http://www.w3.org/2000/svg" xmlns:xlink="http://www.w3.org/1999/xlink" xml:space="preserve" xmlns:serif="http://www.serif.com/" style="fill-rule:evenodd;clip-rule:evenodd;stroke-linecap:round;stroke-linejoin:round;"><g transform="matrix(1,0,0,1,-269,-44)"><g id="file_shader_gsh" transform="matrix(1,0,0,1,269,44)"><rect x="0" y="0" width="16" height="16" style="fill:none;"/><clipPath id="_clip1"><rect x="0" y="0" width="16" height="16"/></clipPath><g clip-path="url(#_clip1)"><g transform="matrix(1.06667,-3.76814e-18,-1.96548e-18,0.583333,-131.767,-20.875)"><path d="M127.75,43.5L131.5,55.5L124,55.5L127.75,43.5Z" style="fill:none;stroke:rgb(238,238,238);stroke-width:1.16px;"/></g><g transform="matrix(-1.06667,1.35653e-16,-6.87919e-17,-0.583333,144.767,36.875)"><path d="M127.75,43.5L131.5,55.5L124,55.5L127.75,43.5Z" style="fill:none;stroke:rgb(238,238,238);stroke-width:1.16px;"/></g><g transform="matrix(-1.37773e-16,1,-0.75,-1.83697e-16,55.125,-194)"><path d="M204.5,53.5L204.5,57.5" style="fill:none;stroke:rgb(238,238,238);stroke-width:1.13px;"/></g><g transform="matrix(-1,-7.65404e-17,1.37773e-16,-0.75,218,52.125)"><path d="M204.5,53.5L204.5,57.5" style="fill:none;stroke:rgb(238,238,238);stroke-width:1.13px;"/></g></g></g></g></svg>