<?xml version="1.0" encoding="UTF-8" standalone="no"?><!DOCTYPE svg PUBLIC "-//W3C//DTD SVG 1.1//EN" "http://www.w3.org/Graphics/SVG/1.1/DTD/svg11.dtd"><svg width="16px" height="16px" version="1.1" xmlns="http://www.w3.org/2000/svg" xmlns:xlink="http://www.w3.org/1999/xlink" xml:space="preserve" xmlns:serif="http://www.serif.com/" style="fill-rule:evenodd;clip-rule:evenodd;stroke-linecap:square;stroke-linejoin:round;stroke-miterlimit:1.5;"><g transform="matrix(1,0,0,1,-259,-44)"><g id="file_properties" transform="matrix(1,0,0,1,259,44)"><rect x="0" y="0" width="16" height="16" style="fill:none;"/><clipPath id="_clip1"><rect x="0" y="0" width="16" height="16"/></clipPath><g clip-path="url(#_clip1)"><g><g transform="matrix(1.2,0,0,1,-20.9,0)"><path d="M18.667,4.5L22,0.5L29.5,0.5L29.5,15.5L18.667,15.5L18.667,4.5Z" style="fill:none;stroke:rgb(238,238,238);stroke-width:0.91px;"/></g><g transform="matrix(1,0,0,1,-32.5,0.5)"><path d="M34,4L38,4L38,-0" style="fill:none;stroke:rgb(238,238,238);stroke-width:1px;stroke-linecap:round;"/></g></g><g transform="matrix(0.92388,-0.382683,0.382683,0.92388,-259.611,62.9403)"><path d="M267.849,49.515L267.724,50.945C268.248,50.991 268.745,51.197 269.149,51.535L270.071,50.436C270.25,50.585 270.415,50.75 270.564,50.929L269.465,51.851C269.803,52.255 270.009,52.752 270.055,53.276L271.485,53.151C271.505,53.383 271.505,53.617 271.485,53.849L270.055,53.724C270.009,54.248 269.803,54.745 269.465,55.149L270.564,56.071C270.415,56.25 270.25,56.415 270.071,56.564L269.149,55.465C268.745,55.803 268.248,56.009 267.724,56.055L267.849,57.485C267.617,57.505 267.383,57.505 267.151,57.485L267.276,56.055C266.752,56.009 266.255,55.803 265.851,55.465L264.929,56.564C264.75,56.415 264.585,56.25 264.436,56.071L265.535,55.149C265.197,54.745 264.991,54.248 264.945,53.724L263.515,53.849C263.495,53.617 263.495,53.383 263.515,53.151L264.945,53.276C264.991,52.752 265.197,52.255 265.535,51.851L264.436,50.929C264.585,50.75 264.75,50.585 264.929,50.436L265.851,51.535C266.255,51.197 266.752,50.991 267.276,50.945L267.151,49.515C267.383,49.495 267.617,49.495 267.849,49.515Z" style="fill:none;stroke:rgb(238,238,238);stroke-width:1px;stroke-linecap:round;stroke-miterlimit:4;"/></g></g></g></g></svg>