<?xml version="1.0" encoding="UTF-8" standalone="no"?><!DOCTYPE svg PUBLIC "-//W3C//DTD SVG 1.1//EN" "http://www.w3.org/Graphics/SVG/1.1/DTD/svg11.dtd"><svg width="16px" height="16px" version="1.1" xmlns="http://www.w3.org/2000/svg" xmlns:xlink="http://www.w3.org/1999/xlink" xml:space="preserve" xmlns:serif="http://www.serif.com/" style="fill-rule:evenodd;clip-rule:evenodd;stroke-linecap:square;stroke-linejoin:round;stroke-miterlimit:1.5;"><rect id="file_include" x="0" y="0" width="16" height="16" style="fill:none;"/><clipPath id="_clip1"><rect x="0" y="0" width="16" height="16"/></clipPath><g clip-path="url(#_clip1)"><g><path d="M1.5,4.5l4,-4l9,0l0,15l-13,0l0,-11Z" style="fill:none;stroke:rgb(238,238,238);stroke-width:1px;"/><path d="M1.5,4.5l4,-0l0,-4" style="fill:none;stroke:rgb(238,238,238);stroke-width:1px;stroke-linecap:round;"/></g><path d="M4.5,12.5c3.5,0 3.5,1 3.5,1" style="fill:none;stroke:rgb(238,238,238);stroke-width:1px;stroke-linecap:round;stroke-miterlimit:4;"/><path d="M4.5,7.5c3.5,0 3.5,1 3.5,1" style="fill:none;stroke:rgb(238,238,238);stroke-width:1px;stroke-linecap:round;stroke-miterlimit:4;"/><path d="M4.5,12.5l0,-5" style="fill:none;stroke:rgb(238,238,238);stroke-width:1px;stroke-linecap:round;stroke-miterlimit:4;"/><path d="M11.5,12.5c-3.5,0 -3.5,1 -3.5,1" style="fill:none;stroke:rgb(238,238,238);stroke-width:1px;stroke-linecap:round;stroke-miterlimit:4;"/><path d="M11.5,7.5c-3.5,0 -3.5,1 -3.5,1" style="fill:none;stroke:rgb(238,238,238);stroke-width:1px;stroke-linecap:round;stroke-miterlimit:4;"/><path d="M11.5,12.5l0,-5" style="fill:none;stroke:rgb(238,238,238);stroke-width:1px;stroke-linecap:round;stroke-miterlimit:4;"/><path d="M8,8.5l0,5" style="fill:none;stroke:rgb(238,238,238);stroke-width:1px;stroke-linecap:round;stroke-miterlimit:4;"/></g></svg>