<?xml version="1.0" encoding="UTF-8" standalone="no"?><!DOCTYPE svg PUBLIC "-//W3C//DTD SVG 1.1//EN" "http://www.w3.org/Graphics/SVG/1.1/DTD/svg11.dtd"><svg width="16px" height="16px" version="1.1" xmlns="http://www.w3.org/2000/svg" xmlns:xlink="http://www.w3.org/1999/xlink" xml:space="preserve" xmlns:serif="http://www.serif.com/" style="fill-rule:evenodd;clip-rule:evenodd;stroke-linecap:square;stroke-miterlimit:1.5;"><rect id="folder" x="0" y="0" width="16" height="16" style="fill:none;"/><clipPath id="_clip1"><rect x="0" y="0" width="16" height="16"/></clipPath><g clip-path="url(#_clip1)"><path d="M0.5,2.5c-0,-1.105 0.895,-2 2,-2c0.816,0 1.744,0 2.5,0c0.828,0 1.5,0.672 1.5,1.5c0,0.398 0.158,0.779 0.439,1.061c0.282,0.281 0.663,0.439 1.061,0.439c1.507,0 3.837,0 5.5,0c1.105,-0 2,0.895 2,2c0,3.414 0,10 0,10l-15,0l0,-13Z" style="fill:none;stroke:rgb(238,238,238);stroke-width:1px;"/></g></svg>