<?xml version="1.0" encoding="UTF-8" standalone="no"?><!DOCTYPE svg PUBLIC "-//W3C//DTD SVG 1.1//EN" "http://www.w3.org/Graphics/SVG/1.1/DTD/svg11.dtd"><svg width="16px" height="16px" version="1.1" xmlns="http://www.w3.org/2000/svg" xmlns:xlink="http://www.w3.org/1999/xlink" xml:space="preserve" xmlns:serif="http://www.serif.com/" style="fill-rule:evenodd;clip-rule:evenodd;stroke-linecap:round;stroke-linejoin:round;stroke-miterlimit:1.5;"><rect id="keyword_struct" x="0" y="0" width="16" height="16" style="fill:none;"/><path d="M4.5,1.5c-1,0 -1,1 -1,4l-2.5,2.5l2.5,2.5c0,3 0,4 1,4" style="fill:none;stroke:rgb(255,197,255);stroke-width:1px;"/><path d="M11.5,1.5c1,0 1,1 1,4l2.5,2.5l-2.5,2.5c0,3 0,4 -1,4" style="fill:none;stroke:rgb(255,197,255);stroke-width:1px;"/><path d="M8.5,1.5c0.552,0 1,0.448 1,1c0,0.322 0,0.678 0,1c-0,0.552 -0.448,1 -1,1c-0.322,0 -0.678,0 -1,0c-0.552,-0 -1,-0.448 -1,-1c0,-0.322 0,-0.678 0,-1c0,-0.552 0.448,-1 1,-1l1,0Z" style="fill:none;stroke:rgb(255,197,255);stroke-width:1px;stroke-linecap:square;stroke-linejoin:miter;stroke-miterlimit:2;"/><path d="M8.5,6.5c0.552,0 1,0.448 1,1c0,0.322 0,0.678 0,1c-0,0.552 -0.448,1 -1,1c-0.322,0 -0.678,0 -1,0c-0.552,-0 -1,-0.448 -1,-1c0,-0.322 0,-0.678 0,-1c0,-0.552 0.448,-1 1,-1l1,0Z" style="fill:none;stroke:rgb(255,197,255);stroke-width:1px;stroke-linecap:square;stroke-linejoin:miter;stroke-miterlimit:2;"/><path d="M8.5,11.5c0.552,0 1,0.448 1,1c0,0.322 0,0.678 0,1c-0,0.552 -0.448,1 -1,1c-0.322,0 -0.678,0 -1,0c-0.552,-0 -1,-0.448 -1,-1c0,-0.322 0,-0.678 0,-1c0,-0.552 0.448,-1 1,-1l1,-0Z" style="fill:none;stroke:rgb(255,197,255);stroke-width:1px;stroke-linecap:square;stroke-linejoin:miter;stroke-miterlimit:2;"/></svg>