<?xml version="1.0" encoding="UTF-8" standalone="no"?><!DOCTYPE svg PUBLIC "-//W3C//DTD SVG 1.1//EN" "http://www.w3.org/Graphics/SVG/1.1/DTD/svg11.dtd"><svg width="16px" height="16px" version="1.1" xmlns="http://www.w3.org/2000/svg" xmlns:xlink="http://www.w3.org/1999/xlink" xml:space="preserve" xmlns:serif="http://www.serif.com/" style="fill-rule:evenodd;clip-rule:evenodd;stroke-linecap:round;stroke-linejoin:round;stroke-miterlimit:2;"><rect id="keyword_for" x="0" y="0" width="16" height="16" style="fill:none;"/><path d="M13.811,9.5c-0.667,2.587 -3.017,4.5 -5.811,4.5c-2.794,0 -5.144,-1.913 -5.811,-4.5m0,-3c0.667,-2.587 3.017,-4.5 5.811,-4.5c2.794,0 5.144,1.913 5.811,4.5" style="fill:none;stroke:rgb(255,198,255);stroke-width:1px;"/><path d="M1.457,12.232l0.732,-2.732l2.733,0.732" style="fill:none;stroke:rgb(255,198,255);stroke-width:1px;"/><path d="M14.543,3.768l-0.732,2.732l-2.733,-0.732" style="fill:none;stroke:rgb(255,198,255);stroke-width:1px;"/><g><path d="M6.5,5.5l-0.001,-0c-0.265,0 -0.519,0.105 -0.706,0.293c-0.188,0.187 -0.293,0.441 -0.293,0.706c0,0.871 0,2.129 0,3.001c-0,0.552 0.448,1 1,1c-0,0 0,0 0,0" style="fill:none;stroke:rgb(255,198,255);stroke-width:1px;"/><path d="M9.5,5.5l0.001,-0c0.265,0 0.519,0.105 0.706,0.293c0.188,0.187 0.293,0.441 0.293,0.706c0,0.871 0,2.129 0,3.001c0,0.552 -0.448,1 -1,1c0,0 0,0 0,0" style="fill:none;stroke:rgb(255,198,255);stroke-width:1px;"/></g></svg>