<?xml version="1.0" encoding="UTF-8" standalone="no"?><!DOCTYPE svg PUBLIC "-//W3C//DTD SVG 1.1//EN" "http://www.w3.org/Graphics/SVG/1.1/DTD/svg11.dtd"><svg width="16px" height="16px" version="1.1" xmlns="http://www.w3.org/2000/svg" xmlns:xlink="http://www.w3.org/1999/xlink" xml:space="preserve" xmlns:serif="http://www.serif.com/" style="fill-rule:evenodd;clip-rule:evenodd;stroke-linecap:round;stroke-linejoin:round;stroke-miterlimit:2;"><g transform="matrix(1,0,0,1,-275,-248)"><g id="keyword_switch" transform="matrix(1,0,0,1,203,163)"><rect x="72" y="85" width="16" height="16" style="fill:none;"/><g transform="matrix(1,0,0,1,-142.5,-1)"><path d="M218.5,93.5C223,93.5 223,86.5 229.5,86.5" style="fill:none;stroke:rgb(255,197,255);stroke-width:1px;stroke-dasharray:1,2,0,0,0,0;"/></g><g transform="matrix(1,0,0,-1,-142.5,186)"><path d="M218.5,93.5C223,93.5 223,86.5 229.5,86.5" style="fill:none;stroke:rgb(255,197,255);stroke-width:1px;stroke-dasharray:1,2,0,0,0,0;"/></g><g transform="matrix(1,0,0,0.428571,-142.5,52.4286)"><path d="M218.5,93.5C223,93.5 225,86.5 229.5,86.5" style="fill:none;stroke:rgb(255,197,255);stroke-width:1.3px;stroke-dasharray:1.3,2.6,0,0,0,0;"/></g><g transform="matrix(1,0,0,-0.428571,-142.5,132.571)"><path d="M218.5,93.5C223,93.5 225,86.5 229.5,86.5" style="fill:none;stroke:rgb(255,197,255);stroke-width:1.3px;stroke-dasharray:1.3,2.6,0,0,0,0;"/></g><g transform="matrix(0.571429,0,0,1,-53,2)"><path d="M225.75,90.5L220.5,90.5" style="fill:none;stroke:rgb(255,197,255);stroke-width:1.23px;"/></g></g></g></svg>