<?xml version="1.0" encoding="UTF-8" standalone="no"?><!DOCTYPE svg PUBLIC "-//W3C//DTD SVG 1.1//EN" "http://www.w3.org/Graphics/SVG/1.1/DTD/svg11.dtd"><svg width="16px" height="16px" version="1.1" xmlns="http://www.w3.org/2000/svg" xmlns:xlink="http://www.w3.org/1999/xlink" xml:space="preserve" xmlns:serif="http://www.serif.com/" style="fill-rule:evenodd;clip-rule:evenodd;stroke-linecap:round;stroke-linejoin:round;stroke-miterlimit:2;"><rect id="keyword_out" x="0" y="0" width="16" height="16" style="fill:none;"/><clipPath id="_clip1"><rect x="0" y="0" width="16" height="16"/></clipPath><g clip-path="url(#_clip1)"><path d="M0.5,7.5l5,0" style="fill:none;stroke:rgb(255,197,255);stroke-width:1px;"/><path d="M3.5,5.5l2,2l-2,2" style="fill:none;stroke:rgb(255,197,255);stroke-width:1px;"/><path d="M11.934,4.252l4,7c0.089,0.155 0.088,0.345 -0.002,0.499c-0.089,0.154 -0.254,0.249 -0.432,0.249l-8,0c-0.178,0 -0.343,-0.095 -0.432,-0.249c-0.09,-0.154 -0.091,-0.344 -0.002,-0.499l4,-7c0.089,-0.156 0.255,-0.252 0.434,-0.252c0.179,0 0.345,0.096 0.434,0.252Z" style="fill:rgb(255,197,255);"/></g></svg>