<?xml version="1.0" encoding="UTF-8" standalone="no"?><!DOCTYPE svg PUBLIC "-//W3C//DTD SVG 1.1//EN" "http://www.w3.org/Graphics/SVG/1.1/DTD/svg11.dtd"><svg width="16px" height="16px" version="1.1" xmlns="http://www.w3.org/2000/svg" xmlns:xlink="http://www.w3.org/1999/xlink" xml:space="preserve" xmlns:serif="http://www.serif.com/" style="fill-rule:evenodd;clip-rule:evenodd;stroke-linecap:round;stroke-linejoin:round;stroke-miterlimit:2;"><g transform="matrix(1,0,0,1,-302,-248)"><g id="keyword_continue" transform="matrix(1,0,0,1,230,163)"><rect x="72" y="85" width="16" height="16" style="fill:none;"/><g transform="matrix(2.00008,2.2895e-17,-2.2895e-17,2.00008,-209.512,-95.1387)"><path d="M141.5,91.816L142.5,90.816L143.5,91.816" style="fill:none;stroke:rgb(255,198,255);stroke-width:0.5px;"/></g><g transform="matrix(1,0,0,1,-131,4)"><path d="M206.5,82.5L206.5,90.5C206.5,93.261 208.739,95.5 211.5,95.5C211.501,95.5 211.501,95.5 211.502,95.5C214.262,95.5 216.5,93.262 216.5,90.502C216.5,90.501 216.5,90.5 216.5,90.5" style="fill:none;stroke:rgb(255,198,255);stroke-width:1px;"/></g></g></g></svg>