<?xml version="1.0" encoding="UTF-8" standalone="no"?><!DOCTYPE svg PUBLIC "-//W3C//DTD SVG 1.1//EN" "http://www.w3.org/Graphics/SVG/1.1/DTD/svg11.dtd"><svg width="16px" height="16px" version="1.1" xmlns="http://www.w3.org/2000/svg" xmlns:xlink="http://www.w3.org/1999/xlink" xml:space="preserve" xmlns:serif="http://www.serif.com/" style="fill-rule:evenodd;clip-rule:evenodd;stroke-linecap:round;stroke-linejoin:round;stroke-miterlimit:1.5;"><g transform="matrix(1,0,0,1,-300,-183)"><g id="macro" transform="matrix(1,0,0,1,300,183)"><rect x="0" y="0" width="16" height="16" style="fill:none;"/><g transform="matrix(1,0,-0.249995,1,1.99996,0)"><g transform="matrix(1,0,0,0.857143,-0.5,1.14286)"><path d="M3.5,1.583C3.5,1.583 2,2.667 2,8C2,13.333 3.5,14.417 3.5,14.417" style="fill:none;stroke:rgb(238,238,238);stroke-width:1.22px;"/></g><g transform="matrix(-1,0,0,0.857143,16.5,1.14286)"><path d="M3.5,1.583C3.5,1.583 2,2.667 2,8C2,13.333 3.5,14.417 3.5,14.417" style="fill:none;stroke:rgb(238,238,238);stroke-width:0.95px;"/></g></g><g transform="matrix(0.868421,0,-0.25,1,3.03618,0)"><g transform="matrix(1,0,0,0.933333,-180,-14.4)"><path d="M185.5,16.5L185.5,31.5" style="fill:none;stroke:rgb(238,238,238);stroke-width:1.25px;stroke-miterlimit:2;"/></g><g transform="matrix(1,0,0,0.933333,-175,-14.4)"><path d="M185.5,16.5L185.5,31.5" style="fill:none;stroke:rgb(238,238,238);stroke-width:1.25px;stroke-miterlimit:2;"/></g><g transform="matrix(5.17073e-17,1,-0.619259,3.79187e-17,22.6317,-181)"><path d="M185.5,16.5L185.5,31.5" style="fill:none;stroke:rgb(238,238,238);stroke-width:1.11px;stroke-miterlimit:2;"/></g><g transform="matrix(5.17073e-17,1,-0.619259,3.79187e-17,22.8428,-174)"><path d="M185.5,16.5L185.5,31.5" style="fill:none;stroke:rgb(238,238,238);stroke-width:1.11px;stroke-miterlimit:2;"/></g></g></g></g></svg>