<?xml version="1.0" encoding="UTF-8" standalone="no"?><!DOCTYPE svg PUBLIC "-//W3C//DTD SVG 1.1//EN" "http://www.w3.org/Graphics/SVG/1.1/DTD/svg11.dtd"><svg width="16px" height="16px" version="1.1" xmlns="http://www.w3.org/2000/svg" xmlns:xlink="http://www.w3.org/1999/xlink" xml:space="preserve" xmlns:serif="http://www.serif.com/" style="fill-rule:evenodd;clip-rule:evenodd;stroke-linecap:square;stroke-miterlimit:1.5;"><rect id="open_folder" x="0" y="0" width="16" height="16" style="fill:none;"/><clipPath id="_clip1"><rect x="0" y="0" width="16" height="16"/></clipPath><g clip-path="url(#_clip1)"><path d="M0.5,1.5c-0,-0.265 0.105,-0.52 0.293,-0.707c0.187,-0.188 0.442,-0.293 0.707,-0.293c0.955,0 2.407,0 3.5,-0c0.828,0 1.5,0.672 1.5,1.5c0,0.398 0.158,0.779 0.439,1.061c0.282,0.281 0.663,0.439 1.061,0.439c2.56,0 7.5,0 7.5,0l0,12l-15,0l0,-14Z" style="fill:none;stroke:rgb(238,238,238);stroke-width:1px;"/><rect x="8" y="6" width="1" height="6" style="fill:rgb(238,238,238);"/><path d="M8.5,14l-2.5,-3l5,0l-2.5,3Z" style="fill:rgb(238,238,238);"/></g></svg>