<?xml version="1.0" encoding="UTF-8" standalone="no"?><!DOCTYPE svg PUBLIC "-//W3C//DTD SVG 1.1//EN" "http://www.w3.org/Graphics/SVG/1.1/DTD/svg11.dtd"><svg width="21px" height="21px" version="1.1" xmlns="http://www.w3.org/2000/svg" xmlns:xlink="http://www.w3.org/1999/xlink" xml:space="preserve" xmlns:serif="http://www.serif.com/" style="fill-rule:evenodd;clip-rule:evenodd;stroke-linecap:round;stroke-linejoin:round;"><g transform="matrix(1,0,0,1,-208,-22)"><g id="previous_match" transform="matrix(1,0,0,1,192,-18)"><rect x="16" y="40" width="21" height="21" style="fill:none;"/><g transform="matrix(6.12323e-17,-1,1,6.12323e-17,13,151)"><path d="M97.5,7.5L100.5,4.5L103.5,7.5" style="fill:none;stroke:rgb(238,238,238);stroke-width:1px;"/></g><g transform="matrix(1.10218e-16,-1,1.125,3.82702e-17,12.4375,151)"><path d="M100.5,9.142L100.5,4.5M100.5,20.5L100.5,16.903" style="fill:none;stroke:rgb(238,238,238);stroke-width:0.94px;"/></g><g transform="matrix(1,0,0,1,-1,0)"><g transform="matrix(1,0,0,1,-79.0463,37)"><circle cx="107.5" cy="10.5" r="3" style="fill:none;stroke:rgb(238,238,238);stroke-width:1px;"/></g><g transform="matrix(-0.965926,0.258819,-0.258819,-0.965926,129.473,37.9429)"><path d="M106.991,9.974L102.172,14.793" style="fill:none;stroke:rgb(238,238,238);stroke-width:1px;"/></g></g></g></g></svg>