<?xml version="1.0" encoding="UTF-8" standalone="no"?><!DOCTYPE svg PUBLIC "-//W3C//DTD SVG 1.1//EN" "http://www.w3.org/Graphics/SVG/1.1/DTD/svg11.dtd"><svg width="16px" height="16px" version="1.1" xmlns="http://www.w3.org/2000/svg" xmlns:xlink="http://www.w3.org/1999/xlink" xml:space="preserve" xmlns:serif="http://www.serif.com/" style="fill-rule:evenodd;clip-rule:evenodd;stroke-linecap:round;stroke-linejoin:round;"><rect id="radio_checked" x="0" y="0" width="16" height="16" style="fill:none;"/><path d="M8,1.5c1.724,-0 3.377,0.685 4.596,1.904c1.219,1.219 1.904,2.872 1.904,4.596l0,0c-0,3.59 -2.91,6.5 -6.5,6.5l-0.066,0c-3.553,-0 -6.434,-2.881 -6.434,-6.434l0,-0.132c0,-3.553 2.881,-6.434 6.434,-6.434l0.066,0Z" style="fill:none;stroke:rgb(238,238,238);stroke-opacity:0.7;stroke-width:1px;"/><path d="M8,4.5c1.933,0 3.5,1.567 3.5,3.5l-0,0c-0,1.933 -1.567,3.5 -3.5,3.5l-0,-0c-1.933,-0 -3.5,-1.567 -3.5,-3.5l0,-0c0,-1.933 1.567,-3.5 3.5,-3.5l0,0Z" style="fill:rgb(238,238,238);stroke:rgb(238,238,238);stroke-width:1px;"/></svg>