<?xml version="1.0" encoding="UTF-8" standalone="no"?><!DOCTYPE svg PUBLIC "-//W3C//DTD SVG 1.1//EN" "http://www.w3.org/Graphics/SVG/1.1/DTD/svg11.dtd"><svg width="16px" height="16px" version="1.1" xmlns="http://www.w3.org/2000/svg" xmlns:xlink="http://www.w3.org/1999/xlink" xml:space="preserve" xmlns:serif="http://www.serif.com/" style="fill-rule:evenodd;clip-rule:evenodd;stroke-linecap:round;stroke-linejoin:round;"><g transform="matrix(1,0,0,1,-183,-111)"><g id="radio_unchecked" transform="matrix(1,0,0,1,183,111)"><rect x="0" y="0" width="16" height="16" style="fill:none;"/><g transform="matrix(1,0,0,1,-65,-40)"><path d="M73.066,41.5C76.619,41.5 79.5,44.381 79.5,47.934L79.5,48C79.5,49.724 78.815,51.377 77.596,52.596C76.377,53.815 74.724,54.5 73,54.5L73,54.5C69.41,54.5 66.5,51.59 66.5,48L66.5,47.934C66.5,44.381 69.381,41.5 72.934,41.5L73.066,41.5Z" style="fill:none;stroke:rgb(238,238,238);stroke-opacity:0.7;stroke-width:1px;"/></g></g></g></svg>