<?xml version="1.0" encoding="UTF-8" standalone="no"?><!DOCTYPE svg PUBLIC "-//W3C//DTD SVG 1.1//EN" "http://www.w3.org/Graphics/SVG/1.1/DTD/svg11.dtd"><svg width="16px" height="16px" version="1.1" xmlns="http://www.w3.org/2000/svg" xmlns:xlink="http://www.w3.org/1999/xlink" xml:space="preserve" xmlns:serif="http://www.serif.com/" style="fill-rule:evenodd;clip-rule:evenodd;stroke-linecap:round;stroke-linejoin:round;"><g transform="matrix(1,0,0,1,-199,-94)"><g id="radio_checked_disabled" transform="matrix(1,0,0,1,199,94)"><rect x="0" y="0" width="16" height="16" style="fill:none;"/><g transform="matrix(1,0,0,1,-65,-40)"><path d="M73,41.5C76.59,41.5 79.5,44.41 79.5,48L79.5,48C79.5,51.59 76.59,54.5 73,54.5L73,54.5C69.41,54.5 66.5,51.59 66.5,48L66.5,48C66.5,44.41 69.41,41.5 73,41.5L73,41.5Z" style="fill:none;stroke:rgb(238,238,238);stroke-opacity:0.5;stroke-width:1px;"/></g><g transform="matrix(0.538462,0,0,0.538462,-31.3077,-17.8462)"><path d="M73.004,41.5C76.592,41.5 79.5,44.408 79.5,47.996L79.5,48C79.5,51.59 76.59,54.5 73,54.5L73,54.5C69.41,54.5 66.5,51.59 66.5,48L66.5,47.996C66.5,44.408 69.408,41.5 72.996,41.5L73.004,41.5Z" style="fill:rgb(238,238,238);fill-opacity:0.7;stroke:rgb(238,238,238);stroke-opacity:0.7;stroke-width:1.86px;"/></g></g></g></svg>