<?xml version="1.0" encoding="UTF-8" standalone="no"?><!DOCTYPE svg PUBLIC "-//W3C//DTD SVG 1.1//EN" "http://www.w3.org/Graphics/SVG/1.1/DTD/svg11.dtd"><svg width="21px" height="21px" version="1.1" xmlns="http://www.w3.org/2000/svg" xmlns:xlink="http://www.w3.org/1999/xlink" xml:space="preserve" xmlns:serif="http://www.serif.com/" style="fill-rule:evenodd;clip-rule:evenodd;stroke-linecap:square;stroke-linejoin:round;stroke-miterlimit:1.5;"><rect id="recursive" x="0" y="0" width="21" height="21" style="fill:none;"/><path d="M7.5,2.5c-0,-0.552 0.448,-1 1,-1c0.504,0 1.092,0 1.5,-0c0.133,-0 0.26,0.053 0.354,0.146c0.093,0.094 0.146,0.221 0.146,0.354c0,0.133 0.053,0.26 0.146,0.354c0.094,0.093 0.221,0.146 0.354,0.146c0.408,0 0.996,0 1.5,0c0.552,0 1,0.448 1,1c-0,1.459 -0,4 -0,4l-6,0l-0,-5Z" style="fill:none;stroke:rgb(238,238,238);stroke-width:1px;"/><path d="M1.5,14.5c-0,-0.552 0.448,-1 1,-1c0.504,-0 1.092,-0 1.5,-0c0.133,-0 0.26,0.053 0.354,0.146c0.093,0.094 0.146,0.221 0.146,0.354c0,0.133 0.053,0.26 0.146,0.354c0.094,0.093 0.221,0.146 0.354,0.146c0.408,-0 0.996,-0 1.5,-0c0.552,0 1,0.448 1,1c-0,1.459 -0,4 -0,4l-6,-0l-0,-5Z" style="fill:none;stroke:rgb(238,238,238);stroke-width:1px;"/><path d="M13.5,14.5c-0,-0.552 0.448,-1 1,-1c0.504,-0 1.092,-0 1.5,-0c0.133,-0 0.26,0.053 0.354,0.146c0.093,0.094 0.146,0.221 0.146,0.354c0,0.133 0.053,0.26 0.146,0.354c0.094,0.093 0.221,0.146 0.354,0.146c0.408,-0 0.996,-0 1.5,-0c0.552,0 1,0.448 1,1c0,1.459 0,4 0,4l-6,-0l-0,-5Z" style="fill:none;stroke:rgb(238,238,238);stroke-width:1px;"/><path d="M4.5,11.5l-0,-1l12,0l0,1" style="fill:none;stroke:rgb(238,238,238);stroke-width:1px;stroke-linecap:round;stroke-miterlimit:4;"/><path d="M10.5,10.5l0,-1" style="fill:none;stroke:rgb(238,238,238);stroke-width:1px;stroke-linecap:round;stroke-miterlimit:4;"/></svg>