<?xml version="1.0" encoding="UTF-8" standalone="no"?><!DOCTYPE svg PUBLIC "-//W3C//DTD SVG 1.1//EN" "http://www.w3.org/Graphics/SVG/1.1/DTD/svg11.dtd"><svg width="16px" height="16px" version="1.1" xmlns="http://www.w3.org/2000/svg" xmlns:xlink="http://www.w3.org/1999/xlink" xml:space="preserve" xmlns:serif="http://www.serif.com/" style="fill-rule:evenodd;clip-rule:evenodd;stroke-linecap:round;"><g transform="matrix(1,0,0,1,-117,-44)"><g id="rename" transform="matrix(1,0,0,1,117,44)"><rect x="0" y="0" width="16" height="16" style="fill:none;"/><clipPath id="_clip1"><rect x="0" y="0" width="16" height="16"/></clipPath><g clip-path="url(#_clip1)"><g transform="matrix(1.07143,0,0,1.16667,-0.571429,-2.5)"><path d="M7.533,6L13.6,6C13.971,6 14.327,6.135 14.59,6.377C14.853,6.618 15,6.945 15,7.286C15,8.298 15,9.702 15,10.714C15,11.055 14.853,11.382 14.59,11.623C14.327,11.865 13.971,12 13.6,12C11.438,12 7.533,12 7.533,12M3.8,12L2.4,12C2.029,12 1.673,11.865 1.41,11.623C1.147,11.382 1,11.055 1,10.714C1,9.702 1,8.298 1,7.286C1,6.945 1.147,6.618 1.41,6.377C1.673,6.135 2.029,6 2.4,6C3.1,6 3.8,6 3.8,6" style="fill:none;stroke:rgb(238,238,238);stroke-width:0.89px;"/></g><g transform="matrix(1.5,0,0,0.733333,0.25,0.666667)"><path d="M1.5,2.5L5.5,2.5" style="fill:none;stroke:rgb(238,238,238);stroke-width:0.85px;stroke-linejoin:round;"/></g><g transform="matrix(1.5,0,0,0.733333,0.25,11.6667)"><path d="M1.5,2.5L5.5,2.5" style="fill:none;stroke:rgb(238,238,238);stroke-width:0.85px;stroke-linejoin:round;"/></g><g transform="matrix(1.5,0,0,0.733333,-1.25,2.13333)"><path d="M4.5,0.5L4.5,15.5" style="fill:none;stroke:rgb(238,238,238);stroke-width:0.85px;stroke-linecap:square;stroke-linejoin:round;"/></g></g></g></g></svg>