<?xml version="1.0" encoding="UTF-8" standalone="no"?><!DOCTYPE svg PUBLIC "-//W3C//DTD SVG 1.1//EN" "http://www.w3.org/Graphics/SVG/1.1/DTD/svg11.dtd"><svg width="16px" height="16px" version="1.1" xmlns="http://www.w3.org/2000/svg" xmlns:xlink="http://www.w3.org/1999/xlink" xml:space="preserve" xmlns:serif="http://www.serif.com/" style="fill-rule:evenodd;clip-rule:evenodd;stroke-linecap:square;"><rect id="rename" x="0" y="0" width="16" height="16" style="fill:none;"/><clipPath id="_clip1"><rect x="0" y="0" width="16" height="16"/></clipPath><g clip-path="url(#_clip1)"><path d="M7.5,4.5l7,0c0.265,0 0.52,0.105 0.707,0.293c0.188,0.187 0.293,0.442 0.293,0.707c-0,1.331 -0,3.669 -0,5c0,0.265 -0.105,0.52 -0.293,0.707c-0.187,0.188 -0.442,0.293 -0.707,0.293c-2.146,0 -7,0 -7,-0m-4,-0l-2,0c-0.552,-0 -1,-0.448 -1,-1c0,-1.331 0,-3.669 0,-5c-0,-0.552 0.448,-1 1,-1c0.873,-0 2,-0 2,-0" style="fill:none;stroke:rgb(238,238,238);stroke-width:1px;"/><path d="M2.5,2.5l6,0" style="fill:none;stroke:rgb(238,238,238);stroke-width:1px;stroke-linecap:round;stroke-linejoin:round;"/><path d="M2.5,13.5l6,-0" style="fill:none;stroke:rgb(238,238,238);stroke-width:1px;stroke-linecap:round;stroke-linejoin:round;"/><path d="M5.5,2.5l0,11" style="fill:none;stroke:rgb(238,238,238);stroke-width:1px;stroke-linejoin:round;"/></g></svg>