<?xml version="1.0" encoding="UTF-8" standalone="no"?><!DOCTYPE svg PUBLIC "-//W3C//DTD SVG 1.1//EN" "http://www.w3.org/Graphics/SVG/1.1/DTD/svg11.dtd"><svg width="21px" height="21px" version="1.1" xmlns="http://www.w3.org/2000/svg" xmlns:xlink="http://www.w3.org/1999/xlink" xml:space="preserve" xmlns:serif="http://www.serif.com/" style="fill-rule:evenodd;clip-rule:evenodd;stroke-linecap:round;stroke-linejoin:round;stroke-miterlimit:2;"><g transform="matrix(1,0,0,1,-218,-22)"><g id="replace_all" transform="matrix(1,0,0,1,202,-18)"><rect x="16" y="40" width="21" height="21" style="fill:none;"/><path d="M19,52.509C19,52.506 19,52.503 19,52.5C19,52.406 19.026,52.318 19.071,52.242L19,52.509ZM19.176,48.881C19.068,48.789 19,48.652 19,48.5C19,48.249 19.185,48.041 19.426,48.005C19.354,48.208 19.291,48.415 19.237,48.626C19.215,48.71 19.195,48.795 19.176,48.881ZM22.759,48L25.5,48C25.776,48 26,48.224 26,48.5C26,48.776 25.776,49 25.5,49L22.256,49C22.382,48.644 22.552,48.309 22.759,48Z" style="fill:rgb(238,238,238);fill-opacity:0.5;"/><path d="M19.001,50.628C18.991,50.587 18.985,50.544 18.985,50.5C18.985,50.456 18.991,50.413 19.001,50.372C19,50.414 19,50.457 19,50.5C19,50.543 19,50.586 19.001,50.628ZM19.858,47.015L19.5,47.015C19.216,47.015 18.985,46.784 18.985,46.5C18.985,46.216 19.216,45.985 19.5,45.985L20.513,45.985C20.268,46.309 20.049,46.653 19.858,47.015ZM22.029,49.985L30.191,49.985L30.99,50.199C30.997,50.299 31,50.399 31,50.5C31,50.674 30.99,50.846 30.971,51.015L22.809,51.015L22.01,50.801C22.003,50.701 22,50.601 22,50.5C22,50.326 22.01,50.154 22.029,49.985ZM24.246,53.985L26.5,53.985C26.784,53.985 27.015,54.216 27.015,54.5C27.015,54.739 26.852,54.94 26.631,54.998C26.588,54.999 26.544,55 26.5,55C25.524,55 24.62,54.689 23.882,54.16C24.011,54.118 24.134,54.059 24.246,53.985ZM28.754,47.015L23.654,47.015C24.43,46.381 25.421,46 26.5,46C27.476,46 28.38,46.311 29.118,46.84C28.989,46.882 28.866,46.941 28.754,47.015Z" style="fill:rgb(238,238,238);"/><g><g transform="matrix(0.857143,0,0,0.857143,-96.9286,-25.7857)"><path d="M150.779,90.75C150.001,93.768 147.259,96 144,96C140.741,96 137.999,93.768 137.221,90.75M137.221,87.25C137.999,84.232 140.741,82 144,82C147.259,82 150.001,84.232 150.779,87.25" style="fill:none;stroke:rgb(238,238,238);stroke-width:1.17px;"/></g><g transform="matrix(1.73212,-1.00004,1.00004,1.73212,-316.958,37.2022)"><path d="M141.5,91.816L142.5,90.816L143.5,91.816" style="fill:none;stroke:rgb(238,238,238);stroke-width:0.5px;"/></g><g transform="matrix(-1.73212,1.00004,-1.00004,-1.73212,369.958,63.7978)"><path d="M141.5,91.816L142.5,90.816L143.5,91.816" style="fill:none;stroke:rgb(238,238,238);stroke-width:0.5px;"/></g><g transform="matrix(1,0,0,1,-118,37)"><circle cx="144.5" cy="13.5" r="6" style="fill:none;"/></g></g></g></g></svg>