<?xml version="1.0" encoding="UTF-8" standalone="no"?><!DOCTYPE svg PUBLIC "-//W3C//DTD SVG 1.1//EN" "http://www.w3.org/Graphics/SVG/1.1/DTD/svg11.dtd"><svg width="21px" height="21px" version="1.1" xmlns="http://www.w3.org/2000/svg" xmlns:xlink="http://www.w3.org/1999/xlink" xml:space="preserve" xmlns:serif="http://www.serif.com/" style="fill-rule:evenodd;clip-rule:evenodd;stroke-linecap:round;stroke-linejoin:round;stroke-miterlimit:2;"><rect id="replace" x="0" y="0" width="21" height="21" style="fill:none;"/><g><g><path d="M18.073,7.04c-0.388,1.507 -1.758,2.622 -3.386,2.622c-1.628,0 -2.998,-1.115 -3.386,-2.622m-0,-1.749c0.388,-1.507 1.758,-2.622 3.386,-2.622c1.628,-0 2.998,1.115 3.386,2.622" style="fill:none;stroke:rgb(238,238,238);stroke-width:1px;"/><path d="M10.874,8.632l0.427,-1.592l1.592,0.426" style="fill:none;stroke:rgb(238,238,238);stroke-width:1px;"/><path d="M18.5,3.699l-0.427,1.592l-1.592,-0.426" style="fill:none;stroke:rgb(238,238,238);stroke-width:1px;"/><circle cx="14.687" cy="6.166" r="3.497" style="fill:none;"/></g><g><circle cx="6.253" cy="12.169" r="3" style="fill:none;stroke:rgb(238,238,238);stroke-width:1px;stroke-miterlimit:4;"/><path d="M2.5,18.669l2.253,-3.902" style="fill:none;stroke:rgb(238,238,238);stroke-width:1px;stroke-miterlimit:4;"/></g><g><path d="M5.163,6.422c-0,-2.258 1.833,-4.091 4.091,-4.091" style="fill:none;stroke:rgb(238,238,238);stroke-width:1px;stroke-miterlimit:4;"/><path d="M3.746,5.318l1.417,1.688l1.688,-1.416" style="fill:none;stroke:rgb(238,238,238);stroke-width:1px;stroke-miterlimit:4;"/></g><g><path d="M14.837,12.916c0,2.257 -1.833,4.09 -4.091,4.09" style="fill:none;stroke:rgb(238,238,238);stroke-width:1px;stroke-miterlimit:4;"/><path d="M16.254,14.02l-1.417,-1.689l-1.688,1.417" style="fill:none;stroke:rgb(238,238,238);stroke-width:1px;stroke-miterlimit:4;"/></g></g></svg>