<?xml version="1.0" encoding="UTF-8" standalone="no"?><!DOCTYPE svg PUBLIC "-//W3C//DTD SVG 1.1//EN" "http://www.w3.org/Graphics/SVG/1.1/DTD/svg11.dtd"><svg width="21px" height="21px" version="1.1" xmlns="http://www.w3.org/2000/svg" xmlns:xlink="http://www.w3.org/1999/xlink" xml:space="preserve" xmlns:serif="http://www.serif.com/" style="fill-rule:evenodd;clip-rule:evenodd;stroke-linecap:round;stroke-linejoin:round;stroke-miterlimit:2;"><g transform="matrix(1,0,0,1,-252,-22)"><g id="replace" transform="matrix(1,0,0,1,236,-18)"><rect x="16" y="40" width="21" height="21" style="fill:none;"/><g transform="matrix(1,0,0,1,0,-1.83117)"><g transform="matrix(0.58279,0,0,0.58279,15.243,18.5658)"><g transform="matrix(0.857143,0,0,0.857143,-96.9286,-25.7857)"><path d="M150.779,90.75C150.001,93.768 147.259,96 144,96C140.741,96 137.999,93.768 137.221,90.75M137.221,87.25C137.999,84.232 140.741,82 144,82C147.259,82 150.001,84.232 150.779,87.25" style="fill:none;stroke:rgb(238,238,238);stroke-width:2px;"/></g><g transform="matrix(1.73212,-1.00004,1.00004,1.73212,-316.958,37.2022)"><path d="M141.5,91.816L142.5,90.816L143.5,91.816" style="fill:none;stroke:rgb(238,238,238);stroke-width:0.86px;"/></g><g transform="matrix(-1.73212,1.00004,-1.00004,-1.73212,369.958,63.7978)"><path d="M141.5,91.816L142.5,90.816L143.5,91.816" style="fill:none;stroke:rgb(238,238,238);stroke-width:0.86px;"/></g><g transform="matrix(1,0,0,1,-118,37)"><circle cx="144.5" cy="13.5" r="6" style="fill:none;"/></g></g><g transform="matrix(1,0,0,1,-3.82034,4.5)"><g transform="matrix(1,0,0,1,-81.4269,39)"><circle cx="107.5" cy="10.5" r="3" style="fill:none;stroke:rgb(238,238,238);stroke-width:1px;stroke-miterlimit:4;"/></g><g transform="matrix(-0.965926,0.258819,-0.258819,-0.965926,127.092,39.9429)"><path d="M105.358,11.607L102.172,14.793" style="fill:none;stroke:rgb(238,238,238);stroke-width:1px;stroke-miterlimit:4;"/></g></g><g transform="matrix(1,0,0,1,2.2538,1.66233)"><g transform="matrix(0.511364,0,0,0.511364,-17.1421,39.6875)"><path d="M70.5,13.5C70.5,9.085 74.085,5.5 78.5,5.5" style="fill:none;stroke:rgb(238,238,238);stroke-width:1.96px;stroke-miterlimit:4;"/></g><g transform="matrix(0.776257,0.0679137,-0.0679137,0.776257,-35.036,33.4605)"><path d="M68.5,9.5L70.5,11.5L72.5,9.5" style="fill:none;stroke:rgb(238,238,238);stroke-width:1.28px;stroke-miterlimit:4;"/></g></g><g transform="matrix(1,0,0,1,-1.2462,0.337665)"><g transform="matrix(-0.511364,6.26241e-17,-6.26241e-17,-0.511364,68.1345,61.3125)"><path d="M70.5,13.5C70.5,9.085 74.085,5.5 78.5,5.5" style="fill:none;stroke:rgb(238,238,238);stroke-width:1.96px;stroke-miterlimit:4;"/></g><g transform="matrix(-0.776257,-0.0679137,0.0679137,-0.776257,86.0284,67.5395)"><path d="M68.5,9.5L70.5,11.5L72.5,9.5" style="fill:none;stroke:rgb(238,238,238);stroke-width:1.28px;stroke-miterlimit:4;"/></g></g></g></g></g></svg>