<?xml version="1.0" encoding="UTF-8" standalone="no"?><!DOCTYPE svg PUBLIC "-//W3C//DTD SVG 1.1//EN" "http://www.w3.org/Graphics/SVG/1.1/DTD/svg11.dtd"><svg width="21px" height="21px" version="1.1" xmlns="http://www.w3.org/2000/svg" xmlns:xlink="http://www.w3.org/1999/xlink" xml:space="preserve" xmlns:serif="http://www.serif.com/" style="fill-rule:evenodd;clip-rule:evenodd;stroke-linecap:round;stroke-linejoin:round;stroke-miterlimit:2;"><g transform="matrix(1,0,0,1,-230,0)"><g id="replace_single" transform="matrix(1,0,0,1,214,-40)"><rect x="16" y="40" width="21" height="21" style="fill:none;"/><g><g transform="matrix(0.857143,0,0,0.857143,-96.9286,-25.7857)"><path d="M150.779,90.75C150.001,93.768 147.259,96 144,96C140.741,96 137.999,93.768 137.221,90.75M137.221,87.25C137.999,84.232 140.741,82 144,82C147.259,82 150.001,84.232 150.779,87.25" style="fill:none;stroke:rgb(238,238,238);stroke-width:1.17px;"/></g><g transform="matrix(1.73212,-1.00004,1.00004,1.73212,-316.958,37.2022)"><path d="M141.5,91.816L142.5,90.816L143.5,91.816" style="fill:none;stroke:rgb(238,238,238);stroke-width:0.5px;"/></g><g transform="matrix(-1.73212,1.00004,-1.00004,-1.73212,369.958,63.7978)"><path d="M141.5,91.816L142.5,90.816L143.5,91.816" style="fill:none;stroke:rgb(238,238,238);stroke-width:0.5px;"/></g><g transform="matrix(1,0,0,1,-118,37)"><circle cx="144.5" cy="13.5" r="6" style="fill:none;"/></g></g><g transform="matrix(1,0,0,0.75,-96,42.625)"><path d="M121.5,7.833L122.5,6.5L122.5,14.5" style="fill:none;stroke:rgb(238,238,238);stroke-width:1.13px;stroke-miterlimit:4;"/></g><g transform="matrix(1,0,0,0.75,-96,42.625)"><path d="M121.5,14.5L123.5,14.5" style="fill:none;stroke:rgb(238,238,238);stroke-width:1.13px;stroke-miterlimit:4;"/></g></g></g></svg>