<?xml version="1.0" encoding="UTF-8" standalone="no"?><!DOCTYPE svg PUBLIC "-//W3C//DTD SVG 1.1//EN" "http://www.w3.org/Graphics/SVG/1.1/DTD/svg11.dtd"><svg width="21px" height="21px" version="1.1" xmlns="http://www.w3.org/2000/svg" xmlns:xlink="http://www.w3.org/1999/xlink" xml:space="preserve" xmlns:serif="http://www.serif.com/" style="fill-rule:evenodd;clip-rule:evenodd;stroke-linecap:round;stroke-linejoin:round;"><g transform="matrix(1,0,0,1,-142,-22)"><g id="reset_value" transform="matrix(1,0,0,1,126,-18)"><rect x="16" y="40" width="21" height="21" style="fill:none;"/><g transform="matrix(-5.55112e-17,0.823529,-0.823529,-5.55112e-17,37.6176,22.0882)"><path d="M43,13.5C43,18.194 39.194,22 34.5,22C29.809,22 26,18.191 26,13.5C26,8.806 29.806,5 34.5,5L36.929,5" style="fill:none;stroke:rgb(238,238,238);stroke-width:1.21px;"/></g><g transform="matrix(1,0,0,1,-26,-21)"><path d="M57.5,71.5L59.5,73.5L61.5,71.5" style="fill:none;stroke:rgb(238,238,238);stroke-width:1px;"/></g></g></g></svg>