<?xml version="1.0" encoding="UTF-8" standalone="no"?><!DOCTYPE svg PUBLIC "-//W3C//DTD SVG 1.1//EN" "http://www.w3.org/Graphics/SVG/1.1/DTD/svg11.dtd"><svg width="21px" height="21px" version="1.1" xmlns="http://www.w3.org/2000/svg" xmlns:xlink="http://www.w3.org/1999/xlink" xml:space="preserve" xmlns:serif="http://www.serif.com/" style="fill-rule:evenodd;clip-rule:evenodd;stroke-linecap:round;stroke-linejoin:round;"><rect id="select_all" x="0" y="0" width="21" height="21" style="fill:none;"/><path d="M3.5,9c-0.276,-0 -0.5,-0.224 -0.5,-0.5c0,-0.276 0.224,-0.5 0.5,-0.5l7,0c0.276,-0 0.5,0.224 0.5,0.5c0,0.276 -0.224,0.5 -0.5,0.5l-7,0Z" style="fill:rgb(238,238,238);fill-opacity:0.5;"/><path d="M12,14.5c0,0.276 -0.224,0.5 -0.5,0.5l-8,0c-0.276,-0 -0.5,-0.224 -0.5,-0.5c0,-0.276 0.224,-0.5 0.5,-0.5l8,0c0.276,-0 0.5,0.224 0.5,0.5Zm0,-7.5l-8.5,0c-0.276,-0 -0.5,-0.224 -0.5,-0.5c0,-0.276 0.224,-0.5 0.5,-0.5l8.5,0l0,1Zm3,-1l0.5,0c0.276,-0 0.5,0.224 0.5,0.5c0,0.276 -0.224,0.5 -0.5,0.5l-0.5,0l0,-1Zm0,4l0.5,0c0.276,0 0.5,0.224 0.5,0.5c-0,0.276 -0.224,0.5 -0.5,0.5l-0.5,0l0,-1Zm-3,1l-8.5,0c-0.276,0 -0.5,-0.224 -0.5,-0.5c-0,-0.276 0.224,-0.5 0.5,-0.5l8.5,0l0,1Z" style="fill:rgb(238,238,238);"/><path d="M3.5,13c-0.276,0 -0.5,-0.224 -0.5,-0.5c-0,-0.276 0.224,-0.5 0.5,-0.5l5,0c0.276,0 0.5,0.224 0.5,0.5c-0,0.276 -0.224,0.5 -0.5,0.5l-5,0Z" style="fill:rgb(238,238,238);fill-opacity:0.5;"/><path d="M10.5,4.5l6,0" style="fill:none;stroke:rgb(238,238,238);stroke-width:1px;"/><path d="M13.5,4.5l0,12" style="fill:none;stroke:rgb(238,238,238);stroke-width:1px;"/><path d="M10.5,16.5l6,0" style="fill:none;stroke:rgb(238,238,238);stroke-width:1px;"/></svg>