<?xml version="1.0" encoding="UTF-8" standalone="no"?><!DOCTYPE svg PUBLIC "-//W3C//DTD SVG 1.1//EN" "http://www.w3.org/Graphics/SVG/1.1/DTD/svg11.dtd"><svg width="21px" height="21px" version="1.1" xmlns="http://www.w3.org/2000/svg" xmlns:xlink="http://www.w3.org/1999/xlink" xml:space="preserve" xmlns:serif="http://www.serif.com/" style="fill-rule:evenodd;clip-rule:evenodd;stroke-linecap:round;stroke-linejoin:round;"><g transform="matrix(1,0,0,1,-274,-22)"><g id="select_all" transform="matrix(1,0,0,1,258,-18)"><rect x="16" y="40" width="21" height="21" style="fill:none;"/><g transform="matrix(1,0,0,1,-140,41)"><path d="M159.5,8C159.224,8 159,7.776 159,7.5C159,7.224 159.224,7 159.5,7L165.5,7C165.776,7 166,7.224 166,7.5C166,7.776 165.776,8 165.5,8L159.5,8Z" style="fill:rgb(238,238,238);fill-opacity:0.5;"/></g><g transform="matrix(1.2,0,0,1,-171.9,47)"><path d="M159.5,8C159.27,8 159.083,7.776 159.083,7.5C159.083,7.224 159.27,7 159.5,7L165.333,7C165.563,7 165.75,7.224 165.75,7.5C165.75,7.776 165.563,8 165.333,8L159.5,8Z" style="fill:rgb(238,238,238);"/></g><path d="M28,47L19.5,47C19.224,47 19,46.776 19,46.5C19,46.224 19.224,46 19.5,46L28,46L28,47ZM31,46L33.5,46C33.776,46 34,46.224 34,46.5C34,46.776 33.776,47 33.5,47L31,47L31,46ZM31,50L31.5,50C31.776,50 32,50.224 32,50.5C32,50.776 31.776,51 31.5,51L31,51L31,50ZM28,51L19.5,51C19.224,51 19,50.776 19,50.5C19,50.224 19.224,50 19.5,50L28,50L28,51Z" style="fill:rgb(238,238,238);"/><g transform="matrix(0.6,0,0,1,-76.2,45)"><path d="M159.5,8C159.04,8 158.667,7.776 158.667,7.5C158.667,7.224 159.04,7 159.5,7L166.167,7C166.627,7 167,7.224 167,7.5C167,7.776 166.627,8 166.167,8L159.5,8Z" style="fill:rgb(238,238,238);fill-opacity:0.5;"/></g><g transform="matrix(1.5,0,0,1,-224.75,37)"><path d="M167.5,7.5L171.5,7.5" style="fill:none;stroke:rgb(238,238,238);stroke-width:0.78px;"/></g><g transform="matrix(1,0,0,1,-140,37)"><path d="M169.5,7.5L169.5,19.5" style="fill:none;stroke:rgb(238,238,238);stroke-width:1px;"/></g><g transform="matrix(1.5,0,0,1,-224.75,37)"><path d="M167.5,19.5L171.5,19.5" style="fill:none;stroke:rgb(238,238,238);stroke-width:0.78px;"/></g></g></g></svg>