<?xml version="1.0" encoding="UTF-8" standalone="no"?><!DOCTYPE svg PUBLIC "-//W3C//DTD SVG 1.1//EN" "http://www.w3.org/Graphics/SVG/1.1/DTD/svg11.dtd"><svg width="16px" height="16px" version="1.1" xmlns="http://www.w3.org/2000/svg" xmlns:xlink="http://www.w3.org/1999/xlink" xml:space="preserve" xmlns:serif="http://www.serif.com/" style="fill-rule:evenodd;clip-rule:evenodd;stroke-linecap:round;stroke-linejoin:round;stroke-miterlimit:2;"><g transform="matrix(1,0,0,1,-72,-248)"><g id="type_samplerCube" transform="matrix(1,0,0,1,72,248)"><rect x="0" y="0" width="16" height="16" style="fill:none;"/><g transform="matrix(1,0,0,1,-51,-81)"><path d="M52.218,90.737C52.076,90.181 52,89.599 52,89C52,89 52.532,89.682 53.67,90.365L52.218,90.737Z" style="fill:rgb(238,238,238);fill-opacity:0.5;"/></g><g transform="matrix(1,0,0,1,-51,-81)"><path d="M52,89L59,89L53.67,90.365C52.532,89.682 52,89 52,89Z" style="fill:rgb(238,238,238);fill-opacity:0.25;"/></g><g transform="matrix(1,0,0,1,-51,-81)"><path d="M64.33,90.365C63.188,91.05 61.436,91.736 59,91.736C56.564,91.736 54.812,91.05 53.67,90.365L59,89L64.33,90.365Z" style="fill:rgb(238,238,238);fill-opacity:0.5;"/></g><g transform="matrix(1,0,0,1,-51,-81)"><path d="M59,89L66,89C66,89 65.468,89.682 64.33,90.365L59,89Z" style="fill:rgb(238,238,238);fill-opacity:0.25;"/></g><g transform="matrix(1,0,0,1,-51,-81)"><path d="M65.782,90.737C65.009,93.761 62.264,96 59,96C55.736,96 52.991,93.761 52.218,90.737L53.67,90.365C54.812,91.05 56.564,91.736 59,91.736C61.436,91.736 63.188,91.05 64.33,90.365L65.782,90.737Z" style="fill:rgb(238,238,238);fill-opacity:0.25;"/></g><g transform="matrix(1,0,0,1,-51,-81)"><path d="M66,89C66,89.599 65.924,90.181 65.782,90.737L64.33,90.365C65.468,89.682 66,89 66,89Z" style="fill:rgb(238,238,238);fill-opacity:0.5;"/></g><g transform="matrix(0.928571,-9.36462e-10,-9.36462e-10,1,-46.7857,-80.5)"><path d="M52,89L66,89" style="fill:none;stroke:rgb(238,238,238);stroke-width:1.04px;"/></g><g transform="matrix(0.933333,0,0,0.933333,-47.0667,-75.0667)"><circle cx="59" cy="89" r="7.5" style="fill:none;stroke:rgb(238,238,238);stroke-width:1.07px;"/></g><g transform="matrix(1,0,0,1,-55,-81)"><path d="M58,89.5L60.5,85.5L63,89.5" style="fill:none;stroke:rgb(238,238,238);stroke-width:1px;"/></g><g transform="matrix(1,0,0,1,-50.4421,-82.5959)"><path d="M57.832,90.12L60.5,85.5L63.731,91.096" style="fill:none;stroke:rgb(238,238,238);stroke-width:1px;"/></g></g></g></svg>