<?xml version="1.0" encoding="UTF-8" standalone="no"?><!DOCTYPE svg PUBLIC "-//W3C//DTD SVG 1.1//EN" "http://www.w3.org/Graphics/SVG/1.1/DTD/svg11.dtd"><svg width="16px" height="16px" version="1.1" xmlns="http://www.w3.org/2000/svg" xmlns:xlink="http://www.w3.org/1999/xlink" xml:space="preserve" xmlns:serif="http://www.serif.com/" style="fill-rule:evenodd;clip-rule:evenodd;stroke-linecap:square;stroke-linejoin:round;stroke-miterlimit:2;"><rect id="type_sampler1D" x="0" y="0" width="16" height="16" style="fill:none;"/><clipPath id="_clip1"><rect x="0" y="0" width="16" height="16"/></clipPath><g clip-path="url(#_clip1)"><path d="M14,6.5c0.398,-0 0.779,0.158 1.061,0.439c0.281,0.282 0.439,0.663 0.439,1.061c-0,0.398 -0.158,0.779 -0.439,1.061c-0.282,0.281 -0.663,0.439 -1.061,0.439c-2.874,-0 -9.126,-0 -12,-0c-0.398,0 -0.779,-0.158 -1.061,-0.439c-0.281,-0.282 -0.439,-0.663 -0.439,-1.061c0,-0.398 0.158,-0.779 0.439,-1.061c0.282,-0.281 0.663,-0.439 1.061,-0.439c2.874,-0 9.126,-0 12,-0Z" style="fill:none;stroke:rgb(238,238,238);stroke-width:1px;"/><rect x="1" y="7" width="2" height="2" style="fill:rgb(238,238,238);fill-opacity:0.15;"/><rect x="3" y="7" width="2" height="2" style="fill:rgb(238,238,238);fill-opacity:0.3;"/><rect x="5" y="7" width="2" height="2" style="fill:rgb(238,238,238);fill-opacity:0.45;"/><rect x="7" y="7" width="2" height="2" style="fill:rgb(238,238,238);fill-opacity:0.6;"/><rect x="9" y="7" width="2" height="2" style="fill:rgb(238,238,238);fill-opacity:0.75;"/><rect x="11" y="7" width="2" height="2" style="fill:rgb(238,238,238);fill-opacity:0.9;"/><rect x="13" y="7" width="2" height="2" style="fill:rgb(238,238,238);"/></g></svg>