<?xml version="1.0" encoding="UTF-8" standalone="no"?><!DOCTYPE svg PUBLIC "-//W3C//DTD SVG 1.1//EN" "http://www.w3.org/Graphics/SVG/1.1/DTD/svg11.dtd"><svg width="16px" height="16px" version="1.1" xmlns="http://www.w3.org/2000/svg" xmlns:xlink="http://www.w3.org/1999/xlink" xml:space="preserve" xmlns:serif="http://www.serif.com/" style="fill-rule:evenodd;clip-rule:evenodd;stroke-linecap:square;stroke-linejoin:round;stroke-miterlimit:2;"><g transform="matrix(1,0,0,1,-116,-248)"><g id="type_sampler2D" transform="matrix(1,0,0,1,116,248)"><rect x="0" y="0" width="16" height="16" style="fill:none;"/><clipPath id="_clip1"><rect x="0" y="0" width="16" height="16"/></clipPath><g clip-path="url(#_clip1)"><g transform="matrix(1.15385,0,0,5,-1.80769,-439.5)"><path d="M13.7,88C14.045,88 14.375,88.032 14.619,88.088C14.863,88.144 15,88.22 15,88.3C15,88.875 15,90.125 15,90.7C15,90.78 14.863,90.856 14.619,90.912C14.375,90.968 14.045,91 13.7,91L3.3,91C2.955,91 2.625,90.968 2.381,90.912C2.137,90.856 2,90.78 2,90.7C2,90.125 2,88.875 2,88.3C2,88.22 2.137,88.144 2.381,88.088C2.625,88.032 2.955,88 3.3,88L13.7,88Z" style="fill:none;stroke:rgb(238,238,238);stroke-width:0.28px;"/></g><g><clipPath id="_clip2"><path d="M13.5,0.5C14.03,0.5 14.539,0.711 14.914,1.086C15.289,1.461 15.5,1.97 15.5,2.5L15.5,13.5C15.5,14.03 15.289,14.539 14.914,14.914C14.539,15.289 14.03,15.5 13.5,15.5L2.5,15.5C1.97,15.5 1.461,15.289 1.086,14.914C0.711,14.539 0.5,14.03 0.5,13.5L0.5,2.5C0.5,1.97 0.711,1.461 1.086,1.086C1.461,0.711 1.97,0.5 2.5,0.5L13.5,0.5Z"/></clipPath><g clip-path="url(#_clip2)"><g transform="matrix(0.666667,0,0,0.666667,0.666667,-45.3333)"><rect x="0.5" y="87.5" width="3" height="3" style="fill:rgb(238,238,238);fill-opacity:0.15;"/></g><g transform="matrix(0.666667,0,0,0.666667,2.66667,-45.3333)"><rect x="0.5" y="87.5" width="3" height="3" style="fill:rgb(238,238,238);fill-opacity:0;"/></g><g transform="matrix(0.666667,0,0,0.666667,0.666667,-47.3333)"><rect x="0.5" y="87.5" width="3" height="3" style="fill:rgb(238,238,238);fill-opacity:0;"/></g><g transform="matrix(0.666667,0,0,0.666667,2.66667,-47.3333)"><rect x="0.5" y="87.5" width="3" height="3" style="fill:rgb(238,238,238);fill-opacity:0.3;"/></g><g transform="matrix(0.666667,0,0,0.666667,4.66667,-47.3333)"><rect x="0.5" y="87.5" width="3" height="3" style="fill:rgb(238,238,238);fill-opacity:0.15;"/></g><g transform="matrix(0.666667,0,0,0.666667,0.666667,-49.3333)"><rect x="0.5" y="87.5" width="3" height="3" style="fill:rgb(238,238,238);fill-opacity:0.3;"/></g><g transform="matrix(0.666667,0,0,0.666667,0.666667,-51.3333)"><rect x="0.5" y="87.5" width="3" height="3" style="fill:rgb(238,238,238);fill-opacity:0.15;"/></g><g transform="matrix(0.666667,0,0,0.666667,2.66667,-49.3333)"><rect x="0.5" y="87.5" width="3" height="3" style="fill:rgb(238,238,238);fill-opacity:0.15;"/></g><g transform="matrix(0.666667,0,0,0.666667,4.66667,-45.3333)"><rect x="0.5" y="87.5" width="3" height="3" style="fill:rgb(238,238,238);fill-opacity:0.3;"/></g><g transform="matrix(0.666667,0,0,0.666667,6.66667,-45.3333)"><rect x="0.5" y="87.5" width="3" height="3" style="fill:rgb(238,238,238);fill-opacity:0.15;"/></g><g transform="matrix(0.666667,0,0,0.666667,4.66667,-49.3333)"><rect x="0.5" y="87.5" width="3" height="3" style="fill:rgb(238,238,238);fill-opacity:0.45;"/></g><g transform="matrix(0.666667,0,0,0.666667,6.66667,-49.3333)"><rect x="0.5" y="87.5" width="3" height="3" style="fill:rgb(238,238,238);fill-opacity:0.3;"/></g><g transform="matrix(0.666667,0,0,0.666667,6.66667,-47.3333)"><rect x="0.5" y="87.5" width="3" height="3" style="fill:rgb(238,238,238);fill-opacity:0.45;"/></g><g transform="matrix(0.666667,0,0,0.666667,8.66667,-47.3333)"><rect x="0.5" y="87.5" width="3" height="3" style="fill:rgb(238,238,238);fill-opacity:0.3;"/></g><g transform="matrix(0.666667,0,0,0.666667,8.66667,-45.3333)"><rect x="0.5" y="87.5" width="3" height="3" style="fill:rgb(238,238,238);fill-opacity:0.45;"/></g><g transform="matrix(0.666667,0,0,0.666667,10.6667,-45.3333)"><rect x="0.5" y="87.5" width="3" height="3" style="fill:rgb(238,238,238);fill-opacity:0.3;"/></g><g transform="matrix(0.666667,0,0,0.666667,2.66667,-51.3333)"><rect x="0.5" y="87.5" width="3" height="3" style="fill:rgb(238,238,238);fill-opacity:0.45;"/></g><g transform="matrix(0.666667,0,0,0.666667,4.66667,-51.3333)"><rect x="0.5" y="87.5" width="3" height="3" style="fill:rgb(238,238,238);fill-opacity:0.3;"/></g><g transform="matrix(0.666667,0,0,0.666667,0.666667,-53.3333)"><rect x="0.5" y="87.5" width="3" height="3" style="fill:rgb(238,238,238);fill-opacity:0.45;"/></g><g transform="matrix(0.666667,0,0,0.666667,0.666667,-55.3333)"><rect x="0.5" y="87.5" width="3" height="3" style="fill:rgb(238,238,238);fill-opacity:0.3;"/></g><g transform="matrix(0.666667,0,0,0.666667,2.66667,-53.3333)"><rect x="0.5" y="87.5" width="3" height="3" style="fill:rgb(238,238,238);fill-opacity:0.3;"/></g><g transform="matrix(0.666667,0,0,0.666667,6.66667,-51.3333)"><rect x="0.5" y="87.5" width="3" height="3" style="fill:rgb(238,238,238);fill-opacity:0.6;"/></g><g transform="matrix(0.666667,0,0,0.666667,8.66667,-51.3333)"><rect x="0.5" y="87.5" width="3" height="3" style="fill:rgb(238,238,238);fill-opacity:0.45;"/></g><g transform="matrix(0.666667,0,0,0.666667,8.66667,-49.3333)"><rect x="0.5" y="87.5" width="3" height="3" style="fill:rgb(238,238,238);fill-opacity:0.6;"/></g><g transform="matrix(0.666667,0,0,0.666667,10.6667,-49.3333)"><rect x="0.5" y="87.5" width="3" height="3" style="fill:rgb(238,238,238);fill-opacity:0.45;"/></g><g transform="matrix(0.666667,0,0,0.666667,10.6667,-47.3333)"><rect x="0.5" y="87.5" width="3" height="3" style="fill:rgb(238,238,238);fill-opacity:0.6;"/></g><g transform="matrix(0.666667,0,0,0.666667,12.6667,-47.3333)"><rect x="0.5" y="87.5" width="3" height="3" style="fill:rgb(238,238,238);fill-opacity:0.45;"/></g><g transform="matrix(0.666667,0,0,0.666667,12.6667,-45.3333)"><rect x="0.5" y="87.5" width="3" height="3" style="fill:rgb(238,238,238);fill-opacity:0.6;"/></g><g transform="matrix(0.666667,0,0,0.666667,4.66667,-53.3333)"><rect x="0.5" y="87.5" width="3" height="3" style="fill:rgb(238,238,238);fill-opacity:0.6;"/></g><g transform="matrix(0.666667,0,0,0.666667,6.66667,-53.3333)"><rect x="0.5" y="87.5" width="3" height="3" style="fill:rgb(238,238,238);fill-opacity:0.45;"/></g><g transform="matrix(0.666667,0,0,0.666667,2.66667,-55.3333)"><rect x="0.5" y="87.5" width="3" height="3" style="fill:rgb(238,238,238);fill-opacity:0.6;"/></g><g transform="matrix(0.666667,0,0,0.666667,4.66667,-55.3333)"><rect x="0.5" y="87.5" width="3" height="3" style="fill:rgb(238,238,238);fill-opacity:0.45;"/></g><g transform="matrix(0.666667,0,0,0.666667,0.666667,-57.3333)"><rect x="0.5" y="87.5" width="3" height="3" style="fill:rgb(238,238,238);fill-opacity:0.6;"/></g><g transform="matrix(0.666667,0,0,0.666667,2.66667,-57.3333)"><rect x="0.5" y="87.5" width="3" height="3" style="fill:rgb(238,238,238);fill-opacity:0.45;"/></g><g transform="matrix(0.666667,0,0,0.666667,8.66667,-53.3333)"><rect x="0.5" y="87.5" width="3" height="3" style="fill:rgb(238,238,238);fill-opacity:0.75;"/></g><g transform="matrix(0.666667,0,0,0.666667,10.6667,-53.3333)"><rect x="0.5" y="87.5" width="3" height="3" style="fill:rgb(238,238,238);fill-opacity:0.6;"/></g><g transform="matrix(0.666667,0,0,0.666667,6.66667,-55.3333)"><rect x="0.5" y="87.5" width="3" height="3" style="fill:rgb(238,238,238);fill-opacity:0.75;"/></g><g transform="matrix(0.666667,0,0,0.666667,8.66667,-55.3333)"><rect x="0.5" y="87.5" width="3" height="3" style="fill:rgb(238,238,238);fill-opacity:0.6;"/></g><g transform="matrix(0.666667,0,0,0.666667,4.66667,-57.3333)"><rect x="0.5" y="87.5" width="3" height="3" style="fill:rgb(238,238,238);fill-opacity:0.75;"/></g><g transform="matrix(0.666667,0,0,0.666667,6.66667,-57.3333)"><rect x="0.5" y="87.5" width="3" height="3" style="fill:rgb(238,238,238);fill-opacity:0.6;"/></g><g transform="matrix(0.666667,0,0,0.666667,10.6667,-51.3333)"><rect x="0.5" y="87.5" width="3" height="3" style="fill:rgb(238,238,238);fill-opacity:0.75;"/></g><g transform="matrix(0.666667,0,0,0.666667,12.6667,-51.3333)"><rect x="0.5" y="87.5" width="3" height="3" style="fill:rgb(238,238,238);fill-opacity:0.6;"/></g><g transform="matrix(0.666667,0,0,0.666667,12.6667,-49.3333)"><rect x="0.5" y="87.5" width="3" height="3" style="fill:rgb(238,238,238);fill-opacity:0.75;"/></g><g transform="matrix(0.666667,0,0,0.666667,10.6667,-55.3333)"><rect x="0.5" y="87.5" width="3" height="3" style="fill:rgb(238,238,238);fill-opacity:0.9;"/></g><g transform="matrix(0.666667,0,0,0.666667,12.6667,-55.3333)"><rect x="0.5" y="87.5" width="3" height="3" style="fill:rgb(238,238,238);fill-opacity:0.75;"/></g><g transform="matrix(0.666667,0,0,0.666667,8.66667,-57.3333)"><rect x="0.5" y="87.5" width="3" height="3" style="fill:rgb(238,238,238);fill-opacity:0.9;"/></g><g transform="matrix(0.666667,0,0,0.666667,10.6667,-57.3333)"><rect x="0.5" y="87.5" width="3" height="3" style="fill:rgb(238,238,238);fill-opacity:0.75;"/></g><g transform="matrix(0.666667,0,0,0.666667,12.6667,-53.3333)"><rect x="0.5" y="87.5" width="3" height="3" style="fill:rgb(238,238,238);fill-opacity:0.9;"/></g><g transform="matrix(0.666667,0,0,0.666667,12.6667,-57.3333)"><rect x="0.5" y="87.5" width="3" height="3" style="fill:rgb(238,238,238);"/></g></g></g></g></g></g></svg>