<?xml version="1.0" encoding="UTF-8" standalone="no"?><!DOCTYPE svg PUBLIC "-//W3C//DTD SVG 1.1//EN" "http://www.w3.org/Graphics/SVG/1.1/DTD/svg11.dtd"><svg width="16px" height="16px" version="1.1" xmlns="http://www.w3.org/2000/svg" xmlns:xlink="http://www.w3.org/1999/xlink" xml:space="preserve" xmlns:serif="http://www.serif.com/" style="fill-rule:evenodd;clip-rule:evenodd;stroke-miterlimit:2;"><g transform="matrix(1,0,0,1,-167,-199)"><g id="type_uvec2" transform="matrix(1,0,0,1,167,199)"><rect x="0" y="0" width="16" height="16" style="fill:none;"/><clipPath id="_clip1"><rect x="0" y="0" width="16" height="16"/></clipPath><g clip-path="url(#_clip1)"><g transform="matrix(1,0,0,1,0,-15)"><rect x="5" y="24" width="1" height="1" style="fill:rgb(238,238,238);"/></g><g transform="matrix(1,0,0,1,0,-17)"><rect x="5" y="24" width="1" height="1" style="fill:rgb(238,238,238);"/></g><g transform="matrix(1,0,0,0.666667,0,-18.1667)"><path d="M3,32.5L2,32.5C1.602,32.5 1.221,32.737 0.939,33.159C0.658,33.581 0.5,34.153 0.5,34.75C0.5,37.582 0.5,42.418 0.5,45.25C0.5,45.847 0.658,46.419 0.939,46.841C1.221,47.263 1.602,47.5 2,47.5C2.531,47.5 3,47.5 3,47.5" style="fill:none;stroke:rgb(238,238,238);stroke-width:1.18px;"/></g><g transform="matrix(-1,0,0,0.666667,11,-18.1667)"><path d="M3,32.5L2,32.5C1.602,32.5 1.221,32.737 0.939,33.159C0.658,33.581 0.5,34.153 0.5,34.75C0.5,37.582 0.5,42.418 0.5,45.25C0.5,45.847 0.658,46.419 0.939,46.841C1.221,47.263 1.602,47.5 2,47.5C2.531,47.5 3,47.5 3,47.5" style="fill:none;stroke:rgb(238,238,238);stroke-width:1.18px;"/></g><g transform="matrix(1,0,0,1,-82,-16)"><path d="M94.5,23.5L94.5,28C94.5,28.828 95.172,29.5 96,29.5C96.828,29.5 97.5,28.828 97.5,28C97.5,26.223 97.5,23.5 97.5,23.5" style="fill:none;stroke:rgb(238,238,238);stroke-width:1px;stroke-linecap:square;stroke-linejoin:round;"/></g></g></g></g></svg>