<?xml version="1.0" encoding="UTF-8" standalone="no"?><!DOCTYPE svg PUBLIC "-//W3C//DTD SVG 1.1//EN" "http://www.w3.org/Graphics/SVG/1.1/DTD/svg11.dtd"><svg width="16px" height="16px" version="1.1" xmlns="http://www.w3.org/2000/svg" xmlns:xlink="http://www.w3.org/1999/xlink" xml:space="preserve" xmlns:serif="http://www.serif.com/" style="fill-rule:evenodd;clip-rule:evenodd;stroke-linecap:square;stroke-linejoin:round;stroke-miterlimit:2;"><g transform="matrix(1,0,0,1,-21,-248)"><g id="type_sampler1D" transform="matrix(1,0,0,1,21,248)"><rect x="0" y="0" width="16" height="16" style="fill:none;"/><clipPath id="_clip1"><rect x="0" y="0" width="16" height="16"/></clipPath><g clip-path="url(#_clip1)"><g transform="matrix(1.15385,0,0,1,-1.80769,-81.5)"><path d="M13.7,88C14.045,88 14.375,88.158 14.619,88.439C14.863,88.721 15,89.102 15,89.5C15,89.898 14.863,90.279 14.619,90.561C14.375,90.842 14.045,91 13.7,91C11.209,91 5.791,91 3.3,91C2.955,91 2.625,90.842 2.381,90.561C2.137,90.279 2,89.898 2,89.5C2,89.102 2.137,88.721 2.381,88.439C2.625,88.158 2.955,88 3.3,88C5.791,88 11.209,88 13.7,88Z" style="fill:none;stroke:rgb(238,238,238);stroke-width:0.93px;"/></g><g transform="matrix(0.666667,0,0,0.666667,0.666667,-51.3333)"><rect x="0.5" y="87.5" width="3" height="3" style="fill:rgb(238,238,238);fill-opacity:0.15;"/></g><g transform="matrix(0.666667,0,0,0.666667,2.66667,-51.3333)"><rect x="0.5" y="87.5" width="3" height="3" style="fill:rgb(238,238,238);fill-opacity:0.3;"/></g><g transform="matrix(0.666667,0,0,0.666667,4.66667,-51.3333)"><rect x="0.5" y="87.5" width="3" height="3" style="fill:rgb(238,238,238);fill-opacity:0.45;"/></g><g transform="matrix(0.666667,0,0,0.666667,6.66667,-51.3333)"><rect x="0.5" y="87.5" width="3" height="3" style="fill:rgb(238,238,238);fill-opacity:0.6;"/></g><g transform="matrix(0.666667,0,0,0.666667,8.66667,-51.3333)"><rect x="0.5" y="87.5" width="3" height="3" style="fill:rgb(238,238,238);fill-opacity:0.75;"/></g><g transform="matrix(0.666667,0,0,0.666667,10.6667,-51.3333)"><rect x="0.5" y="87.5" width="3" height="3" style="fill:rgb(238,238,238);fill-opacity:0.9;"/></g><g transform="matrix(0.666667,0,0,0.666667,12.6667,-51.3333)"><rect x="0.5" y="87.5" width="3" height="3" style="fill:rgb(238,238,238);"/></g></g></g></g></svg>