<?xml version="1.0" encoding="UTF-8" standalone="no"?><!DOCTYPE svg PUBLIC "-//W3C//DTD SVG 1.1//EN" "http://www.w3.org/Graphics/SVG/1.1/DTD/svg11.dtd"><svg width="16px" height="16px" version="1.1" xmlns="http://www.w3.org/2000/svg" xmlns:xlink="http://www.w3.org/1999/xlink" xml:space="preserve" xmlns:serif="http://www.serif.com/" style="fill-rule:evenodd;clip-rule:evenodd;stroke-linecap:round;stroke-linejoin:round;stroke-miterlimit:2;"><g transform="matrix(1,0,0,1,-138,-183)"><g id="var_uniform" transform="matrix(1,0,0,1,138,183)"><rect x="0" y="0" width="16" height="16" style="fill:none;"/><clipPath id="_clip1"><rect x="0" y="0" width="16" height="16"/></clipPath><g clip-path="url(#_clip1)"><g transform="matrix(1,0,0,1,-117,-16)"><path d="M130,17.5C130.828,17.5 131.5,18.172 131.5,19L131.5,29C131.5,29.828 130.828,30.5 130,30.5L120,30.5C119.172,30.5 118.5,29.828 118.5,29L118.5,19C118.5,18.172 119.172,17.5 120,17.5L130,17.5Z" style="fill:none;stroke:rgb(238,238,238);stroke-width:1px;"/></g><g transform="matrix(1,0,0,1,-118,-17)"><path d="M121.5,18.5L121.5,17.5" style="fill:none;stroke:rgb(238,238,238);stroke-width:1px;"/></g><g transform="matrix(1,0,0,1,-115,-17)"><path d="M121.5,18.5L121.5,17.5" style="fill:none;stroke:rgb(238,238,238);stroke-width:1px;"/></g><g transform="matrix(1,0,0,1,-112,-17)"><path d="M121.5,18.5L121.5,17.5" style="fill:none;stroke:rgb(238,238,238);stroke-width:1px;"/></g><g transform="matrix(1,0,0,1,-109,-17)"><path d="M121.5,18.5L121.5,17.5" style="fill:none;stroke:rgb(238,238,238);stroke-width:1px;"/></g><g transform="matrix(6.12323e-17,1,-1,6.12323e-17,33,-118)"><path d="M121.5,18.5L121.5,17.5" style="fill:none;stroke:rgb(238,238,238);stroke-width:1px;"/></g><g transform="matrix(6.12323e-17,1,-1,6.12323e-17,33,-115)"><path d="M121.5,18.5L121.5,17.5" style="fill:none;stroke:rgb(238,238,238);stroke-width:1px;"/></g><g transform="matrix(6.12323e-17,1,-1,6.12323e-17,33,-112)"><path d="M121.5,18.5L121.5,17.5" style="fill:none;stroke:rgb(238,238,238);stroke-width:1px;"/></g><g transform="matrix(6.12323e-17,1,-1,6.12323e-17,33,-109)"><path d="M121.5,18.5L121.5,17.5" style="fill:none;stroke:rgb(238,238,238);stroke-width:1px;"/></g><g transform="matrix(-1,-1.22465e-16,1.22465e-16,-1,134,33)"><path d="M121.5,18.5L121.5,17.5" style="fill:none;stroke:rgb(238,238,238);stroke-width:1px;"/></g><g transform="matrix(-1,-1.22465e-16,1.22465e-16,-1,131,33)"><path d="M121.5,18.5L121.5,17.5" style="fill:none;stroke:rgb(238,238,238);stroke-width:1px;"/></g><g transform="matrix(-1,-1.22465e-16,1.22465e-16,-1,128,33)"><path d="M121.5,18.5L121.5,17.5" style="fill:none;stroke:rgb(238,238,238);stroke-width:1px;"/></g><g transform="matrix(-1,-1.22465e-16,1.22465e-16,-1,125,33)"><path d="M121.5,18.5L121.5,17.5" style="fill:none;stroke:rgb(238,238,238);stroke-width:1px;"/></g><g transform="matrix(6.12323e-17,-1,1,6.12323e-17,-17,134)"><path d="M121.5,18.5L121.5,17.5" style="fill:none;stroke:rgb(238,238,238);stroke-width:1px;"/></g><g transform="matrix(6.12323e-17,-1,1,6.12323e-17,-17,131)"><path d="M121.5,18.5L121.5,17.5" style="fill:none;stroke:rgb(238,238,238);stroke-width:1px;"/></g><g transform="matrix(6.12323e-17,-1,1,6.12323e-17,-17,128)"><path d="M121.5,18.5L121.5,17.5" style="fill:none;stroke:rgb(238,238,238);stroke-width:1px;"/></g><g transform="matrix(6.12323e-17,-1,1,6.12323e-17,-17,125)"><path d="M121.5,18.5L121.5,17.5" style="fill:none;stroke:rgb(238,238,238);stroke-width:1px;"/></g><g transform="matrix(1,0,0,0.555556,-117,-5.33333)"><path d="M121.5,19.5L121.5,19.5C120.948,19.5 120.5,20.306 120.5,21.3C120.5,22.869 120.5,25.131 120.5,26.7C120.5,27.694 120.948,28.5 121.5,28.5C121.5,28.5 121.5,28.5 121.5,28.5" style="fill:none;stroke:rgb(238,238,238);stroke-width:1.24px;stroke-linecap:square;"/></g><g transform="matrix(1,0,0,0.555556,-117,-5.33333)"><path d="M129.5,19.5L129.5,26.7C129.5,27.177 129.395,27.635 129.207,27.973C129.02,28.31 128.765,28.5 128.5,28.5C128.235,28.5 127.98,28.31 127.793,27.973C127.605,27.635 127.5,27.177 127.5,26.7C127.5,24.074 127.5,19.5 127.5,19.5" style="fill:none;stroke:rgb(238,238,238);stroke-width:1.24px;stroke-linecap:square;"/></g><g transform="matrix(1,0,0,0.555556,-117,-5.33333)"><path d="M123.5,28.5L123.5,19.5L124.5,19.5C125.052,19.5 125.5,20.306 125.5,21.3C125.5,22.294 125.052,23.1 124.5,23.1L123.5,23.1" style="fill:none;stroke:rgb(238,238,238);stroke-width:1.24px;stroke-linecap:square;"/></g></g></g></g></svg>