<?xml version="1.0" encoding="UTF-8" standalone="no"?><!DOCTYPE svg PUBLIC "-//W3C//DTD SVG 1.1//EN" "http://www.w3.org/Graphics/SVG/1.1/DTD/svg11.dtd"><svg width="16px" height="16px" version="1.1" xmlns="http://www.w3.org/2000/svg" xmlns:xlink="http://www.w3.org/1999/xlink" xml:space="preserve" xmlns:serif="http://www.serif.com/" style="fill-rule:evenodd;clip-rule:evenodd;stroke-linecap:round;stroke-linejoin:round;stroke-miterlimit:2;"><g transform="matrix(1,0,0,1,-154,-183)"><g id="var_out" transform="matrix(1,0,0,1,154,183)"><rect x="0" y="0" width="16" height="16" style="fill:none;"/><clipPath id="_clip1"><rect x="0" y="0" width="16" height="16"/></clipPath><g clip-path="url(#_clip1)"><g transform="matrix(1,0,0,1,-133,-17)"><path d="M133.5,24.5L138.5,24.5" style="fill:none;stroke:rgb(238,238,238);stroke-width:1px;"/></g><g transform="matrix(1,0,0,1,-133,-17)"><path d="M136.5,22.5L138.5,24.5L136.5,26.5" style="fill:none;stroke:rgb(238,238,238);stroke-width:1px;"/></g><g><g transform="matrix(1.33333,0,0,1,-182.5,-16)"><path d="M145.826,20.252L148.826,27.252C148.892,27.407 148.891,27.597 148.824,27.751C148.757,27.905 148.634,28 148.5,28L142.5,28C142.366,28 142.243,27.905 142.176,27.751C142.109,27.597 142.108,27.407 142.174,27.252L145.174,20.252C145.241,20.096 145.365,20 145.5,20C145.635,20 145.759,20.096 145.826,20.252Z" style="fill:rgb(238,238,238);"/><g style="filter:url(#_Effect2);"><path d="M145.826,20.252L148.826,27.252C148.892,27.407 148.891,27.597 148.824,27.751C148.757,27.905 148.634,28 148.5,28L142.5,28C142.366,28 142.243,27.905 142.176,27.751C142.109,27.597 142.108,27.407 142.174,27.252L145.174,20.252C145.241,20.096 145.365,20 145.5,20C145.635,20 145.759,20.096 145.826,20.252Z" style="fill:rgb(238,238,238);"/></g></g></g></g></g></g><defs><filter id="_Effect2" filterUnits="userSpaceOnUse" x="139.875" y="17" width="11.25" height="14"><feGaussianBlur in="SourceGraphic" stdDeviation="0.848528"/></filter></defs></svg>