<?xml version="1.0" encoding="UTF-8" standalone="no"?><!DOCTYPE svg PUBLIC "-//W3C//DTD SVG 1.1//EN" "http://www.w3.org/Graphics/SVG/1.1/DTD/svg11.dtd"><svg width="16px" height="16px" version="1.1" xmlns="http://www.w3.org/2000/svg" xmlns:xlink="http://www.w3.org/1999/xlink" xml:space="preserve" xmlns:serif="http://www.serif.com/" style="fill-rule:evenodd;clip-rule:evenodd;stroke-linecap:round;stroke-linejoin:round;stroke-miterlimit:2;"><g transform="matrix(1,0,0,1,-188,-183)"><g id="var_const" transform="matrix(1,0,0,1,188,183)"><rect x="0" y="0" width="16" height="16" style="fill:none;"/><clipPath id="_clip1"><rect x="0" y="0" width="16" height="16"/></clipPath><g clip-path="url(#_clip1)"><g transform="matrix(0.846154,0,0,1,-140.077,-15)"><path d="M179.727,22.5C180.197,22.5 180.648,22.658 180.981,22.939C181.313,23.221 181.5,23.602 181.5,24C181.5,25.43 181.5,27.57 181.5,29C181.5,29.398 181.313,29.779 180.981,30.061C180.648,30.342 180.197,30.5 179.727,30.5C177.244,30.5 172.756,30.5 170.273,30.5C169.803,30.5 169.352,30.342 169.019,30.061C168.687,29.779 168.5,29.398 168.5,29C168.5,27.57 168.5,25.43 168.5,24C168.5,23.602 168.687,23.221 169.019,22.939C169.352,22.658 169.803,22.5 170.273,22.5C172.756,22.5 177.244,22.5 179.727,22.5Z" style="fill:none;stroke:rgb(238,238,238);stroke-width:1.08px;"/></g><g transform="matrix(1.16667,0,0,1.16667,-196.167,-18.75)"><path d="M172,19.5C172,17.844 173.344,16.5 175,16.5C176.656,16.5 178,17.844 178,19.5" style="fill:none;stroke:rgb(238,238,238);stroke-width:0.86px;"/></g><g transform="matrix(1,0,0,1,-167,-16)"><path d="M178.5,20L178.5,23.5" style="fill:none;stroke:rgb(238,238,238);stroke-width:1px;"/></g><g transform="matrix(1,0,0,1,-167,-16)"><path d="M171.5,20L171.5,23.5" style="fill:none;stroke:rgb(238,238,238);stroke-width:1px;"/></g><path d="M7.673,12.464C7.002,12.315 6.5,11.715 6.5,11C6.5,10.172 7.172,9.5 8,9.5C8.828,9.5 9.5,10.172 9.5,11C9.5,11.715 8.998,12.315 8.327,12.464L8.5,13.5L7.5,13.5L7.673,12.464Z" style="fill:none;stroke:rgb(238,238,238);stroke-width:1px;"/></g></g></g></svg>