<?xml version="1.0" encoding="UTF-8" standalone="no"?><!DOCTYPE svg PUBLIC "-//W3C//DTD SVG 1.1//EN" "http://www.w3.org/Graphics/SVG/1.1/DTD/svg11.dtd"><svg width="16px" height="16px" version="1.1" xmlns="http://www.w3.org/2000/svg" xmlns:xlink="http://www.w3.org/1999/xlink" xml:space="preserve" xmlns:serif="http://www.serif.com/" style="fill-rule:evenodd;clip-rule:evenodd;stroke-linecap:round;stroke-linejoin:round;stroke-miterlimit:1.5;"><g transform="matrix(1,0,0,1,-138,-166)"><g id="variable" transform="matrix(1,0,0,1,138,166)"><rect x="0" y="0" width="16" height="16" style="fill:none;"/><g transform="matrix(1,0,-0.176327,1,-29.9654,-1)"><path d="M37,6C39,6 40,12 42,12" style="fill:none;stroke:rgb(238,238,238);stroke-width:1.09px;"/></g><g transform="matrix(-1,0,-0.176327,1,49.0346,-1)"><path d="M37,6C39,6 40,12 42,12" style="fill:none;stroke:rgb(238,238,238);stroke-width:0.92px;"/></g><g transform="matrix(1,0,0,0.857143,-0.5,1.14286)"><path d="M3.5,1.583C3.5,1.583 2,2.667 2,8C2,13.333 3.5,14.417 3.5,14.417" style="fill:none;stroke:rgb(238,238,238);stroke-width:1.07px;"/></g><g transform="matrix(-1,0,0,0.857143,16.5,1.14286)"><path d="M3.5,1.583C3.5,1.583 2,2.667 2,8C2,13.333 3.5,14.417 3.5,14.417" style="fill:none;stroke:rgb(238,238,238);stroke-width:1.07px;"/></g></g></g></svg>