<?xml version="1.0" encoding="UTF-8" standalone="no"?><!DOCTYPE svg PUBLIC "-//W3C//DTD SVG 1.1//EN" "http://www.w3.org/Graphics/SVG/1.1/DTD/svg11.dtd"><svg width="21px" height="21px" version="1.1" xmlns="http://www.w3.org/2000/svg" xmlns:xlink="http://www.w3.org/1999/xlink" xml:space="preserve" xmlns:serif="http://www.serif.com/" style="fill-rule:evenodd;clip-rule:evenodd;stroke-linecap:round;stroke-linejoin:round;"><rect id="case_insensitive" x="0" y="0" width="21" height="21" style="fill:none;"/><path d="M6.15,7.972c-0,-2.258 1.833,-4.091 4.091,-4.091" style="fill:none;stroke:rgb(17,17,17);stroke-width:1px;"/><path d="M4.733,6.868l1.417,1.688l1.688,-1.417" style="fill:none;stroke:rgb(17,17,17);stroke-width:1px;"/><path d="M14.942,13.257c-0,2.258 -1.833,4.091 -4.091,4.091" style="fill:none;stroke:rgb(17,17,17);stroke-width:1px;"/><path d="M16.359,14.361l-1.417,-1.688l-1.688,1.417" style="fill:none;stroke:rgb(17,17,17);stroke-width:1px;"/><path d="M10.5,10.5l4,-8l4,8" style="fill:none;stroke:rgb(17,17,17);stroke-width:1px;"/><path d="M12,7.5l5,0" style="fill:none;stroke:rgb(17,17,17);stroke-width:1px;"/><path d="M4,11.5c1.5,-1.5 4.5,-1.5 4.5,2.5l0,3.5" style="fill:none;stroke:rgb(17,17,17);stroke-width:1px;"/><path d="M8.5,16.5c-3,1.5 -5,1 -5,-1c0,-1.983 1,-2.017 4.983,-2" style="fill:none;stroke:rgb(17,17,17);stroke-width:1px;"/></svg>