<?xml version="1.0" encoding="UTF-8" standalone="no"?><!DOCTYPE svg PUBLIC "-//W3C//DTD SVG 1.1//EN" "http://www.w3.org/Graphics/SVG/1.1/DTD/svg11.dtd"><svg width="16px" height="16px" version="1.1" xmlns="http://www.w3.org/2000/svg" xmlns:xlink="http://www.w3.org/1999/xlink" xml:space="preserve" xmlns:serif="http://www.serif.com/" style="fill-rule:evenodd;clip-rule:evenodd;stroke-linecap:round;stroke-linejoin:round;"><g transform="matrix(1,0,0,1,-183,-77)"><g id="checkbox_unchecked" transform="matrix(1,0,0,1,183,77)"><rect x="0" y="0" width="16" height="16" style="fill:none;"/><g transform="matrix(1,0,0,1,-65,-40)"><path d="M77.5,41.5C78.03,41.5 78.539,41.711 78.914,42.086C79.289,42.461 79.5,42.97 79.5,43.5L79.5,52.5C79.5,53.03 79.289,53.539 78.914,53.914C78.539,54.289 78.03,54.5 77.5,54.5L68.5,54.5C67.97,54.5 67.461,54.289 67.086,53.914C66.711,53.539 66.5,53.03 66.5,52.5L66.5,43.5C66.5,42.97 66.711,42.461 67.086,42.086C67.461,41.711 67.97,41.5 68.5,41.5L77.5,41.5Z" style="fill:none;stroke:rgb(17,17,17);stroke-opacity:0.7;stroke-width:1px;"/></g></g></g></svg>