<?xml version="1.0" encoding="UTF-8" standalone="no"?><!DOCTYPE svg PUBLIC "-//W3C//DTD SVG 1.1//EN" "http://www.w3.org/Graphics/SVG/1.1/DTD/svg11.dtd"><svg width="16px" height="16px" version="1.1" xmlns="http://www.w3.org/2000/svg" xmlns:xlink="http://www.w3.org/1999/xlink" xml:space="preserve" xmlns:serif="http://www.serif.com/" style="fill-rule:evenodd;clip-rule:evenodd;stroke-linecap:round;stroke-linejoin:round;"><g transform="matrix(1,0,0,1,-56,-83)"><g id="copy_path" transform="matrix(1,0,0,1,56,83)"><rect x="0" y="0" width="16" height="16" style="fill:none;"/><g transform="matrix(1,0,0,1,-55,-83)"><path d="M59.5,86.5L59.5,84.5L59.5,84.5C60.052,84.5 60.5,84.052 60.5,83.5L60.5,83.5L65.5,83.5L65.5,83.501C65.5,84.053 65.947,84.5 66.499,84.5L66.5,84.5L66.5,86.5L59.5,86.5Z" style="fill:none;stroke:rgb(17,17,17);stroke-width:1px;"/></g><g transform="matrix(1,0,0,1,-56,-83)"><path d="M69.5,90.5L69.5,85.5L67.5,85.5M60.5,85.5L58.5,85.5L58.5,98.5L69.5,98.5L69.5,94.5" style="fill:none;stroke:rgb(17,17,17);stroke-width:1px;"/></g><g transform="matrix(1.6,0,0,1,-96.3,-82)"><path d="M69.25,91.5L65.5,91.5" style="fill:none;stroke:rgb(17,17,17);stroke-width:0.75px;"/></g><g transform="matrix(1,0,0,1,-57,-82)"><path d="M67.5,89.5L65.5,91.5L67.5,93.5" style="fill:none;stroke:rgb(17,17,17);stroke-width:1px;"/></g><g transform="matrix(1,0,0,1,-56,-83)"><path d="M60.5,88.5L64.5,88.5" style="fill:none;stroke:rgb(17,17,17);stroke-opacity:0.5;stroke-width:1px;"/></g><g transform="matrix(0.75,0,0,1,-40.875,-77)"><path d="M60.5,88.5L64.5,88.5" style="fill:none;stroke:rgb(17,17,17);stroke-opacity:0.5;stroke-width:1.13px;"/></g><g transform="matrix(0.5,0,0,1,-25.75,-75)"><path d="M60.5,88.5L64.5,88.5" style="fill:none;stroke:rgb(17,17,17);stroke-opacity:0.5;stroke-width:1.26px;"/></g><g transform="matrix(0.5,0,0,1,-25.75,-81)"><path d="M60.5,88.5L64.5,88.5" style="fill:none;stroke:rgb(17,17,17);stroke-opacity:0.5;stroke-width:1.26px;"/></g><g transform="matrix(0.25,0,0,1,-10.625,-79)"><path d="M60.5,88.5L64.5,88.5" style="fill:none;stroke:rgb(17,17,17);stroke-opacity:0.5;stroke-width:1.37px;"/></g></g></g></svg>