<?xml version="1.0" encoding="UTF-8" standalone="no"?><!DOCTYPE svg PUBLIC "-//W3C//DTD SVG 1.1//EN" "http://www.w3.org/Graphics/SVG/1.1/DTD/svg11.dtd"><svg width="16px" height="16px" version="1.1" xmlns="http://www.w3.org/2000/svg" xmlns:xlink="http://www.w3.org/1999/xlink" xml:space="preserve" xmlns:serif="http://www.serif.com/" style="fill-rule:evenodd;clip-rule:evenodd;stroke-linecap:square;stroke-linejoin:round;"><g transform="matrix(1,0,0,1,-118,-60)"><g id="delete" transform="matrix(1,0,0,1,118,60)"><rect x="0" y="0" width="16" height="16" style="fill:none;"/><clipPath id="_clip1"><rect x="0" y="0" width="16" height="16"/></clipPath><g clip-path="url(#_clip1)"><g transform="matrix(-1.2,0,0,1.31579,17.1,-25.9474)"><path d="M3,21.62L3,30.74C3,30.942 3.088,31.135 3.244,31.277C3.4,31.42 3.612,31.5 3.833,31.5C5.256,31.5 8,31.5 8,31.5" style="fill:none;stroke:rgb(17,17,17);stroke-width:0.79px;"/></g><g transform="matrix(1.2,0,0,1.31579,-1.1,-25.9474)"><path d="M3,21.62L3,30.74C3,30.942 3.088,31.135 3.244,31.277C3.4,31.42 3.612,31.5 3.833,31.5C5.256,31.5 8,31.5 8,31.5" style="fill:none;stroke:rgb(17,17,17);stroke-width:0.79px;stroke-linecap:round;"/></g><g transform="matrix(1,0,0,1,0,-17)"><path d="M8,17.5L9.5,17.5C9.765,17.5 10.02,17.605 10.207,17.793C10.395,17.98 10.5,18.235 10.5,18.5C10.5,19 10.5,19.5 10.5,19.5" style="fill:none;stroke:rgb(17,17,17);stroke-width:1px;stroke-linecap:butt;"/></g><g transform="matrix(-1,0,0,1,16,-17)"><path d="M8,17.5L9.5,17.5C9.765,17.5 10.02,17.605 10.207,17.793C10.395,17.98 10.5,18.235 10.5,18.5C10.5,19 10.5,19.5 10.5,19.5" style="fill:none;stroke:rgb(17,17,17);stroke-width:1px;stroke-linecap:butt;"/></g><g transform="matrix(1.18182,0,0,1,-1.45455,-17)"><path d="M2.5,19.5L13.5,19.5" style="fill:none;stroke:rgb(17,17,17);stroke-width:0.91px;stroke-linecap:round;"/></g><g transform="matrix(1.5,0,0,1,-1,-16)"><path d="M6,22L6,29" style="fill:none;stroke:rgb(17,17,17);stroke-width:0.78px;"/></g><g transform="matrix(1.5,0,0,1,2,-16)"><path d="M6,22L6,29" style="fill:none;stroke:rgb(17,17,17);stroke-width:0.78px;"/></g><g transform="matrix(1.5,0,0,1,-4,-16)"><path d="M6,22L6,29" style="fill:none;stroke:rgb(17,17,17);stroke-width:0.78px;"/></g></g></g></g></svg>