<?xml version="1.0" encoding="UTF-8" standalone="no"?><!DOCTYPE svg PUBLIC "-//W3C//DTD SVG 1.1//EN" "http://www.w3.org/Graphics/SVG/1.1/DTD/svg11.dtd"><svg width="16px" height="16px" version="1.1" xmlns="http://www.w3.org/2000/svg" xmlns:xlink="http://www.w3.org/1999/xlink" xml:space="preserve" xmlns:serif="http://www.serif.com/" style="fill-rule:evenodd;clip-rule:evenodd;stroke-linecap:square;stroke-linejoin:round;"><rect id="delete" x="0" y="0" width="16" height="16" style="fill:none;"/><clipPath id="_clip1"><rect x="0" y="0" width="16" height="16"/></clipPath><g clip-path="url(#_clip1)"><path d="M13.5,3.5l-0,11c0,0.265 -0.105,0.52 -0.293,0.707c-0.187,0.188 -0.442,0.293 -0.707,0.293c-1.707,-0 -5,0 -5,0" style="fill:none;stroke:rgb(17,17,17);stroke-width:1px;"/><path d="M2.5,3.5l0,11c-0,0.265 0.105,0.52 0.293,0.707c0.187,0.188 0.442,0.293 0.707,0.293c1.707,-0 5,0 5,0" style="fill:none;stroke:rgb(17,17,17);stroke-width:1px;"/><path d="M8,0.5l1.5,0c0.265,-0 0.52,0.105 0.707,0.293c0.188,0.187 0.293,0.442 0.293,0.707c0,0.5 0,1 0,1" style="fill:none;stroke:rgb(17,17,17);stroke-width:1px;stroke-linecap:butt;"/><path d="M8,0.5l-1.5,0c-0.265,-0 -0.52,0.105 -0.707,0.293c-0.188,0.187 -0.293,0.442 -0.293,0.707c0,0.5 0,1 0,1" style="fill:none;stroke:rgb(17,17,17);stroke-width:1px;stroke-linecap:butt;"/><path d="M1.5,2.5l13,-0" style="fill:none;stroke:rgb(17,17,17);stroke-width:1px;stroke-linecap:round;"/><path d="M8,6l0,7" style="fill:none;stroke:rgb(17,17,17);stroke-width:1px;"/><path d="M11,6l0,7" style="fill:none;stroke:rgb(17,17,17);stroke-width:1px;"/><path d="M5,6l0,7" style="fill:none;stroke:rgb(17,17,17);stroke-width:1px;"/></g></svg>