<?xml version="1.0" encoding="UTF-8" standalone="no"?><!DOCTYPE svg PUBLIC "-//W3C//DTD SVG 1.1//EN" "http://www.w3.org/Graphics/SVG/1.1/DTD/svg11.dtd"><svg width="16px" height="16px" version="1.1" xmlns="http://www.w3.org/2000/svg" xmlns:xlink="http://www.w3.org/1999/xlink" xml:space="preserve" xmlns:serif="http://www.serif.com/" style="fill-rule:evenodd;clip-rule:evenodd;stroke-linecap:round;stroke-linejoin:round;"><rect id="file_shader_csh" x="0" y="0" width="16" height="16" style="fill:none;"/><clipPath id="_clip1"><rect x="0" y="0" width="16" height="16"/></clipPath><g clip-path="url(#_clip1)"><path d="M0.5,0.5l1,0l0,14" style="fill:none;stroke:rgb(17,17,17);stroke-width:1px;"/><path d="M1.5,2.5l13,0c0.552,0 1,0.448 1,1c0,1.916 0,6.084 0,8c-0,0.552 -0.448,1 -1,1c-3.203,0 -13,0 -13,0" style="fill:none;stroke:rgb(17,17,17);stroke-width:1px;"/><path d="M3.5,13.5l8,0" style="fill:none;stroke:rgb(17,17,17);stroke-width:1px;"/><circle cx="10.5" cy="7.5" r="3" style="fill:none;stroke:rgb(17,17,17);stroke-width:1px;"/><path d="M3.5,5.5l2.417,0" style="fill:none;stroke:rgb(17,17,17);stroke-width:1px;"/><path d="M3.5,7.5l2,-0" style="fill:none;stroke:rgb(17,17,17);stroke-width:1px;"/><path d="M3.5,9.5l2.417,-0" style="fill:none;stroke:rgb(17,17,17);stroke-width:1px;"/></g></svg>