<?xml version="1.0" encoding="UTF-8" standalone="no"?><!DOCTYPE svg PUBLIC "-//W3C//DTD SVG 1.1//EN" "http://www.w3.org/Graphics/SVG/1.1/DTD/svg11.dtd"><svg width="16px" height="16px" version="1.1" xmlns="http://www.w3.org/2000/svg" xmlns:xlink="http://www.w3.org/1999/xlink" xml:space="preserve" xmlns:serif="http://www.serif.com/" style="fill-rule:evenodd;clip-rule:evenodd;stroke-linecap:round;stroke-linejoin:round;"><g transform="matrix(1,0,0,1,-252,-44)"><g id="file_shader_vsh" transform="matrix(1,0,0,1,252,44)"><rect x="0" y="0" width="16" height="16" style="fill:none;"/><g transform="matrix(1,0,0,1,-174,-42.5)"><path d="M187.5,54.5L187.5,57.5" style="fill:none;stroke:rgb(17,17,17);stroke-width:1px;"/></g><g transform="matrix(1,0,0,1,-185,-42.5)"><path d="M187.5,54.5L187.5,57.5" style="fill:none;stroke:rgb(17,17,17);stroke-width:1px;"/></g><g transform="matrix(1,0,0,1,-174,-53.5)"><path d="M187.5,54.5L187.5,57.5" style="fill:none;stroke:rgb(17,17,17);stroke-width:1px;"/></g><g transform="matrix(1.11022e-16,-1,1,1.11022e-16,-53.5,190)"><path d="M187.5,54.5L187.5,57.5" style="fill:none;stroke:rgb(17,17,17);stroke-width:1px;"/></g><g transform="matrix(0,1,-1,0,69.5,-174)"><path d="M187.5,54.5L187.5,57.5" style="fill:none;stroke:rgb(17,17,17);stroke-width:1px;"/></g><g transform="matrix(0,1,-1,0,58.5,-174)"><path d="M187.5,54.5L187.5,57.5" style="fill:none;stroke:rgb(17,17,17);stroke-width:1px;"/></g><g transform="matrix(0,1,-1,0,69.5,-185)"><path d="M187.5,54.5L187.5,57.5" style="fill:none;stroke:rgb(17,17,17);stroke-width:1px;"/></g><g transform="matrix(1,1.11022e-16,-1.11022e-16,1,-185,-53.5)"><path d="M187.5,54.5L187.5,57.5" style="fill:none;stroke:rgb(17,17,17);stroke-width:1px;"/></g><g transform="matrix(1,0,0,1,-174,-44)"><path d="M176.5,57.5L187.5,57.5L187.5,46.5L176.5,57.5Z" style="fill:none;stroke:rgb(17,17,17);stroke-opacity:0.5;stroke-width:1px;stroke-dasharray:1,2,0,0,0,0;"/></g><g transform="matrix(1,0,0,1,-174,-44)"><path d="M187.5,46.5L176.5,46.5L176.5,57.5" style="fill:none;stroke:rgb(17,17,17);stroke-opacity:0.5;stroke-width:1px;stroke-dasharray:1,2,0,0,0,0;"/></g></g></g></svg>