<?xml version="1.0" encoding="UTF-8" standalone="no"?><!DOCTYPE svg PUBLIC "-//W3C//DTD SVG 1.1//EN" "http://www.w3.org/Graphics/SVG/1.1/DTD/svg11.dtd"><svg width="16px" height="16px" version="1.1" xmlns="http://www.w3.org/2000/svg" xmlns:xlink="http://www.w3.org/1999/xlink" xml:space="preserve" xmlns:serif="http://www.serif.com/" style="fill-rule:evenodd;clip-rule:evenodd;stroke-linecap:square;stroke-linejoin:round;stroke-miterlimit:1.5;"><rect id="file_properties" x="0" y="0" width="16" height="16" style="fill:none;"/><clipPath id="_clip1"><rect x="0" y="0" width="16" height="16"/></clipPath><g clip-path="url(#_clip1)"><g><path d="M1.5,4.5l4,-4l9,0l0,15l-13,0l0,-11Z" style="fill:none;stroke:rgb(17,17,17);stroke-width:1px;"/><path d="M1.5,4.5l4,-0l0,-4" style="fill:none;stroke:rgb(17,17,17);stroke-width:1px;stroke-linecap:round;"/></g><g><path d="M8.5,6.318l0,-1.318" style="fill:none;stroke:rgb(17,17,17);stroke-width:1.5px;stroke-linecap:butt;stroke-miterlimit:4;"/><path d="M6.25,7.25l-0.932,-0.932" style="fill:none;stroke:rgb(17,17,17);stroke-width:1.5px;stroke-linecap:butt;stroke-miterlimit:4;"/><path d="M5.318,9.5l-1.318,-0" style="fill:none;stroke:rgb(17,17,17);stroke-width:1.5px;stroke-linecap:butt;stroke-miterlimit:4;"/><path d="M6.25,11.75l-0.932,0.932" style="fill:none;stroke:rgb(17,17,17);stroke-width:1.5px;stroke-linecap:butt;stroke-miterlimit:4;"/><path d="M8.5,12.682l0,1.318" style="fill:none;stroke:rgb(17,17,17);stroke-width:1.5px;stroke-linecap:butt;stroke-miterlimit:4;"/><path d="M10.75,11.75l0.932,0.932" style="fill:none;stroke:rgb(17,17,17);stroke-width:1.5px;stroke-linecap:butt;stroke-miterlimit:4;"/><path d="M11.682,9.5l1.318,-0" style="fill:none;stroke:rgb(17,17,17);stroke-width:1.5px;stroke-linecap:butt;stroke-miterlimit:4;"/><path d="M10.75,7.25l0.932,-0.932" style="fill:none;stroke:rgb(17,17,17);stroke-width:1.5px;stroke-linecap:butt;stroke-miterlimit:4;"/></g><circle cx="8.5" cy="9.5" r="2.828" style="fill:none;stroke:rgb(17,17,17);stroke-width:1px;stroke-linecap:round;stroke-miterlimit:4;"/></g></svg>