<?xml version="1.0" encoding="UTF-8" standalone="no"?><!DOCTYPE svg PUBLIC "-//W3C//DTD SVG 1.1//EN" "http://www.w3.org/Graphics/SVG/1.1/DTD/svg11.dtd"><svg width="16px" height="16px" version="1.1" xmlns="http://www.w3.org/2000/svg" xmlns:xlink="http://www.w3.org/1999/xlink" xml:space="preserve" xmlns:serif="http://www.serif.com/" style="fill-rule:evenodd;clip-rule:evenodd;stroke-linecap:round;stroke-linejoin:round;"><g transform="matrix(1,0,0,1,-217,-44)"><g id="file_image" transform="matrix(1,0,0,1,217,44)"><rect x="0" y="0" width="16" height="16" style="fill:none;"/><clipPath id="_clip1"><rect x="0" y="0" width="16" height="16"/></clipPath><g clip-path="url(#_clip1)"><g transform="matrix(1,0,0,1,0,1)"><path d="M2.5,14.688L5.495,9.5L7.552,13.062L12.495,4.5L14.5,7.972" style="fill:none;stroke:rgb(17,17,17);stroke-width:1px;"/></g><g transform="matrix(1.5,0,0,1.5,-145.75,-66.75)"><circle cx="103.5" cy="47.5" r="1" style="fill:none;stroke:rgb(17,17,17);stroke-width:0.67px;"/></g><g transform="matrix(1,0,0,1,-16,0)"><path d="M18.5,4.5L22.5,0.5L30.5,0.5L30.5,15.5L18.5,15.5L18.5,4.5Z" style="fill:none;stroke:rgb(17,17,17);stroke-width:1px;stroke-miterlimit:1.5;"/></g><g transform="matrix(1,0,0,1,-32.5,0.5)"><path d="M35,4L39,4L39,-0" style="fill:none;stroke:rgb(17,17,17);stroke-width:1px;stroke-miterlimit:1.5;"/></g></g></g></g></svg>