<?xml version="1.0" encoding="UTF-8" standalone="no"?><!DOCTYPE svg PUBLIC "-//W3C//DTD SVG 1.1//EN" "http://www.w3.org/Graphics/SVG/1.1/DTD/svg11.dtd"><svg width="16px" height="16px" version="1.1" xmlns="http://www.w3.org/2000/svg" xmlns:xlink="http://www.w3.org/1999/xlink" xml:space="preserve" xmlns:serif="http://www.serif.com/" style="fill-rule:evenodd;clip-rule:evenodd;stroke-linecap:round;stroke-linejoin:round;"><g transform="matrix(1,0,0,1,-208,-44)"><g id="file_shader_csh" transform="matrix(1,0,0,1,208,44)"><rect x="0" y="0" width="16" height="16" style="fill:none;"/><clipPath id="_clip1"><rect x="0" y="0" width="16" height="16"/></clipPath><g clip-path="url(#_clip1)"><g id="file_shader_csh1" serif:id="file_shader_csh" transform="matrix(1,0,0,1,-0.5,0)"><rect x="0.5" y="0" width="16" height="16" style="fill:none;"/></g><g transform="matrix(1,0,0,1.07143,-0.5,-0.0357143)"><path d="M1,0.5L2,0.5L2,14.5" style="fill:none;stroke:rgb(17,17,17);stroke-width:1px;"/></g><g transform="matrix(1,0,0,1,-0.5,0)"><path d="M2,2.5L15,2.5C15.552,2.5 16,2.948 16,3.5L16,11.5C16,12.052 15.552,12.5 15,12.5L2,12.5" style="fill:none;stroke:rgb(17,17,17);stroke-width:1px;"/></g><g transform="matrix(1,0,0,1,-0.5,1)"><path d="M4,11.5L4,13.5L12,13.5L12,11.5" style="fill:none;stroke:rgb(17,17,17);stroke-width:1px;"/></g><g transform="matrix(1,0,0,1,-0.5,0)"><circle cx="11" cy="7.5" r="3" style="fill:none;stroke:rgb(17,17,17);stroke-width:1px;"/></g><g transform="matrix(1,0,0,1,-0.5,0)"><path d="M4,5.5L6.417,5.5" style="fill:none;stroke:rgb(17,17,17);stroke-width:1px;"/></g><g transform="matrix(1,0,0,1,-0.5,0)"><path d="M4,7.5L6,7.5" style="fill:none;stroke:rgb(17,17,17);stroke-width:1px;"/></g><g transform="matrix(1,0,0,1,-0.5,0)"><path d="M4,9.5L6.417,9.5" style="fill:none;stroke:rgb(17,17,17);stroke-width:1px;"/></g></g></g></g></svg>