<?xml version="1.0" encoding="UTF-8" standalone="no"?><!DOCTYPE svg PUBLIC "-//W3C//DTD SVG 1.1//EN" "http://www.w3.org/Graphics/SVG/1.1/DTD/svg11.dtd"><svg width="21px" height="21px" version="1.1" xmlns="http://www.w3.org/2000/svg" xmlns:xlink="http://www.w3.org/1999/xlink" xml:space="preserve" xmlns:serif="http://www.serif.com/" style="fill-rule:evenodd;clip-rule:evenodd;stroke-linecap:round;stroke-linejoin:round;"><g transform="matrix(1,0,0,1,-340,-22)"><g id="filter_files" transform="matrix(1.3125,0,0,1.3125,340,22)"><rect x="0" y="0" width="16" height="16" style="fill:none;"/><g transform="matrix(0.761905,0,0,0.761905,-182.857,-16)"><path d="M251.5,35.5L251.5,33.5L254.5,29.5L246.5,29.5L249.5,33.5L249.5,37.5L251.5,35.5Z" style="fill:none;stroke:rgb(17,17,17);stroke-width:1px;"/></g><g transform="matrix(1,0,0,1,1.52381,1.90476)"><g transform="matrix(0.761905,0,0,0.761905,-12.1905,0)"><path d="M18.5,4L22.5,0L30.5,0L30.5,16L18.5,16L18.5,4Z" style="fill:none;stroke:rgb(17,17,17);stroke-width:1px;stroke-linecap:square;stroke-miterlimit:1.5;"/></g><g transform="matrix(0.761905,0,0,0.761905,-24.7619,0.380952)"><path d="M35,3.5L39,3.5L39,-0.5" style="fill:none;stroke:rgb(17,17,17);stroke-width:1px;stroke-miterlimit:1.5;"/></g></g></g></g></svg>