<?xml version="1.0" encoding="UTF-8" standalone="no"?><!DOCTYPE svg PUBLIC "-//W3C//DTD SVG 1.1//EN" "http://www.w3.org/Graphics/SVG/1.1/DTD/svg11.dtd"><svg width="16px" height="16px" version="1.1" xmlns="http://www.w3.org/2000/svg" xmlns:xlink="http://www.w3.org/1999/xlink" xml:space="preserve" xmlns:serif="http://www.serif.com/" style="fill-rule:evenodd;clip-rule:evenodd;stroke-linecap:round;stroke-linejoin:round;"><g transform="matrix(1,0,0,1,-22,-44)"><g id="folder_find" transform="matrix(1,0,0,1,22,44)"><rect x="0" y="0" width="16" height="16" style="fill:none;"/><clipPath id="_clip1"><rect x="0" y="0" width="16" height="16"/></clipPath><g clip-path="url(#_clip1)"><g transform="matrix(0.833333,0,0,0.833333,-83.5833,-0.75)"><circle cx="107.5" cy="10.5" r="3" style="fill:none;stroke:rgb(17,17,17);stroke-width:1.2px;"/></g><g transform="matrix(1,0,0,1,-16,0)"><path d="M30,3.5C30.398,3.5 30.779,3.658 31.061,3.939C31.342,4.221 31.5,4.602 31.5,5C31.5,8.219 31.5,15.5 31.5,15.5L16.5,15.5L16.5,2C16.5,1.602 16.658,1.221 16.939,0.939C17.221,0.658 17.602,0.5 18,0.5C18.916,0.5 20.084,0.5 21,0.5C21.828,0.5 22.5,1.172 22.5,2C22.5,2.398 22.658,2.779 22.939,3.061C23.221,3.342 23.602,3.5 24,3.5C25.665,3.5 28.335,3.5 30,3.5Z" style="fill:none;stroke:rgb(17,17,17);stroke-width:1px;stroke-miterlimit:1.5;"/></g><g transform="matrix(-0.699341,0.104518,-0.259155,-0.657906,80.4078,9.01349)"><path d="M106.991,9.974L102.574,14.391" style="fill:none;stroke:rgb(17,17,17);stroke-width:1.28px;"/></g></g></g></g></svg>