<?xml version="1.0" encoding="UTF-8" standalone="no"?><!DOCTYPE svg PUBLIC "-//W3C//DTD SVG 1.1//EN" "http://www.w3.org/Graphics/SVG/1.1/DTD/svg11.dtd"><svg width="16px" height="16px" version="1.1" xmlns="http://www.w3.org/2000/svg" xmlns:xlink="http://www.w3.org/1999/xlink" xml:space="preserve" xmlns:serif="http://www.serif.com/" style="fill-rule:evenodd;clip-rule:evenodd;stroke-linecap:round;stroke-linejoin:round;stroke-miterlimit:1.5;"><g transform="matrix(1,0,0,1,-157,-100)"><g id="folder_open" transform="matrix(1,0,0,1,157,100)"><rect x="0" y="0" width="16" height="16" style="fill:none;"/><clipPath id="_clip1"><rect x="0" y="0" width="16" height="16"/></clipPath><g clip-path="url(#_clip1)"><g transform="matrix(1,0,0,1,-16,0)"><path d="M30,3.5C30.398,3.5 30.779,3.658 31.061,3.939C31.342,4.221 31.5,4.602 31.5,5C31.5,8.219 31.5,15.5 31.5,15.5L16.5,15.5L16.5,2C16.5,1.602 16.658,1.221 16.939,0.939C17.221,0.658 17.602,0.5 18,0.5C18.916,0.5 20.084,0.5 21,0.5C21.828,0.5 22.5,1.172 22.5,2C22.5,2.398 22.658,2.779 22.939,3.061C23.221,3.342 23.602,3.5 24,3.5C25.665,3.5 28.335,3.5 30,3.5Z" style="fill:none;stroke:rgb(17,17,17);stroke-width:1px;"/></g><g transform="matrix(1,0,0,1,-16,0)"><path d="M30,7.5C30.398,7.5 30.779,7.658 31.061,7.939C31.342,8.221 31.5,8.602 31.5,9C31.5,11.316 31.5,15.5 31.5,15.5L16.5,15.5L16.5,6C16.5,5.602 16.658,5.221 16.939,4.939C17.221,4.658 17.602,4.5 18,4.5C18.778,4.5 19.712,4.5 20.419,4.5C21.065,4.5 21.638,4.913 21.842,5.526C21.944,5.832 22.056,6.168 22.158,6.474C22.362,7.087 22.935,7.5 23.581,7.5C25.182,7.5 28.187,7.5 30,7.5Z" style="fill:none;stroke:rgb(17,17,17);stroke-width:1px;"/></g></g></g></g></svg>