<?xml version="1.0" encoding="UTF-8" standalone="no"?><!DOCTYPE svg PUBLIC "-//W3C//DTD SVG 1.1//EN" "http://www.w3.org/Graphics/SVG/1.1/DTD/svg11.dtd"><svg width="16px" height="16px" version="1.1" xmlns="http://www.w3.org/2000/svg" xmlns:xlink="http://www.w3.org/1999/xlink" xml:space="preserve" xmlns:serif="http://www.serif.com/" style="fill-rule:evenodd;clip-rule:evenodd;stroke-linecap:round;stroke-linejoin:round;stroke-miterlimit:1.5;"><g transform="matrix(1,0,0,1,-184,-166)"><g id="function" transform="matrix(1,0,0,1,184,166)"><rect x="0" y="0" width="16" height="16" style="fill:none;"/><g transform="matrix(1,0,0,0.857143,6.5,1.14286)"><path d="M3.5,1.583C3.5,1.583 2,2.667 2,8C2,13.333 3.5,14.417 3.5,14.417" style="fill:none;stroke:rgb(17,17,17);stroke-width:1.07px;"/></g><g transform="matrix(-1,0,0,0.857143,16.5,1.14286)"><path d="M3.5,1.583C3.5,1.583 2,2.667 2,8C2,13.333 3.5,14.417 3.5,14.417" style="fill:none;stroke:rgb(17,17,17);stroke-width:1.07px;"/></g><g transform="matrix(1,0,0,1,0,-1)"><path d="M5.5,5.5C1.5,5.5 5.5,14.5 1.5,14.5" style="fill:none;stroke:rgb(17,17,17);stroke-width:1px;"/></g><g transform="matrix(1,0,0,1,0,-0.5)"><path d="M2,8L5,8" style="fill:none;stroke:rgb(17,17,17);stroke-width:1px;"/></g></g></g></svg>