<?xml version="1.0" encoding="UTF-8" standalone="no"?><!DOCTYPE svg PUBLIC "-//W3C//DTD SVG 1.1//EN" "http://www.w3.org/Graphics/SVG/1.1/DTD/svg11.dtd"><svg width="64px" height="64px" version="1.1" xmlns="http://www.w3.org/2000/svg" xmlns:xlink="http://www.w3.org/1999/xlink" xml:space="preserve" xmlns:serif="http://www.serif.com/" style="fill-rule:evenodd;clip-rule:evenodd;stroke-linecap:round;stroke-linejoin:round;stroke-miterlimit:2;"><g transform="matrix(1.51081,0,0,1.51081,-16.346,-16.346)"><g transform="matrix(1,0,0,1,-13.3094,-17.0718)"><g transform="matrix(-0.666667,0,0,0.666667,57.0709,23.3333)"><path d="M8.178,43L32.178,43L20.178,22.215L8.178,43Z" style="stroke:black;stroke-width:18px;"/></g><g transform="matrix(1,0,0,1,30,2)"><path d="M1,58L21.619,58C26.034,58 29.619,54.415 29.619,50C29.619,48.531 29.222,47.154 28.53,45.971C27.142,43.596 28.547,46 28.547,46L26.321,42.144" style="stroke:black;stroke-width:12px;"/></g><g transform="matrix(1,0,0,1,13.3094,17.0718)"><path d="M43.011,27.072L36.1,31.101M22.309,34.928L17.691,42.928" style="fill:none;stroke:black;stroke-width:12px;"/></g></g><g transform="matrix(1,0,0,1,-13.3094,-17.0718)"><g transform="matrix(-0.666667,0,0,0.666667,57.0709,23.3333)"><path d="M8.178,43L32.178,43L20.178,22.215L8.178,43Z" style="fill:none;stroke:rgb(255,80,0);stroke-width:6px;"/></g><g transform="matrix(1,0,0,1,30,2)"><path d="M1,58L21.619,58C26.034,58 29.619,54.415 29.619,50C29.619,48.531 29.222,47.154 28.53,45.971C27.142,43.596 28.547,46 28.547,46L26.321,42.144" style="fill:none;stroke:rgb(255,80,0);stroke-width:4px;"/></g></g></g></svg>