<?xml version="1.0" encoding="UTF-8" standalone="no"?><!DOCTYPE svg PUBLIC "-//W3C//DTD SVG 1.1//EN" "http://www.w3.org/Graphics/SVG/1.1/DTD/svg11.dtd"><svg width="16px" height="16px" version="1.1" xmlns="http://www.w3.org/2000/svg" xmlns:xlink="http://www.w3.org/1999/xlink" xml:space="preserve" xmlns:serif="http://www.serif.com/" style="fill-rule:evenodd;clip-rule:evenodd;stroke-linecap:round;stroke-linejoin:round;stroke-miterlimit:2;"><rect id="keyword_layout" x="0" y="0" width="16" height="16" style="fill:none;"/><rect x="1.5" y="5.5" width="3" height="3" style="fill:none;stroke:rgb(58,0,58);stroke-width:1px;"/><rect x="1.5" y="8.5" width="3" height="3" style="fill:none;stroke:rgb(58,0,58);stroke-width:1px;"/><rect x="1.5" y="11.5" width="3" height="3" style="fill:none;stroke:rgb(58,0,58);stroke-width:1px;"/><rect x="4.5" y="5.5" width="3" height="3" style="fill:none;stroke:rgb(58,0,58);stroke-width:1px;"/><rect x="4.5" y="11.5" width="3" height="3" style="fill:none;stroke:rgb(58,0,58);stroke-width:1px;"/><rect x="7.5" y="5.5" width="3" height="3" style="fill:none;stroke:rgb(58,0,58);stroke-width:1px;"/><rect x="7.5" y="8.5" width="3" height="3" style="fill:none;stroke:rgb(58,0,58);stroke-width:1px;"/><rect x="7.5" y="11.5" width="3" height="3" style="fill:none;stroke:rgb(58,0,58);stroke-width:1px;"/><path d="M1.5,1.5l-0,2" style="fill:none;stroke:rgb(58,0,58);stroke-width:1px;"/><path d="M12.5,14.5l2,0" style="fill:none;stroke:rgb(58,0,58);stroke-width:1px;"/><path d="M12.5,5.5l2,0" style="fill:none;stroke:rgb(58,0,58);stroke-width:1px;"/><path d="M10.5,3.5l0,-2" style="fill:none;stroke:rgb(58,0,58);stroke-width:1px;"/><path d="M1.5,2.5l9,0" style="fill:none;stroke:rgb(58,0,58);stroke-width:1px;"/><path d="M13.5,5.5l0,9" style="fill:none;stroke:rgb(58,0,58);stroke-width:1px;"/></svg>