<?xml version="1.0" encoding="UTF-8" standalone="no"?><!DOCTYPE svg PUBLIC "-//W3C//DTD SVG 1.1//EN" "http://www.w3.org/Graphics/SVG/1.1/DTD/svg11.dtd"><svg width="16px" height="16px" version="1.1" xmlns="http://www.w3.org/2000/svg" xmlns:xlink="http://www.w3.org/1999/xlink" xml:space="preserve" xmlns:serif="http://www.serif.com/" style="fill-rule:evenodd;clip-rule:evenodd;stroke-linecap:round;stroke-linejoin:round;stroke-miterlimit:1.5;"><g transform="matrix(1,0,0,1,-523,-248)"><g id="keyword_struct" transform="matrix(1,0,0,1,523,248)"><rect x="0" y="0" width="16" height="16" style="fill:none;"/><g transform="matrix(1,0,0,1,-17,-1.77636e-15)"><path d="M21.5,1.5C20.5,1.5 20.5,2.5 20.5,5.5L18,8L20.5,10.5C20.5,13.5 20.5,14.5 21.5,14.5" style="fill:none;stroke:rgb(58,0,58);stroke-width:1px;"/></g><g transform="matrix(-1,0,0,1,33,-1.77636e-15)"><path d="M21.5,1.5C20.5,1.5 20.5,2.5 20.5,5.5L18,8L20.5,10.5C20.5,13.5 20.5,14.5 21.5,14.5" style="fill:none;stroke:rgb(58,0,58);stroke-width:1px;"/></g><g transform="matrix(1,0,0,1,-67,0)"><path d="M75.5,1.5C76.052,1.5 76.5,1.948 76.5,2.5C76.5,2.822 76.5,3.178 76.5,3.5C76.5,4.052 76.052,4.5 75.5,4.5C75.178,4.5 74.822,4.5 74.5,4.5C73.948,4.5 73.5,4.052 73.5,3.5C73.5,3.178 73.5,2.822 73.5,2.5C73.5,1.948 73.948,1.5 74.5,1.5L75.5,1.5Z" style="fill:none;stroke:rgb(58,0,58);stroke-width:1px;stroke-linecap:square;stroke-linejoin:miter;stroke-miterlimit:2;"/></g><g transform="matrix(1,0,0,1,-67,5)"><path d="M75.5,1.5C76.052,1.5 76.5,1.948 76.5,2.5C76.5,2.822 76.5,3.178 76.5,3.5C76.5,4.052 76.052,4.5 75.5,4.5C75.178,4.5 74.822,4.5 74.5,4.5C73.948,4.5 73.5,4.052 73.5,3.5C73.5,3.178 73.5,2.822 73.5,2.5C73.5,1.948 73.948,1.5 74.5,1.5L75.5,1.5Z" style="fill:none;stroke:rgb(58,0,58);stroke-width:1px;stroke-linecap:square;stroke-linejoin:miter;stroke-miterlimit:2;"/></g><g transform="matrix(1,0,0,1,-67,10)"><path d="M75.5,1.5C76.052,1.5 76.5,1.948 76.5,2.5C76.5,2.822 76.5,3.178 76.5,3.5C76.5,4.052 76.052,4.5 75.5,4.5C75.178,4.5 74.822,4.5 74.5,4.5C73.948,4.5 73.5,4.052 73.5,3.5C73.5,3.178 73.5,2.822 73.5,2.5C73.5,1.948 73.948,1.5 74.5,1.5L75.5,1.5Z" style="fill:none;stroke:rgb(58,0,58);stroke-width:1px;stroke-linecap:square;stroke-linejoin:miter;stroke-miterlimit:2;"/></g></g></g></svg>