<?xml version="1.0" encoding="UTF-8" standalone="no"?><!DOCTYPE svg PUBLIC "-//W3C//DTD SVG 1.1//EN" "http://www.w3.org/Graphics/SVG/1.1/DTD/svg11.dtd"><svg width="16px" height="16px" version="1.1" xmlns="http://www.w3.org/2000/svg" xmlns:xlink="http://www.w3.org/1999/xlink" xml:space="preserve" xmlns:serif="http://www.serif.com/" style="fill-rule:evenodd;clip-rule:evenodd;stroke-linecap:round;stroke-linejoin:round;stroke-miterlimit:2;"><g transform="matrix(1,0,0,1,-235,-248)"><g id="keyword_break" transform="matrix(1,0,0,1,163,163)"><rect x="72" y="85" width="16" height="16" style="fill:none;"/><g transform="matrix(0.857143,0,0,0.857143,-43.4286,16.7143)"><path d="M137.221,87.25C137.999,84.232 140.741,82 144,82C147.259,82 150.001,84.232 150.779,87.25" style="fill:none;stroke:rgb(57,0,57);stroke-width:1.17px;"/></g><g transform="matrix(-1.73212,1.00004,-1.00004,-1.73212,423.458,106.298)"><path d="M141.5,91.816L142.5,90.816L143.5,91.816" style="fill:none;stroke:rgb(57,0,57);stroke-width:0.5px;"/></g><g transform="matrix(-3.33067e-16,-2.00008,2.00008,-3.33067e-16,-108.139,382.512)"><path d="M141.5,91.816L142.5,90.816L143.5,91.816" style="fill:none;stroke:rgb(57,0,57);stroke-width:0.5px;"/></g><g transform="matrix(1,0,0,0.75,-64,26.625)"><path d="M149.5,90.5L149.5,90.5C149.5,92.709 148.157,94.5 146.5,94.5C142.946,94.5 137.5,94.5 137.5,94.5" style="fill:none;stroke:rgb(57,0,57);stroke-width:1.13px;"/></g></g></g></svg>