<?xml version="1.0" encoding="UTF-8" standalone="no"?><!DOCTYPE svg PUBLIC "-//W3C//DTD SVG 1.1//EN" "http://www.w3.org/Graphics/SVG/1.1/DTD/svg11.dtd"><svg width="16px" height="16px" version="1.1" xmlns="http://www.w3.org/2000/svg" xmlns:xlink="http://www.w3.org/1999/xlink" xml:space="preserve" xmlns:serif="http://www.serif.com/" style="fill-rule:evenodd;clip-rule:evenodd;stroke-linecap:round;stroke-linejoin:round;stroke-miterlimit:2;"><g transform="matrix(1,0,0,1,-285,-248)"><g id="keyword_do" transform="matrix(1,0,0,1,213,163)"><rect x="72" y="85" width="16" height="16" style="fill:none;"/><g transform="matrix(0.857143,0,0,0.857143,-43.4286,16.7143)"><path d="M150.779,90.75C150.001,93.768 147.259,96 144,96C140.741,96 137.999,93.768 137.221,90.75" style="fill:none;stroke:rgb(57,0,57);stroke-width:1.17px;"/></g><g transform="matrix(1.73212,-1.00004,1.00004,1.73212,-263.458,79.7022)"><path d="M141.5,91.816L142.5,90.816L143.5,91.816" style="fill:none;stroke:rgb(57,0,57);stroke-width:0.5px;"/></g><g transform="matrix(-2.00008,2.22045e-16,-2.22045e-16,-2.00008,370.512,273.139)"><path d="M141.5,91.816L142.5,90.816L143.5,91.816" style="fill:none;stroke:rgb(57,0,57);stroke-width:0.5px;"/></g><g transform="matrix(1,0,0,1,-114,4)"><path d="M199.5,87.5L199.5,82.5" style="fill:none;stroke:rgb(57,0,57);stroke-width:1px;"/></g></g></g></svg>