<?xml version="1.0" encoding="UTF-8" standalone="no"?><!DOCTYPE svg PUBLIC "-//W3C//DTD SVG 1.1//EN" "http://www.w3.org/Graphics/SVG/1.1/DTD/svg11.dtd"><svg width="16px" height="16px" version="1.1" xmlns="http://www.w3.org/2000/svg" xmlns:xlink="http://www.w3.org/1999/xlink" xml:space="preserve" xmlns:serif="http://www.serif.com/" style="fill-rule:evenodd;clip-rule:evenodd;stroke-linecap:round;stroke-linejoin:round;stroke-miterlimit:2;"><rect id="keyword_uniform" x="0" y="0" width="16" height="16" style="fill:none;"/><clipPath id="_clip1"><rect x="0" y="0" width="16" height="16"/></clipPath><g clip-path="url(#_clip1)"><path d="M13,1.5c0.828,0 1.5,0.672 1.5,1.5l0,10c-0,0.828 -0.672,1.5 -1.5,1.5l-10,-0c-0.828,-0 -1.5,-0.672 -1.5,-1.5l0,-10c0,-0.828 0.672,-1.5 1.5,-1.5l10,0Z" style="fill:none;stroke:rgb(58,0,58);stroke-width:1px;"/><path d="M3.5,1.5l0,-1" style="fill:none;stroke:rgb(58,0,58);stroke-width:1px;"/><path d="M6.5,1.5l0,-1" style="fill:none;stroke:rgb(58,0,58);stroke-width:1px;"/><path d="M9.5,1.5l0,-1" style="fill:none;stroke:rgb(58,0,58);stroke-width:1px;"/><path d="M12.5,1.5l0,-1" style="fill:none;stroke:rgb(58,0,58);stroke-width:1px;"/><path d="M14.5,3.5l1,-0" style="fill:none;stroke:rgb(58,0,58);stroke-width:1px;"/><path d="M14.5,6.5l1,-0" style="fill:none;stroke:rgb(58,0,58);stroke-width:1px;"/><path d="M14.5,9.5l1,-0" style="fill:none;stroke:rgb(58,0,58);stroke-width:1px;"/><path d="M14.5,12.5l1,-0" style="fill:none;stroke:rgb(58,0,58);stroke-width:1px;"/><path d="M12.5,14.5l0,1" style="fill:none;stroke:rgb(58,0,58);stroke-width:1px;"/><path d="M9.5,14.5l0,1" style="fill:none;stroke:rgb(58,0,58);stroke-width:1px;"/><path d="M6.5,14.5l0,1" style="fill:none;stroke:rgb(58,0,58);stroke-width:1px;"/><path d="M3.5,14.5l0,1" style="fill:none;stroke:rgb(58,0,58);stroke-width:1px;"/><path d="M1.5,12.5l-1,0" style="fill:none;stroke:rgb(58,0,58);stroke-width:1px;"/><path d="M1.5,9.5l-1,0" style="fill:none;stroke:rgb(58,0,58);stroke-width:1px;"/><path d="M1.5,6.5l-1,0" style="fill:none;stroke:rgb(58,0,58);stroke-width:1px;"/><path d="M1.5,3.5l-1,0" style="fill:none;stroke:rgb(58,0,58);stroke-width:1px;"/><path d="M4.5,5.5l-0.001,-0c-0.265,0 -0.519,0.105 -0.706,0.293c-0.188,0.187 -0.293,0.441 -0.293,0.706c0,0.871 0,2.129 0,3.001c-0,0.552 0.448,1 1,1c-0,-0 0,-0 0,-0" style="fill:none;stroke:rgb(58,0,58);stroke-width:1px;stroke-linecap:square;"/><path d="M12.5,5.5l0,4c0,0.265 -0.105,0.52 -0.293,0.707c-0.187,0.188 -0.442,0.293 -0.707,0.293c-0.265,-0 -0.52,-0.105 -0.707,-0.293c-0.188,-0.187 -0.293,-0.442 -0.293,-0.707c0,-1.459 0,-4 0,-4" style="fill:none;stroke:rgb(58,0,58);stroke-width:1px;stroke-linecap:square;"/><path d="M6.5,10.5l0,-5l1,0c0.552,0 1,0.448 1,1c-0,0.552 -0.448,1 -1,1l-1,-0" style="fill:none;stroke:rgb(58,0,58);stroke-width:1px;stroke-linecap:square;"/></g></svg>