<?xml version="1.0" encoding="UTF-8" standalone="no"?><!DOCTYPE svg PUBLIC "-//W3C//DTD SVG 1.1//EN" "http://www.w3.org/Graphics/SVG/1.1/DTD/svg11.dtd"><svg width="16px" height="16px" version="1.1" xmlns="http://www.w3.org/2000/svg" xmlns:xlink="http://www.w3.org/1999/xlink" xml:space="preserve" xmlns:serif="http://www.serif.com/" style="fill-rule:evenodd;clip-rule:evenodd;stroke-linecap:round;stroke-linejoin:round;stroke-miterlimit:2;"><g transform="matrix(1,0,0,1,-269,-248)"><g id="keyword_while" transform="matrix(1,0,0,1,197,163)"><rect x="72" y="85" width="16" height="16" style="fill:none;"/><g transform="matrix(0.857143,0,0,0.857143,-43.4286,16.7143)"><path d="M150.779,90.75C150.001,93.768 147.259,96 144,96C140.741,96 137.999,93.768 137.221,90.75M137.221,87.25C137.999,84.232 140.741,82 144,82C147.259,82 150.001,84.232 150.779,87.25" style="fill:none;stroke:rgb(57,0,57);stroke-width:1.17px;"/></g><g transform="matrix(1.73212,-1.00004,1.00004,1.73212,-263.458,79.7022)"><path d="M141.5,91.816L142.5,90.816L143.5,91.816" style="fill:none;stroke:rgb(57,0,57);stroke-width:0.5px;"/></g><g transform="matrix(-1.73212,1.00004,-1.00004,-1.73212,423.458,106.298)"><path d="M141.5,91.816L142.5,90.816L143.5,91.816" style="fill:none;stroke:rgb(57,0,57);stroke-width:0.5px;"/></g></g></g></svg>