<?xml version="1.0" encoding="UTF-8" standalone="no"?><!DOCTYPE svg PUBLIC "-//W3C//DTD SVG 1.1//EN" "http://www.w3.org/Graphics/SVG/1.1/DTD/svg11.dtd"><svg width="16px" height="16px" version="1.1" xmlns="http://www.w3.org/2000/svg" xmlns:xlink="http://www.w3.org/1999/xlink" xml:space="preserve" xmlns:serif="http://www.serif.com/" style="fill-rule:evenodd;clip-rule:evenodd;stroke-linecap:square;stroke-linejoin:round;stroke-miterlimit:2;"><g transform="matrix(1,0,0,1,-404,-248)"><g id="keyword" transform="matrix(1,0,0,1,404,248)"><rect x="0" y="0" width="16" height="16" style="fill:none;"/><g transform="matrix(1.625,0,0,1.625,-58.625,-136.625)"><path d="M41,89L45,87L41,85L37,87L41,89Z" style="fill:none;stroke:rgb(58,0,58);stroke-width:0.62px;"/></g><g transform="matrix(0.928571,0,0,0.928571,-31,-74.6429)"><path d="M35,85.5L35,92.5L42,96L42,89L35,85.5Z" style="fill:none;stroke:rgb(58,0,58);stroke-width:1.08px;stroke-linecap:round;"/></g><g transform="matrix(-0.928571,0,0,0.928571,47,-74.6429)"><path d="M35,85.5L35,92.5L42,96L42,89L35,85.5Z" style="fill:none;stroke:rgb(58,0,58);stroke-width:1.08px;stroke-linecap:round;"/></g></g></g></svg>