<?xml version="1.0" encoding="UTF-8" standalone="no"?><!DOCTYPE svg PUBLIC "-//W3C//DTD SVG 1.1//EN" "http://www.w3.org/Graphics/SVG/1.1/DTD/svg11.dtd"><svg width="16px" height="16px" version="1.1" xmlns="http://www.w3.org/2000/svg" xmlns:xlink="http://www.w3.org/1999/xlink" xml:space="preserve" xmlns:serif="http://www.serif.com/" style="fill-rule:evenodd;clip-rule:evenodd;stroke-linecap:round;stroke-linejoin:round;stroke-miterlimit:2;"><g transform="matrix(1,0,0,1,-167,-248)"><g id="keyword_layout" transform="matrix(1,0,0,1,95,163)"><rect x="72" y="85" width="16" height="16" style="fill:none;"/><g transform="matrix(0.857143,0,0,0.75,14.3571,25.25)"><rect x="69" y="87" width="3.5" height="4" style="fill:none;stroke:rgb(58,0,58);stroke-width:1.24px;"/></g><g transform="matrix(0.857143,0,0,0.75,14.3571,28.25)"><rect x="69" y="87" width="3.5" height="4" style="fill:none;stroke:rgb(58,0,58);stroke-width:1.24px;"/></g><g transform="matrix(0.857143,0,0,0.75,14.3571,31.25)"><rect x="69" y="87" width="3.5" height="4" style="fill:none;stroke:rgb(58,0,58);stroke-width:1.24px;"/></g><g transform="matrix(0.857143,0,0,0.75,17.3571,25.25)"><rect x="69" y="87" width="3.5" height="4" style="fill:none;stroke:rgb(58,0,58);stroke-width:1.24px;"/></g><g transform="matrix(0.857143,0,0,0.75,17.3571,31.25)"><rect x="69" y="87" width="3.5" height="4" style="fill:none;stroke:rgb(58,0,58);stroke-width:1.24px;"/></g><g transform="matrix(0.857143,0,0,0.75,20.3571,25.25)"><rect x="69" y="87" width="3.5" height="4" style="fill:none;stroke:rgb(58,0,58);stroke-width:1.24px;"/></g><g transform="matrix(0.857143,0,0,0.75,20.3571,28.25)"><rect x="69" y="87" width="3.5" height="4" style="fill:none;stroke:rgb(58,0,58);stroke-width:1.24px;"/></g><g transform="matrix(0.857143,0,0,0.75,20.3571,31.25)"><rect x="69" y="87" width="3.5" height="4" style="fill:none;stroke:rgb(58,0,58);stroke-width:1.24px;"/></g><g transform="matrix(1,0,0,1,4,4)"><path d="M69.5,82.5L69.5,84.5" style="fill:none;stroke:rgb(58,0,58);stroke-width:1px;"/></g><g transform="matrix(1,0,0,1,4,4)"><path d="M80.5,95.5L82.5,95.5" style="fill:none;stroke:rgb(58,0,58);stroke-width:1px;"/></g><g transform="matrix(1,0,0,1,4,4)"><path d="M80.5,86.5L82.5,86.5" style="fill:none;stroke:rgb(58,0,58);stroke-width:1px;"/></g><g transform="matrix(1,0,0,1,4,4)"><path d="M78.5,84.5L78.5,82.5" style="fill:none;stroke:rgb(58,0,58);stroke-width:1px;"/></g><g transform="matrix(1,0,0,1,4,4)"><path d="M69.5,83.5L78.5,83.5" style="fill:none;stroke:rgb(58,0,58);stroke-width:1px;"/></g><g transform="matrix(1,0,0,1,4,4)"><path d="M81.5,86.5L81.5,95.5" style="fill:none;stroke:rgb(58,0,58);stroke-width:1px;"/></g></g></g></svg>