<?xml version="1.0" encoding="UTF-8" standalone="no"?><!DOCTYPE svg PUBLIC "-//W3C//DTD SVG 1.1//EN" "http://www.w3.org/Graphics/SVG/1.1/DTD/svg11.dtd"><svg width="16px" height="16px" version="1.1" xmlns="http://www.w3.org/2000/svg" xmlns:xlink="http://www.w3.org/1999/xlink" xml:space="preserve" xmlns:serif="http://www.serif.com/" style="fill-rule:evenodd;clip-rule:evenodd;stroke-linecap:round;stroke-linejoin:round;stroke-miterlimit:1.5;"><g transform="matrix(1,0,0,1,-232,-166)"><g id="member" transform="matrix(1,0,0,1,232,166)"><rect x="0" y="0" width="16" height="16" style="fill:none;"/><g transform="matrix(1,0,-0.176327,1,-29.9654,-1)"><path d="M37,6C39,6 40,12 42,12" style="fill:none;stroke:rgb(17,17,17);stroke-width:1.09px;"/></g><g transform="matrix(-1,0,-0.176327,1,49.0346,-1)"><path d="M37,6C39,6 40,12 42,12" style="fill:none;stroke:rgb(17,17,17);stroke-width:0.92px;"/></g><g transform="matrix(0.846154,0,0,0.846154,-111.308,1.23077)"><path d="M145.136,1.5C145.763,1.5 146.364,1.749 146.808,2.192C147.251,2.636 147.5,3.237 147.5,3.864L147.5,12.136C147.5,12.763 147.251,13.364 146.808,13.808C146.364,14.251 145.763,14.5 145.136,14.5L136.864,14.5C136.237,14.5 135.636,14.251 135.192,13.808C134.749,13.364 134.5,12.763 134.5,12.136L134.5,3.864C134.5,3.237 134.749,2.636 135.192,2.192C135.636,1.749 136.237,1.5 136.864,1.5L145.136,1.5Z" style="fill:none;stroke:rgb(17,17,17);stroke-width:1.18px;stroke-miterlimit:2;"/></g></g></g></svg>