<?xml version="1.0" encoding="UTF-8" standalone="no"?><!DOCTYPE svg PUBLIC "-//W3C//DTD SVG 1.1//EN" "http://www.w3.org/Graphics/SVG/1.1/DTD/svg11.dtd"><svg width="16px" height="16px" version="1.1" xmlns="http://www.w3.org/2000/svg" xmlns:xlink="http://www.w3.org/1999/xlink" xml:space="preserve" xmlns:serif="http://www.serif.com/" style="fill-rule:evenodd;clip-rule:evenodd;stroke-linecap:round;stroke-linejoin:round;stroke-miterlimit:1.5;"><rect id="member" x="0" y="0" width="16" height="16" style="fill:none;"/><path d="M5.977,5c2,-0 1.942,6 3.942,6" style="fill:none;stroke:rgb(17,17,17);stroke-width:1px;"/><path d="M10.977,5c-2,-0 -4.058,6 -6.058,6" style="fill:none;stroke:rgb(17,17,17);stroke-width:1px;"/><path d="M11.5,2.5c0.53,-0 1.039,0.211 1.414,0.586c0.375,0.375 0.586,0.884 0.586,1.414l0,7c0,0.53 -0.211,1.039 -0.586,1.414c-0.375,0.375 -0.884,0.586 -1.414,0.586l-7,-0c-0.53,0 -1.039,-0.211 -1.414,-0.586c-0.375,-0.375 -0.586,-0.884 -0.586,-1.414l0,-7c-0,-0.53 0.211,-1.039 0.586,-1.414c0.375,-0.375 0.884,-0.586 1.414,-0.586l7,0Z" style="fill:none;stroke:rgb(17,17,17);stroke-width:1px;stroke-miterlimit:2;"/></svg>