<?xml version="1.0" encoding="UTF-8" standalone="no"?><!DOCTYPE svg PUBLIC "-//W3C//DTD SVG 1.1//EN" "http://www.w3.org/Graphics/SVG/1.1/DTD/svg11.dtd"><svg width="16px" height="16px" version="1.1" xmlns="http://www.w3.org/2000/svg" xmlns:xlink="http://www.w3.org/1999/xlink" xml:space="preserve" xmlns:serif="http://www.serif.com/" style="fill-rule:evenodd;clip-rule:evenodd;stroke-linecap:round;stroke-linejoin:round;stroke-miterlimit:1.5;"><rect id="open_dir" x="0" y="0" width="16" height="16" style="fill:none;"/><clipPath id="_clip1"><rect x="0" y="0" width="16" height="16"/></clipPath><g clip-path="url(#_clip1)"><path d="M2.233,4.5c0,-0 0.126,-1.885 0.205,-3.067c0.035,-0.525 0.471,-0.933 0.998,-0.933c0.92,0 2.322,0 3.264,-0c0.552,0 1,0.448 1,1c-0,0.322 -0,0.678 -0,1c0,0.552 0.448,1 1,1c2.105,0 6.8,0 6.8,0l-1,12" style="fill:none;stroke:rgb(17,17,17);stroke-width:1px;"/><path d="M0.599,5.591c-0.025,-0.28 0.068,-0.558 0.258,-0.765c0.189,-0.208 0.457,-0.326 0.738,-0.326c0.883,0 2.12,0 3.005,0c0.292,-0 0.572,0.116 0.778,0.322c0.206,0.206 0.322,0.486 0.322,0.778c0,0.608 0.492,1.1 1.1,1.1c2.15,0 6.7,0 6.7,0l1,8.8l-13,0c-0,0 -0.648,-7.13 -0.901,-9.909Z" style="fill:none;stroke:rgb(17,17,17);stroke-width:1px;stroke-linecap:square;"/></g></svg>