<?xml version="1.0" encoding="UTF-8" standalone="no"?><!DOCTYPE svg PUBLIC "-//W3C//DTD SVG 1.1//EN" "http://www.w3.org/Graphics/SVG/1.1/DTD/svg11.dtd"><svg width="21px" height="21px" version="1.1" xmlns="http://www.w3.org/2000/svg" xmlns:xlink="http://www.w3.org/1999/xlink" xml:space="preserve" xmlns:serif="http://www.serif.com/" style="fill-rule:evenodd;clip-rule:evenodd;stroke-linecap:round;stroke-linejoin:round;stroke-miterlimit:1.5;"><g transform="matrix(1,0,0,1,-157,-78)"><g id="open_dir_large" transform="matrix(1.3125,0,0,1.3125,157,78)"><rect x="0" y="0" width="16" height="16" style="fill:none;"/><clipPath id="_clip1"><rect x="0" y="0" width="16" height="16"/></clipPath><g clip-path="url(#_clip1)"><g transform="matrix(0.880423,0,0,1.01587,-13.1543,-0.126984)"><path d="M17.124,4.25C17.124,4.25 17.275,2.285 17.358,1.2C17.388,0.806 17.766,0.5 18.222,0.5C19.475,0.5 21.875,0.5 23.162,0.5C23.64,0.5 24.027,0.836 24.027,1.25C24.027,1.708 24.027,2.292 24.027,2.75C24.027,2.949 24.119,3.14 24.281,3.28C24.443,3.421 24.663,3.5 24.893,3.5C27.079,3.5 32.654,3.5 32.654,3.5L31.816,15.5" style="fill:none;stroke:rgb(17,17,17);stroke-width:0.8px;"/></g><g transform="matrix(0.880423,0,0,0.744974,-13.1543,4.07196)"><path d="M15.43,1.272C15.408,0.987 15.489,0.703 15.653,0.491C15.817,0.28 16.049,0.159 16.292,0.159C17.593,0.159 19.942,0.159 21.414,0.159C22.173,0.159 22.821,0.808 22.946,1.692C22.949,1.72 22.953,1.747 22.957,1.774C23.075,2.613 23.689,3.227 24.408,3.227C26.402,3.227 30.085,3.227 30.085,3.227L31.816,15.5L16.5,15.5C16.5,15.5 15.695,4.8 15.43,1.272Z" style="fill:none;stroke:rgb(17,17,17);stroke-width:0.93px;stroke-linecap:square;"/></g></g></g></g></svg>