<?xml version="1.0" encoding="UTF-8" standalone="no"?><!DOCTYPE svg PUBLIC "-//W3C//DTD SVG 1.1//EN" "http://www.w3.org/Graphics/SVG/1.1/DTD/svg11.dtd"><svg width="16px" height="16px" version="1.1" xmlns="http://www.w3.org/2000/svg" xmlns:xlink="http://www.w3.org/1999/xlink" xml:space="preserve" xmlns:serif="http://www.serif.com/" style="fill-rule:evenodd;clip-rule:evenodd;stroke-linecap:round;stroke-linejoin:round;stroke-miterlimit:1.5;"><g transform="matrix(1,0,0,1,-88,-60)"><g id="open_dir" transform="matrix(1,0,0,1,88,60)"><rect x="0" y="0" width="16" height="16" style="fill:none;"/><clipPath id="_clip1"><rect x="0" y="0" width="16" height="16"/></clipPath><g clip-path="url(#_clip1)"><g transform="matrix(0.866667,0,0,1,-12.8,0)"><path d="M17.346,4.5C17.346,4.5 17.491,2.615 17.582,1.433C17.622,0.908 18.126,0.5 18.733,0.5C19.796,0.5 21.413,0.5 22.5,0.5C23.137,0.5 23.654,0.948 23.654,1.5C23.654,1.822 23.654,2.178 23.654,2.5C23.654,3.052 24.17,3.5 24.808,3.5C27.236,3.5 32.654,3.5 32.654,3.5L31.5,15.5" style="fill:none;stroke:rgb(17,17,17);stroke-width:1.07px;"/></g><g transform="matrix(0.866667,0,0,0.733333,-12.8,4.13333)"><path d="M15.461,1.987C15.431,1.606 15.539,1.227 15.758,0.944C15.976,0.661 16.285,0.5 16.61,0.5C17.629,0.5 19.056,0.5 20.077,0.5C20.414,0.5 20.736,0.658 20.974,0.939C21.212,1.221 21.346,1.602 21.346,2C21.346,2.828 21.914,3.5 22.615,3.5C25.096,3.5 30.346,3.5 30.346,3.5L31.5,15.5L16.5,15.5C16.5,15.5 15.752,5.777 15.461,1.987Z" style="fill:none;stroke:rgb(17,17,17);stroke-width:1.25px;stroke-linecap:square;"/></g></g></g></g></svg>