<?xml version="1.0" encoding="UTF-8" standalone="no"?><!DOCTYPE svg PUBLIC "-//W3C//DTD SVG 1.1//EN" "http://www.w3.org/Graphics/SVG/1.1/DTD/svg11.dtd"><svg width="16px" height="16px" version="1.1" xmlns="http://www.w3.org/2000/svg" xmlns:xlink="http://www.w3.org/1999/xlink" xml:space="preserve" xmlns:serif="http://www.serif.com/" style="fill-rule:evenodd;clip-rule:evenodd;stroke-linecap:round;stroke-linejoin:round;"><g transform="matrix(1,0,0,1,-150,-60)"><g id="open_file" transform="matrix(1,0,0,1,150,60)"><rect x="0" y="0" width="16" height="16" style="fill:none;"/><clipPath id="_clip1"><rect x="0" y="0" width="16" height="16"/></clipPath><g clip-path="url(#_clip1)"><g transform="matrix(1,0,0,1.4,-51,-86.6)"><path d="M59.5,66.5L59.5,71.5" style="fill:none;stroke:rgb(17,17,17);stroke-width:0.82px;"/></g><g transform="matrix(1,0,0,1,-16,0)"><path d="M18.5,4.5L22.5,0.5L30.5,0.5L30.5,15.5L18.5,15.5L18.5,4.5Z" style="fill:none;stroke:rgb(17,17,17);stroke-width:1px;stroke-miterlimit:1.5;"/></g><g transform="matrix(1,0,0,1,-31.5,0.5)"><path d="M34,4L38,4L38,-0" style="fill:none;stroke:rgb(17,17,17);stroke-width:1px;stroke-miterlimit:1.5;"/></g><g transform="matrix(1,0,0,1,-51,-60)"><path d="M57.5,71.5L59.5,73.5L61.5,71.5" style="fill:none;stroke:rgb(17,17,17);stroke-width:1px;"/></g></g></g></g></svg>