<?xml version="1.0" encoding="UTF-8" standalone="no"?><!DOCTYPE svg PUBLIC "-//W3C//DTD SVG 1.1//EN" "http://www.w3.org/Graphics/SVG/1.1/DTD/svg11.dtd"><svg width="16px" height="16px" version="1.1" xmlns="http://www.w3.org/2000/svg" xmlns:xlink="http://www.w3.org/1999/xlink" xml:space="preserve" xmlns:serif="http://www.serif.com/" style="fill-rule:evenodd;clip-rule:evenodd;stroke-linecap:round;stroke-linejoin:round;stroke-miterlimit:1.5;"><g transform="matrix(1,0,0,1,-56,-60)"><g id="open_folder" transform="matrix(1,0,0,1,56,60)"><rect x="0" y="0" width="16" height="16" style="fill:none;"/><clipPath id="_clip1"><rect x="0" y="0" width="16" height="16"/></clipPath><g clip-path="url(#_clip1)"><g transform="matrix(1,0,0,1,-16,0)"><path d="M16.5,1.5C16.5,1.235 16.605,0.98 16.793,0.793C16.98,0.605 17.235,0.5 17.5,0.5C18.455,0.5 19.907,0.5 21,0.5C21.828,0.5 22.5,1.172 22.5,2C22.5,2.398 22.658,2.779 22.939,3.061C23.221,3.342 23.602,3.5 24,3.5C26.56,3.5 31.5,3.5 31.5,3.5L31.5,15.5L16.5,15.5L16.5,1.5Z" style="fill:none;stroke:rgb(17,17,17);stroke-width:1px;"/></g><g transform="matrix(1,0,0,1.4,-51,-86.6)"><path d="M59.5,66.5L59.5,71.5" style="fill:none;stroke:rgb(17,17,17);stroke-width:0.82px;stroke-miterlimit:4;"/></g><g transform="matrix(1,0,0,1,-51,-60)"><path d="M57.5,71.5L59.5,73.5L61.5,71.5" style="fill:none;stroke:rgb(17,17,17);stroke-width:1px;stroke-miterlimit:4;"/></g></g></g></g></svg>