<?xml version="1.0" encoding="UTF-8" standalone="no"?><!DOCTYPE svg PUBLIC "-//W3C//DTD SVG 1.1//EN" "http://www.w3.org/Graphics/SVG/1.1/DTD/svg11.dtd"><svg width="21px" height="21px" version="1.1" xmlns="http://www.w3.org/2000/svg" xmlns:xlink="http://www.w3.org/1999/xlink" xml:space="preserve" xmlns:serif="http://www.serif.com/" style="fill-rule:evenodd;clip-rule:evenodd;stroke-linecap:round;stroke-linejoin:round;stroke-miterlimit:1.5;"><rect id="open_dir_large" x="0" y="0" width="21" height="21" style="fill:none;"/><path d="M3.58,6.5c0,-0 0.167,-2.616 0.26,-4.064c0.034,-0.526 0.471,-0.936 0.998,-0.936c1.235,-0 3.397,-0 4.662,-0c0.552,0 1,0.448 1,1c0,0.611 0,1.389 0,2c0,0.552 0.448,1 1,1c2.345,-0 8,-0 8,0l-1.2,14" style="fill:none;stroke:rgb(17,17,17);stroke-width:1px;"/><path d="M1.601,7.592c-0.026,-0.28 0.067,-0.558 0.257,-0.766c0.189,-0.208 0.457,-0.326 0.739,-0.326c0.954,0 2.347,0 3.405,0c0.397,-0 0.778,0.158 1.059,0.439c0.281,0.281 0.439,0.662 0.439,1.059c0,0.001 0,0.001 0,0.002c0,0.398 0.158,0.779 0.439,1.061c0.282,0.281 0.663,0.439 1.061,0.439c2.56,-0 7.5,-0 7.5,-0l1.8,10l-15.6,0c-0,0 -0.81,-8.778 -1.099,-11.908Z" style="fill:none;stroke:rgb(17,17,17);stroke-width:1px;stroke-linecap:square;"/></svg>