<?xml version="1.0" encoding="UTF-8" standalone="no"?><!DOCTYPE svg PUBLIC "-//W3C//DTD SVG 1.1//EN" "http://www.w3.org/Graphics/SVG/1.1/DTD/svg11.dtd"><svg width="16px" height="16px" version="1.1" xmlns="http://www.w3.org/2000/svg" xmlns:xlink="http://www.w3.org/1999/xlink" xml:space="preserve" xmlns:serif="http://www.serif.com/" style="fill-rule:evenodd;clip-rule:evenodd;stroke-linecap:round;stroke-linejoin:round;stroke-miterlimit:2;"><g transform="matrix(1,0,0,1,-248,-166)"><g id="param" transform="matrix(1,0,0,1,248,166)"><rect x="0" y="0" width="16" height="16" style="fill:none;"/><g transform="matrix(1,0,0,1,-147,0)"><path d="M151.5,13.5L151.5,14.5M151.5,1.5L151.5,9.5" style="fill:none;stroke:rgb(17,17,17);stroke-width:1px;"/></g><g transform="matrix(1,0,0,1,-140,0)"><path d="M151.5,6.5L151.5,14.5M151.5,1.5L151.5,2.5" style="fill:none;stroke:rgb(17,17,17);stroke-width:1px;"/></g><g transform="matrix(1,0,0,1,-149,0)"><path d="M151.5,11.5L155.5,11.5" style="fill:none;stroke:rgb(17,17,17);stroke-width:1px;"/></g><g transform="matrix(1,0,0,1,-142,-7)"><path d="M151.5,11.5L155.5,11.5" style="fill:none;stroke:rgb(17,17,17);stroke-width:1px;"/></g></g></g></svg>