<?xml version="1.0" encoding="UTF-8" standalone="no"?><!DOCTYPE svg PUBLIC "-//W3C//DTD SVG 1.1//EN" "http://www.w3.org/Graphics/SVG/1.1/DTD/svg11.dtd"><svg width="16px" height="16px" version="1.1" xmlns="http://www.w3.org/2000/svg" xmlns:xlink="http://www.w3.org/1999/xlink" xml:space="preserve" xmlns:serif="http://www.serif.com/" style="fill-rule:evenodd;clip-rule:evenodd;stroke-linecap:round;stroke-linejoin:round;"><rect id="radio_checked_disabled" x="0" y="0" width="16" height="16" style="fill:none;"/><path d="M8,1.5c3.59,0 6.5,2.91 6.5,6.5l0,0c-0,3.59 -2.91,6.5 -6.5,6.5l-0,0c-3.59,-0 -6.5,-2.91 -6.5,-6.5l0,-0c0,-3.59 2.91,-6.5 6.5,-6.5l0,0Z" style="fill:none;stroke:rgb(17,17,17);stroke-opacity:0.5;stroke-width:1px;"/><path d="M8.05,4.5c0.915,-0 1.793,0.363 2.44,1.01c0.647,0.647 1.01,1.525 1.01,2.44l-0,0.002c0,0.941 -0.374,1.843 -1.039,2.509c-0.666,0.665 -1.568,1.039 -2.509,1.039l-0.002,-0c-0.915,0 -1.793,-0.363 -2.44,-1.01c-0.647,-0.647 -1.01,-1.525 -1.01,-2.44l0,-0.052c0,-1.932 1.566,-3.498 3.498,-3.498l0.052,0Z" style="fill:rgb(17,17,17);fill-opacity:0.7;stroke:rgb(17,17,17);stroke-opacity:0.7;stroke-width:1px;"/></svg>