<?xml version="1.0" encoding="UTF-8" standalone="no"?><!DOCTYPE svg PUBLIC "-//W3C//DTD SVG 1.1//EN" "http://www.w3.org/Graphics/SVG/1.1/DTD/svg11.dtd"><svg width="21px" height="21px" version="1.1" xmlns="http://www.w3.org/2000/svg" xmlns:xlink="http://www.w3.org/1999/xlink" xml:space="preserve" xmlns:serif="http://www.serif.com/" style="fill-rule:evenodd;clip-rule:evenodd;stroke-linecap:round;stroke-linejoin:round;"><g transform="matrix(1,0,0,1,-284,-22)"><g id="recursive" transform="matrix(1.3125,0,0,1.3125,284,22)"><rect x="0" y="0" width="16" height="16" style="fill:none;"/><g transform="matrix(0.761905,0,0,0.761905,-198.857,-17.5238)"><path d="M266,24.5C265.867,24.5 265.74,24.553 265.646,24.646C265.553,24.74 265.5,24.867 265.5,25C265.5,26.073 265.5,28.5 265.5,28.5L269.5,28.5L269.5,26C269.5,25.867 269.447,25.74 269.354,25.646C269.26,25.553 269.133,25.5 269,25.5C268.695,25.5 268.305,25.5 268,25.5C267.867,25.5 267.74,25.447 267.646,25.354C267.553,25.26 267.5,25.133 267.5,25C267.5,24.867 267.447,24.74 267.354,24.646C267.26,24.553 267.133,24.5 267,24.5C266.695,24.5 266.305,24.5 266,24.5Z" style="fill:none;stroke:rgb(17,17,17);stroke-width:1px;"/></g><g transform="matrix(0.761905,0,0,0.761905,-192.762,-12.9524)"><path d="M266,24.5C265.867,24.5 265.74,24.553 265.646,24.646C265.553,24.74 265.5,24.867 265.5,25C265.5,26.073 265.5,28.5 265.5,28.5L269.5,28.5L269.5,26C269.5,25.867 269.447,25.74 269.354,25.646C269.26,25.553 269.133,25.5 269,25.5C268.695,25.5 268.305,25.5 268,25.5C267.867,25.5 267.74,25.447 267.646,25.354C267.553,25.26 267.5,25.133 267.5,25C267.5,24.867 267.447,24.74 267.354,24.646C267.26,24.553 267.133,24.5 267,24.5C266.695,24.5 266.305,24.5 266,24.5Z" style="fill:none;stroke:rgb(17,17,17);stroke-width:1px;"/></g><g transform="matrix(0.761905,0,0,0.761905,-192.762,-6.85714)"><path d="M266,24.5C265.867,24.5 265.74,24.553 265.646,24.646C265.553,24.74 265.5,24.867 265.5,25C265.5,26.073 265.5,28.5 265.5,28.5L269.5,28.5L269.5,26C269.5,25.867 269.447,25.74 269.354,25.646C269.26,25.553 269.133,25.5 269,25.5C268.695,25.5 268.305,25.5 268,25.5C267.867,25.5 267.74,25.447 267.646,25.354C267.553,25.26 267.5,25.133 267.5,25C267.5,24.867 267.447,24.74 267.354,24.646C267.26,24.553 267.133,24.5 267,24.5C266.695,24.5 266.305,24.5 266,24.5Z" style="fill:none;stroke:rgb(17,17,17);stroke-width:1px;"/></g><g transform="matrix(0.507937,0,0,0.761905,-130.413,-16.7619)"><path d="M266.5,29.5L266.5,39.5L272.5,39.5" style="fill:none;stroke:rgb(17,17,17);stroke-width:1.18px;"/></g><g transform="matrix(0.507937,0,0,0.761905,-130.413,-16)"><path d="M272.5,30.5L266.5,30.5" style="fill:none;stroke:rgb(17,17,17);stroke-width:1.18px;"/></g></g></g></svg>