<?xml version="1.0" encoding="UTF-8" standalone="no"?><!DOCTYPE svg PUBLIC "-//W3C//DTD SVG 1.1//EN" "http://www.w3.org/Graphics/SVG/1.1/DTD/svg11.dtd"><svg width="16px" height="16px" version="1.1" xmlns="http://www.w3.org/2000/svg" xmlns:xlink="http://www.w3.org/1999/xlink" xml:space="preserve" xmlns:serif="http://www.serif.com/" style="fill-rule:evenodd;clip-rule:evenodd;stroke-linecap:round;stroke-linejoin:round;"><g transform="matrix(1,0,0,1,-166,-44)"><g id="refresh" transform="matrix(1,0,0,1,166,44)"><rect x="0" y="0" width="16" height="16" style="fill:none;"/><clipPath id="_clip1"><rect x="0" y="0" width="16" height="16"/></clipPath><g clip-path="url(#_clip1)"><g transform="matrix(0.707107,0.707107,-0.707107,0.707107,8,-3.31371)"><g transform="matrix(0.846154,0,0,0.846154,-39.3846,-35.1538)"><path d="M60.595,55.595C59.419,56.772 57.794,57.5 56,57.5C52.413,57.5 49.5,54.587 49.5,51C49.5,47.413 52.413,44.5 56,44.5C59.587,44.5 62.5,47.413 62.5,51" style="fill:none;stroke:rgb(17,17,17);stroke-width:1.18px;"/></g><g transform="matrix(0.969949,-0.243307,0.243307,0.969949,-58.7336,-27.3874)"><path d="M59.646,50.146L61.5,52L63.354,50.146" style="fill:none;stroke:rgb(17,17,17);stroke-width:1px;"/></g><g transform="matrix(1,0,0,1,-48,-43)"><rect x="48.5" y="43.5" width="15" height="15" style="fill:none;"/></g></g></g></g></g></svg>