<?xml version="1.0" encoding="UTF-8" standalone="no"?><!DOCTYPE svg PUBLIC "-//W3C//DTD SVG 1.1//EN" "http://www.w3.org/Graphics/SVG/1.1/DTD/svg11.dtd"><svg width="21px" height="21px" version="1.1" xmlns="http://www.w3.org/2000/svg" xmlns:xlink="http://www.w3.org/1999/xlink" xml:space="preserve" xmlns:serif="http://www.serif.com/" style="fill-rule:evenodd;clip-rule:evenodd;stroke-linecap:round;stroke-linejoin:round;"><g transform="matrix(1,0,0,1,-86,-22)"><g id="regex" transform="matrix(1,0,0,1,70,-18)"><rect x="16" y="40" width="21" height="21" style="fill:none;"/><g transform="matrix(0.6,0,0,0.6,-8.4,42.4)"><path d="M46.5,23.5L51.5,3.5" style="fill:none;stroke:rgb(17,17,17);stroke-width:1.67px;"/></g><g transform="matrix(0.6,0,0,0.6,3.8,42.4)"><path d="M44.5,23.5L49.5,3.5" style="fill:none;stroke:rgb(17,17,17);stroke-width:1.67px;"/></g><g transform="matrix(1,0,0,1,-26,32)"><circle cx="49.5" cy="22.5" r="0.5" style="fill:rgb(17,17,17);stroke:rgb(17,17,17);stroke-width:1px;"/></g><g transform="matrix(0.92376,0,0,0.95,1.99659,2.275)"><g transform="matrix(1,0,0,1,-30,37)"><path d="M57.5,11.5L57.5,8.5" style="fill:none;stroke:rgb(17,17,17);stroke-width:1.07px;"/></g><g transform="matrix(0.5,-0.866025,0.866025,0.5,-11.2093,92.5465)"><path d="M57.5,11.5L57.5,8.5" style="fill:none;stroke:rgb(17,17,17);stroke-width:1.08px;"/></g><g transform="matrix(-0.5,-0.866025,0.866025,-0.5,46.2907,104.046)"><path d="M57.5,11.5L57.5,8.5" style="fill:none;stroke:rgb(17,17,17);stroke-width:1.05px;"/></g><g transform="matrix(-1,-3.67518e-15,3.67518e-15,-1,85,60)"><path d="M57.5,11.5L57.5,8.5" style="fill:none;stroke:rgb(17,17,17);stroke-width:1.07px;"/></g><g transform="matrix(-0.5,0.866025,-0.866025,-0.5,66.2093,4.45354)"><path d="M57.5,11.5L57.5,8.5" style="fill:none;stroke:rgb(17,17,17);stroke-width:1.08px;"/></g><g transform="matrix(0.5,0.866025,-0.866025,0.5,8.70929,-7.04646)"><path d="M57.5,11.5L57.5,8.5" style="fill:none;stroke:rgb(17,17,17);stroke-width:1.05px;"/></g></g></g></g></svg>