<?xml version="1.0" encoding="UTF-8" standalone="no"?><!DOCTYPE svg PUBLIC "-//W3C//DTD SVG 1.1//EN" "http://www.w3.org/Graphics/SVG/1.1/DTD/svg11.dtd"><svg width="21px" height="21px" version="1.1" xmlns="http://www.w3.org/2000/svg" xmlns:xlink="http://www.w3.org/1999/xlink" xml:space="preserve" xmlns:serif="http://www.serif.com/" style="fill-rule:evenodd;clip-rule:evenodd;stroke-linecap:round;stroke-linejoin:round;stroke-miterlimit:2;"><rect id="replace_all" x="0" y="0" width="21" height="21" style="fill:none;"/><path d="M3,12.509c0,-0.003 0,-0.006 -0,-0.009c-0,-0.094 0.026,-0.182 0.071,-0.258l-0.071,0.267Zm0.176,-3.629c-0.108,-0.091 -0.176,-0.228 -0.176,-0.38c0,-0.251 0.185,-0.459 0.426,-0.495c-0.072,0.203 -0.135,0.41 -0.189,0.621c-0.022,0.084 -0.042,0.169 -0.061,0.254Zm3.583,-0.88l2.741,0c0.276,-0 0.5,0.224 0.5,0.5c0,0.276 -0.224,0.5 -0.5,0.5l-3.244,-0c0.126,-0.356 0.296,-0.691 0.503,-1Z" style="fill:rgb(17,17,17);fill-opacity:0.5;"/><path d="M3.866,7l-0.366,0c-0.276,-0 -0.5,-0.224 -0.5,-0.5c0,-0.276 0.224,-0.5 0.5,-0.5l1.001,0c-0.236,0.315 -0.449,0.649 -0.635,1Zm2.161,3l8.22,0l0.743,0.199c0.007,0.1 0.01,0.2 0.01,0.301c-0,0.169 -0.009,0.336 -0.027,0.5l-8.22,0l-0.743,-0.199c-0.007,-0.1 -0.01,-0.2 -0.01,-0.301c-0,-0.169 0.009,-0.336 0.027,-0.5Zm2.195,4l2.278,0c0.276,-0 0.5,0.224 0.5,0.5c0,0.276 -0.224,0.5 -0.5,0.5c-0.976,0 -1.88,-0.311 -2.618,-0.84c0.12,-0.039 0.234,-0.093 0.34,-0.16Zm4.556,-7l-5.105,0c0.772,-0.625 1.756,-1 2.827,-1c0.976,0 1.88,0.311 2.618,0.84c-0.12,0.039 -0.234,0.093 -0.34,0.16Z" style="fill:rgb(17,17,17);"/><g><path d="M16.311,12c-0.667,2.587 -3.017,4.5 -5.811,4.5c-2.794,0 -5.144,-1.913 -5.811,-4.5m0,-3c0.667,-2.587 3.017,-4.5 5.811,-4.5c2.794,0 5.144,1.913 5.811,4.5" style="fill:none;stroke:rgb(17,17,17);stroke-width:1px;"/><path d="M3.957,14.732l0.732,-2.732l2.733,0.732" style="fill:none;stroke:rgb(17,17,17);stroke-width:1px;"/><path d="M17.043,6.268l-0.732,2.732l-2.733,-0.732" style="fill:none;stroke:rgb(17,17,17);stroke-width:1px;"/></g></svg>