<?xml version="1.0" encoding="UTF-8" standalone="no"?><!DOCTYPE svg PUBLIC "-//W3C//DTD SVG 1.1//EN" "http://www.w3.org/Graphics/SVG/1.1/DTD/svg11.dtd"><svg width="16px" height="16px" version="1.1" xmlns="http://www.w3.org/2000/svg" xmlns:xlink="http://www.w3.org/1999/xlink" xml:space="preserve" xmlns:serif="http://www.serif.com/" style="fill-rule:evenodd;clip-rule:evenodd;stroke-linecap:square;stroke-linejoin:round;stroke-miterlimit:2;"><rect id="type_sampler2D" x="0" y="0" width="16" height="16" style="fill:none;"/><clipPath id="_clip1"><rect x="0" y="0" width="16" height="16"/></clipPath><g clip-path="url(#_clip1)"><path d="M14,0.5c0.398,-0 0.779,0.158 1.061,0.439c0.281,0.282 0.439,0.663 0.439,1.061c0,2.874 0,9.126 0,12c0,0.398 -0.158,0.779 -0.439,1.061c-0.282,0.281 -0.663,0.439 -1.061,0.439c-2.874,-0 -9.126,-0 -12,-0c-0.398,0 -0.779,-0.158 -1.061,-0.439c-0.281,-0.282 -0.439,-0.663 -0.439,-1.061c0,-2.874 0,-9.126 0,-12c-0,-0.398 0.158,-0.779 0.439,-1.061c0.282,-0.281 0.663,-0.439 1.061,-0.439l12,-0Z" style="fill:none;stroke:rgb(17,17,17);stroke-width:1px;"/><g><clipPath id="_clip2"><path d="M13.5,0.5c0.53,-0 1.039,0.211 1.414,0.586c0.375,0.375 0.586,0.884 0.586,1.414l-0,11c0,0.53 -0.211,1.039 -0.586,1.414c-0.375,0.375 -0.884,0.586 -1.414,0.586l-11,-0c-0.53,0 -1.039,-0.211 -1.414,-0.586c-0.375,-0.375 -0.586,-0.884 -0.586,-1.414l0,-11c-0,-0.53 0.211,-1.039 0.586,-1.414c0.375,-0.375 0.884,-0.586 1.414,-0.586l11,-0Z"/></clipPath><g clip-path="url(#_clip2)"><rect x="1" y="13" width="2" height="2" style="fill:rgb(17,17,17);fill-opacity:0.15;"/><rect x="3" y="13" width="2" height="2" style="fill:rgb(17,17,17);fill-opacity:0;"/><rect x="1" y="11" width="2" height="2" style="fill:rgb(17,17,17);fill-opacity:0;"/><rect x="3" y="11" width="2" height="2" style="fill:rgb(17,17,17);fill-opacity:0.3;"/><rect x="5" y="11" width="2" height="2" style="fill:rgb(17,17,17);fill-opacity:0.15;"/><rect x="1" y="9" width="2" height="2" style="fill:rgb(17,17,17);fill-opacity:0.3;"/><rect x="1" y="7" width="2" height="2" style="fill:rgb(17,17,17);fill-opacity:0.15;"/><rect x="3" y="9" width="2" height="2" style="fill:rgb(17,17,17);fill-opacity:0.15;"/><rect x="5" y="13" width="2" height="2" style="fill:rgb(17,17,17);fill-opacity:0.3;"/><rect x="7" y="13" width="2" height="2" style="fill:rgb(17,17,17);fill-opacity:0.15;"/><rect x="5" y="9" width="2" height="2" style="fill:rgb(17,17,17);fill-opacity:0.45;"/><rect x="7" y="9" width="2" height="2" style="fill:rgb(17,17,17);fill-opacity:0.3;"/><rect x="7" y="11" width="2" height="2" style="fill:rgb(17,17,17);fill-opacity:0.45;"/><rect x="9" y="11" width="2" height="2" style="fill:rgb(17,17,17);fill-opacity:0.3;"/><rect x="9" y="13" width="2" height="2" style="fill:rgb(17,17,17);fill-opacity:0.45;"/><rect x="11" y="13" width="2" height="2" style="fill:rgb(17,17,17);fill-opacity:0.3;"/><rect x="3" y="7" width="2" height="2" style="fill:rgb(17,17,17);fill-opacity:0.45;"/><rect x="5" y="7" width="2" height="2" style="fill:rgb(17,17,17);fill-opacity:0.3;"/><rect x="1" y="5" width="2" height="2" style="fill:rgb(17,17,17);fill-opacity:0.45;"/><rect x="1" y="3" width="2" height="2" style="fill:rgb(17,17,17);fill-opacity:0.3;"/><rect x="3" y="5" width="2" height="2" style="fill:rgb(17,17,17);fill-opacity:0.3;"/><rect x="7" y="7" width="2" height="2" style="fill:rgb(17,17,17);fill-opacity:0.6;"/><rect x="9" y="7" width="2" height="2" style="fill:rgb(17,17,17);fill-opacity:0.45;"/><rect x="9" y="9" width="2" height="2" style="fill:rgb(17,17,17);fill-opacity:0.6;"/><rect x="11" y="9" width="2" height="2" style="fill:rgb(17,17,17);fill-opacity:0.45;"/><rect x="11" y="11" width="2" height="2" style="fill:rgb(17,17,17);fill-opacity:0.6;"/><rect x="13" y="11" width="2" height="2" style="fill:rgb(17,17,17);fill-opacity:0.45;"/><rect x="13" y="13" width="2" height="2" style="fill:rgb(17,17,17);fill-opacity:0.6;"/><rect x="5" y="5" width="2" height="2" style="fill:rgb(17,17,17);fill-opacity:0.6;"/><rect x="7" y="5" width="2" height="2" style="fill:rgb(17,17,17);fill-opacity:0.45;"/><rect x="3" y="3" width="2" height="2" style="fill:rgb(17,17,17);fill-opacity:0.6;"/><rect x="5" y="3" width="2" height="2" style="fill:rgb(17,17,17);fill-opacity:0.45;"/><rect x="1" y="1" width="2" height="2" style="fill:rgb(17,17,17);fill-opacity:0.6;"/><rect x="3" y="1" width="2" height="2" style="fill:rgb(17,17,17);fill-opacity:0.45;"/><rect x="9" y="5" width="2" height="2" style="fill:rgb(17,17,17);fill-opacity:0.75;"/><rect x="11" y="5" width="2" height="2" style="fill:rgb(17,17,17);fill-opacity:0.6;"/><rect x="7" y="3" width="2" height="2" style="fill:rgb(17,17,17);fill-opacity:0.75;"/><rect x="9" y="3" width="2" height="2" style="fill:rgb(17,17,17);fill-opacity:0.6;"/><rect x="5" y="1" width="2" height="2" style="fill:rgb(17,17,17);fill-opacity:0.75;"/><rect x="7" y="1" width="2" height="2" style="fill:rgb(17,17,17);fill-opacity:0.6;"/><rect x="11" y="7" width="2" height="2" style="fill:rgb(17,17,17);fill-opacity:0.75;"/><rect x="13" y="7" width="2" height="2" style="fill:rgb(17,17,17);fill-opacity:0.6;"/><rect x="13" y="9" width="2" height="2" style="fill:rgb(17,17,17);fill-opacity:0.75;"/><rect x="11" y="3" width="2" height="2" style="fill:rgb(17,17,17);fill-opacity:0.9;"/><rect x="13" y="3" width="2" height="2" style="fill:rgb(17,17,17);fill-opacity:0.75;"/><rect x="9" y="1" width="2" height="2" style="fill:rgb(17,17,17);fill-opacity:0.9;"/><rect x="11" y="1" width="2" height="2" style="fill:rgb(17,17,17);fill-opacity:0.75;"/><rect x="13" y="5" width="2" height="2" style="fill:rgb(17,17,17);fill-opacity:0.9;"/><rect x="13" y="1" width="2" height="2" style="fill:rgb(17,17,17);"/></g></g></g></svg>