<?xml version="1.0" encoding="UTF-8" standalone="no"?><!DOCTYPE svg PUBLIC "-//W3C//DTD SVG 1.1//EN" "http://www.w3.org/Graphics/SVG/1.1/DTD/svg11.dtd"><svg width="16px" height="16px" version="1.1" xmlns="http://www.w3.org/2000/svg" xmlns:xlink="http://www.w3.org/1999/xlink" xml:space="preserve" xmlns:serif="http://www.serif.com/" style="fill-rule:evenodd;clip-rule:evenodd;stroke-linecap:round;stroke-linejoin:round;stroke-miterlimit:2;"><rect id="type_sampler3D" x="0" y="0" width="16" height="16" style="fill:none;"/><clipPath id="_clip1"><rect x="0" y="0" width="16" height="16"/></clipPath><g clip-path="url(#_clip1)"><path d="M7.329,1.335c0.422,-0.211 0.92,-0.211 1.342,0c1.373,0.687 4.502,2.251 6,3c0.508,0.255 0.829,0.774 0.829,1.342c0,1.236 0,3.41 0,4.646c0,0.568 -0.321,1.087 -0.829,1.342c-1.498,0.749 -4.627,2.313 -6,3c-0.422,0.211 -0.92,0.211 -1.342,-0c-1.373,-0.687 -4.502,-2.251 -6,-3c-0.508,-0.255 -0.829,-0.774 -0.829,-1.342c0,-1.236 0,-3.41 0,-4.646c-0,-0.568 0.321,-1.087 0.829,-1.342c1.498,-0.749 4.627,-2.313 6,-3Z" style="fill:none;stroke:rgb(17,17,17);stroke-width:1px;"/><g><path d="M4.5,2.75l3.5,1.75l3.5,-1.75l-3.5,-1.75l-3.5,1.75Z" style="fill:rgb(17,17,17);fill-opacity:0.25;"/><path d="M11.5,9.75l3.5,-1.75l-0,-3.5l-3.5,-1.75l-3.5,1.75l3.5,1.75l0,3.5Z" style="fill:rgb(17,17,17);fill-opacity:0.5;"/><path d="M4.5,2.75l3.5,1.75l-3.5,1.75l0,3.5l-3.5,-1.75l0,-3.5l3.5,-1.75Z" style="fill:rgb(17,17,17);fill-opacity:0.5;"/><path d="M1,11.5l0,-3.5l3.5,1.75l-0,3.5l-3.5,-1.75Z" style="fill:rgb(17,17,17);fill-opacity:0.25;"/><path d="M4.5,13.25l3.5,1.75l3.5,-1.75l-0,-3.5l-3.5,1.75l-3.5,-1.75l-0,3.5Z" style="fill:rgb(17,17,17);fill-opacity:0.5;"/><path d="M15,11.5l-3.5,1.75l0,-3.5l3.5,-1.75l-0,3.5Z" style="fill:rgb(17,17,17);fill-opacity:0.25;"/><path d="M4.5,6.25l3.5,-1.75l3.5,1.75l0,3.5l-3.5,1.75l-3.5,-1.75l0,-3.5Z" style="fill:rgb(17,17,17);fill-opacity:0.75;"/></g><path d="M15,4.5l-7,3.5l-7,-3.5l7,-3.5l7,3.5Z" style="fill:white;fill-opacity:0.25;"/><path d="M8,15l-7,-3.5l0,-7l7,3.5l-0,7Z" style="fill-opacity:0.25;"/></g></svg>