<?xml version="1.0" encoding="UTF-8" standalone="no"?><!DOCTYPE svg PUBLIC "-//W3C//DTD SVG 1.1//EN" "http://www.w3.org/Graphics/SVG/1.1/DTD/svg11.dtd"><svg width="16px" height="16px" version="1.1" xmlns="http://www.w3.org/2000/svg" xmlns:xlink="http://www.w3.org/1999/xlink" xml:space="preserve" xmlns:serif="http://www.serif.com/" style="fill-rule:evenodd;clip-rule:evenodd;stroke-miterlimit:2;"><rect id="type_dvec2" x="0" y="0" width="16" height="16" style="fill:none;"/><clipPath id="_clip1"><rect x="0" y="0" width="16" height="16"/></clipPath><g clip-path="url(#_clip1)"><rect x="5" y="9" width="1" height="1" style="fill:rgb(17,17,17);"/><rect x="5" y="7" width="1" height="1" style="fill:rgb(17,17,17);"/><path d="M3,3.5l-1,0c-0.398,0 -0.779,0.158 -1.061,0.439c-0.281,0.282 -0.439,0.663 -0.439,1.061c0,1.888 0,5.112 0,7c-0,0.398 0.158,0.779 0.439,1.061c0.282,0.281 0.663,0.439 1.061,0.439c0.531,0 1,0 1,0" style="fill:none;stroke:rgb(17,17,17);stroke-width:1px;"/><path d="M8,3.5l1,0c0.398,0 0.779,0.158 1.061,0.439c0.281,0.282 0.439,0.663 0.439,1.061c0,1.888 0,5.112 0,7c0,0.398 -0.158,0.779 -0.439,1.061c-0.282,0.281 -0.663,0.439 -1.061,0.439c-0.531,0 -1,0 -1,0" style="fill:none;stroke:rgb(17,17,17);stroke-width:1px;"/><g><path d="M15.5,7.5l0,6" style="fill:none;stroke:rgb(17,17,17);stroke-width:1px;stroke-linecap:square;"/><path d="M14,10.5c-0.828,0 -1.5,0.672 -1.5,1.5c0,0.828 0.672,1.5 1.5,1.5c0.828,0 1.5,-1.5 1.5,-1.5c0,-0 -0.672,-1.5 -1.5,-1.5Z" style="fill:none;stroke:rgb(17,17,17);stroke-width:1px;stroke-linecap:square;"/></g></g></svg>