<?xml version="1.0" encoding="UTF-8" standalone="no"?><!DOCTYPE svg PUBLIC "-//W3C//DTD SVG 1.1//EN" "http://www.w3.org/Graphics/SVG/1.1/DTD/svg11.dtd"><svg width="16px" height="16px" version="1.1" xmlns="http://www.w3.org/2000/svg" xmlns:xlink="http://www.w3.org/1999/xlink" xml:space="preserve" xmlns:serif="http://www.serif.com/" style="fill-rule:evenodd;clip-rule:evenodd;stroke-linecap:round;stroke-linejoin:round;stroke-miterlimit:2;"><g transform="matrix(1,0,0,1,-133,-248)"><g id="type_sampler3D" transform="matrix(1,0,0,1,133,248)"><rect x="0" y="0" width="16" height="16" style="fill:none;"/><clipPath id="_clip1"><rect x="0" y="0" width="16" height="16"/></clipPath><g clip-path="url(#_clip1)"><g><g transform="matrix(1,0,0,1,-34,-81)"><path d="M38.5,83.75L42,85.5L45.5,83.75L42,82L38.5,83.75Z" style="fill:rgb(17,17,17);fill-opacity:0.25;"/></g><g transform="matrix(1,0,0,1,-34,-81)"><path d="M45.5,90.75L49,89L49,85.5L45.5,83.75L42,85.5L45.5,87.25L45.5,90.75Z" style="fill:rgb(17,17,17);fill-opacity:0.5;"/></g><g transform="matrix(1,0,0,1,-34,-81)"><path d="M38.5,83.75L42,85.5L38.5,87.25L38.5,90.75L35,89L35,85.5L38.5,83.75Z" style="fill:rgb(17,17,17);fill-opacity:0.5;"/></g><g transform="matrix(1,0,0,1,-34,-81)"><path d="M35,92.5L35,89L38.5,90.75L38.5,94.25L35,92.5Z" style="fill:rgb(17,17,17);fill-opacity:0.25;"/></g><g transform="matrix(1,0,0,1,-34,-81)"><path d="M38.5,94.25L42,96L45.5,94.25L45.5,90.75L42,92.5L38.5,90.75L38.5,94.25Z" style="fill:rgb(17,17,17);fill-opacity:0.5;"/></g><g transform="matrix(1,0,0,1,-34,-81)"><path d="M49,92.5L45.5,94.25L45.5,90.75L49,89L49,92.5Z" style="fill:rgb(17,17,17);fill-opacity:0.25;"/></g><g transform="matrix(1,0,0,1,-34,-81)"><path d="M38.5,87.25L42,85.5L45.5,87.25L45.5,90.75L42,92.5L38.5,90.75L38.5,87.25Z" style="fill:rgb(17,17,17);fill-opacity:0.75;"/></g></g><g transform="matrix(1,0,0,1,-34,-81)"><path d="M49,85.5L42,89L35,85.5L42,82L49,85.5Z" style="fill:rgb(1,1,1);fill-opacity:0.25;"/></g><g transform="matrix(1,0,0,1,-34,-81)"><path d="M42,96L35,92.5L35,85.5L42,89L42,96Z" style="fill-opacity:0.25;"/></g><g transform="matrix(1,0,0,1,-34,-81)"><path d="M41.329,82.335C41.751,82.124 42.249,82.124 42.671,82.335C44.044,83.022 47.173,84.586 48.671,85.335C49.179,85.59 49.5,86.109 49.5,86.677C49.5,87.913 49.5,90.087 49.5,91.323C49.5,91.891 49.179,92.41 48.671,92.665C47.173,93.414 44.044,94.978 42.671,95.665C42.249,95.876 41.751,95.876 41.329,95.665C39.956,94.978 36.827,93.414 35.329,92.665C34.821,92.41 34.5,91.891 34.5,91.323C34.5,90.087 34.5,87.913 34.5,86.677C34.5,86.109 34.821,85.59 35.329,85.335C36.827,84.586 39.956,83.022 41.329,82.335Z" style="fill:none;stroke:rgb(17,17,17);stroke-width:1px;"/></g></g></g></g></svg>