<?xml version="1.0" encoding="UTF-8" standalone="no"?><!DOCTYPE svg PUBLIC "-//W3C//DTD SVG 1.1//EN" "http://www.w3.org/Graphics/SVG/1.1/DTD/svg11.dtd"><svg width="16px" height="16px" version="1.1" xmlns="http://www.w3.org/2000/svg" xmlns:xlink="http://www.w3.org/1999/xlink" xml:space="preserve" xmlns:serif="http://www.serif.com/" style="fill-rule:evenodd;clip-rule:evenodd;stroke-linecap:round;stroke-linejoin:round;stroke-miterlimit:2;"><rect id="type_samplerCube" x="0" y="0" width="16" height="16" style="fill:none;"/><path d="M1.218,9.737c-0.142,-0.556 -0.218,-1.138 -0.218,-1.737c0,-0 0.532,0.682 1.67,1.365l-1.452,0.372Z" style="fill:rgb(17,17,17);fill-opacity:0.5;"/><path d="M1,8l7,-0l-5.33,1.365c-1.138,-0.683 -1.67,-1.365 -1.67,-1.365Z" style="fill:rgb(17,17,17);fill-opacity:0.25;"/><path d="M13.33,9.365c-1.142,0.685 -2.894,1.371 -5.33,1.371c-2.436,0 -4.188,-0.686 -5.33,-1.371l5.33,-1.365l5.33,1.365Z" style="fill:rgb(17,17,17);fill-opacity:0.5;"/><path d="M8,8l7,0c0,0 -0.532,0.682 -1.67,1.365l-5.33,-1.365Z" style="fill:rgb(17,17,17);fill-opacity:0.25;"/><path d="M14.782,9.737c-0.773,3.024 -3.518,5.263 -6.782,5.263c-3.264,0 -6.009,-2.239 -6.782,-5.263l1.452,-0.372c1.142,0.685 2.894,1.371 5.33,1.371c2.436,0 4.188,-0.686 5.33,-1.371l1.452,0.372Z" style="fill:rgb(17,17,17);fill-opacity:0.25;"/><path d="M15,8c0,0.599 -0.076,1.181 -0.218,1.737l-1.452,-0.372c1.138,-0.683 1.67,-1.365 1.67,-1.365Z" style="fill:rgb(17,17,17);fill-opacity:0.5;"/><path d="M1.5,8.5l13,0" style="fill:none;stroke:rgb(17,17,17);stroke-width:1px;"/><circle cx="8" cy="8" r="7" style="fill:none;stroke:rgb(17,17,17);stroke-width:1px;"/><path d="M3,8.5l2.5,-4l2.5,4" style="fill:none;stroke:rgb(17,17,17);stroke-width:1px;"/><path d="M7.39,7.525l2.668,-4.621l3.231,5.596" style="fill:none;stroke:rgb(17,17,17);stroke-width:1px;"/></svg>