<?xml version="1.0" encoding="UTF-8" standalone="no"?><!DOCTYPE svg PUBLIC "-//W3C//DTD SVG 1.1//EN" "http://www.w3.org/Graphics/SVG/1.1/DTD/svg11.dtd"><svg width="16px" height="16px" version="1.1" xmlns="http://www.w3.org/2000/svg" xmlns:xlink="http://www.w3.org/1999/xlink" xml:space="preserve" xmlns:serif="http://www.serif.com/" style="fill-rule:evenodd;clip-rule:evenodd;stroke-linecap:round;stroke-linejoin:round;stroke-miterlimit:2;"><rect id="var_const" x="0" y="0" width="16" height="16" style="fill:none;"/><clipPath id="_clip1"><rect x="0" y="0" width="16" height="16"/></clipPath><g clip-path="url(#_clip1)"><path d="M12,7.5c0.398,-0 0.779,0.158 1.061,0.439c0.281,0.282 0.439,0.663 0.439,1.061c-0,1.43 -0,3.57 -0,5c0,0.398 -0.158,0.779 -0.439,1.061c-0.282,0.281 -0.663,0.439 -1.061,0.439c-2.101,0 -5.899,0 -8,-0c-0.398,0 -0.779,-0.158 -1.061,-0.439c-0.281,-0.282 -0.439,-0.663 -0.439,-1.061c0,-1.43 0,-3.57 0,-5c-0,-0.398 0.158,-0.779 0.439,-1.061c0.282,-0.281 0.663,-0.439 1.061,-0.439c2.101,0 5.899,0 8,0Z" style="fill:none;stroke:rgb(17,17,17);stroke-width:1px;"/><path d="M4.5,4c0,-1.932 1.568,-3.5 3.5,-3.5c1.932,-0 3.5,1.568 3.5,3.5" style="fill:none;stroke:rgb(17,17,17);stroke-width:1px;"/><path d="M11.5,4l0,3.5" style="fill:none;stroke:rgb(17,17,17);stroke-width:1px;"/><path d="M4.5,4l0,3.5" style="fill:none;stroke:rgb(17,17,17);stroke-width:1px;"/><path d="M7.673,12.464c-0.671,-0.149 -1.173,-0.749 -1.173,-1.464c0,-0.828 0.672,-1.5 1.5,-1.5c0.828,0 1.5,0.672 1.5,1.5c0,0.715 -0.502,1.315 -1.173,1.464l0.173,1.036l-1,0l0.173,-1.036Z" style="fill:none;stroke:rgb(17,17,17);stroke-width:1px;"/></g></svg>